<svg width="11" height="111" viewBox="0 0 11 111" fill="none" xmlns="http://www.w3.org/2000/svg">
<path d="M9.121 105.839C9.121 109.249 7.13 110.184 5.579 110.184H5.513V107.588C5.876 107.555 7.086 107.379 7.086 105.608V105.476C7.086 104.134 6.305 103.507 5.062 103.507H0.816L0.816 100.933H5.128C6.822 100.933 9.121 101.736 9.121 105.223V105.839ZM9.121 95.8863C9.121 99.2963 7.13 100.231 5.579 100.231H5.513V97.6353C5.876 97.6023 7.086 97.4263 7.086 95.6553V95.5233C7.086 94.1813 6.305 93.5543 5.062 93.5543H0.816L0.816 90.9803H5.128C6.822 90.9803 9.121 91.7833 9.121 95.2703V95.8863ZM10.441 75.7618L0.112 79.6008L0.112 77.7198L10.441 73.9138V75.7618ZM10.441 70.4393L0.112 74.2783L0.112 72.3973L10.441 68.5913V70.4393ZM10.441 65.1167L0.112 68.9557L0.112 67.0747L10.441 63.2687V65.1167ZM0.816 52.0848L0.816 43.6258H2.675L2.675 49.5328H3.885L3.885 43.7688H5.755L5.755 49.5328H9V52.0848H0.816ZM5.656 36.8762L2.587 38.4602L5.656 39.9782V36.8762ZM9 35.1602L7.504 35.9302V40.8912L9 41.6282V44.2352L0.816 40.0992L0.816 36.7772L9 32.3992V35.1602ZM9.143 26.8495V27.3005C9.143 32.0415 6.503 32.7785 5.04 32.7785H4.721C3.236 32.7785 0.673 32.1295 0.673 27.3005V26.8495C0.673 22.0975 2.939 21.3825 3.896 21.3715H4.017V24.0885C3.797 24.1545 2.653 24.4735 2.653 27.0805C2.653 29.5335 3.753 30.0945 4.776 30.0945H4.908C5.865 30.0945 7.152 29.4455 7.152 27.0585C7.152 24.4075 5.887 24.1325 5.7 24.0775V21.3605H5.821C6.855 21.3605 9.143 22.1635 9.143 26.8495ZM9 17.2971H2.752L2.752 20.8171H0.816L0.816 11.1811H2.752V14.7121H9V17.2971ZM9.143 5.7597C9.143 10.0497 7.295 10.5447 6.217 10.5447H6.096V7.8717C6.58 7.8387 7.394 7.5527 7.394 5.4407V5.2867C7.394 3.1307 6.965 2.8887 6.525 2.8887C6.052 2.8887 5.744 3.1417 5.7 5.0337L5.667 6.4417C5.579 9.4997 4.545 10.4347 3.269 10.4347H3.17C1.949 10.4347 0.673 9.6977 0.673 5.9797V5.2207C0.673 1.3487 2.026 0.468703 3.258 0.468703H3.368V3.1307C3.049 3.1747 2.389 3.3617 2.389 5.4957V5.6717C2.389 7.6517 2.752 7.7947 3.093 7.7947C3.434 7.7947 3.775 7.5857 3.797 5.9027L3.819 4.5277C3.885 1.4477 4.622 0.204703 6.25 0.204703H6.404C7.757 0.204703 9.143 0.886703 9.143 5.0007V5.7597Z" fill="black"/>
</svg>
