<svg width="127" height="477" viewBox="0 0 127 477" fill="none" xmlns="http://www.w3.org/2000/svg">
<path d="M27.1525 168.153C26.3651 142.428 25.7243 141.79 0 141C25.7243 140.213 26.3624 139.572 27.1525 113.848C27.9373 139.572 28.5808 140.21 54.3051 141C28.5808 141.79 27.9427 142.42 27.1525 168.153Z" fill="#0267FF"/>
<path d="M27.1525 230C26.3651 204.276 25.7243 203.638 0 202.848C25.7243 202.06 26.3624 201.419 27.1525 175.695C27.9373 201.419 28.5808 202.057 54.3051 202.848C28.5808 203.638 27.9427 204.268 27.1525 230Z" fill="#0267FF"/>
<path d="M56 459.875H25.775L56 465.95V474.425H0.199999L0.199999 465.95H30.425L0.199999 459.875L0.199999 451.4H56V459.875ZM31.475 439.803H56V448.278H0.199999L0.199999 439.803H22.55V434.028H0.199999L0.199999 425.553H56V434.028H31.475V439.803ZM0.199999 423.323L0.199999 400.673H8.3L8.3 407.798H56V416.198H8.3V423.323H0.199999ZM0.199999 398.543L0.199999 379.268H8.3V390.068H22.925L22.925 381.593H31.4L31.4 390.068H47.525V378.818H56V398.543H0.199999ZM32.825 363.218V368.168H56V376.643H0.199999L0.199999 363.218C0.199999 360.168 0.924998 357.968 2.375 356.618C3.775 355.218 6.125 354.518 9.425 354.518H22.625C29.425 354.518 32.825 357.418 32.825 363.218ZM7.775 368.168H24.8V365.993C24.8 364.793 24.475 364.018 23.825 363.668C23.125 363.268 22.1 363.068 20.75 363.068H11.6C10.35 363.068 9.4 363.268 8.75 363.668C8.1 364.068 7.775 364.843 7.775 365.993L7.775 368.168ZM21.8 343.636V338.686C21.8 332.886 25.225 329.986 32.075 329.986H46.25C49.6 329.986 52.075 330.686 53.675 332.086C55.225 333.486 56 335.686 56 338.686V352.111H0.199999L0.199999 343.636H21.8ZM47.9 343.636V341.461C47.9 340.311 47.575 339.536 46.925 339.136C46.275 338.736 45.325 338.536 44.075 338.536H33.95C32.6 338.536 31.6 338.736 30.95 339.136C30.25 339.486 29.9 340.261 29.9 341.461V343.636H47.9ZM0.199999 327.278L0.199999 308.003H8.3L8.3 318.803H22.925V310.328H31.4V318.803H47.525V307.553H56V327.278H0.199999ZM32.825 291.954V296.904H56L56 305.379H0.199999L0.199999 291.954C0.199999 288.904 0.924998 286.704 2.375 285.354C3.775 283.954 6.125 283.254 9.425 283.254H22.625C29.425 283.254 32.825 286.154 32.825 291.954ZM7.775 296.904H24.8V294.729C24.8 293.529 24.475 292.754 23.825 292.404C23.125 292.004 22.1 291.804 20.75 291.804H11.6C10.35 291.804 9.4 292.004 8.75 292.404C8.1 292.804 7.775 293.579 7.775 294.729V296.904ZM21.8 272.371V267.421C21.8 261.621 25.225 258.721 32.075 258.721H46.25C49.6 258.721 52.075 259.421 53.675 260.821C55.225 262.221 56 264.421 56 267.421V280.846H0.199999L0.199999 272.371H21.8ZM47.9 272.371V270.196C47.9 269.046 47.575 268.271 46.925 267.871C46.275 267.471 45.325 267.271 44.075 267.271H33.95C32.6 267.271 31.6 267.471 30.95 267.871C30.25 268.221 29.9 268.996 29.9 270.196V272.371H47.9ZM0.199999 247.846H56V256.321H0.199999L0.199999 247.846Z" fill="black"/>
<path d="M126 472.312H71.688V404.787H126V421.796H84.828V455.303H126V472.312ZM103.808 353.38L83.441 363.892L103.808 373.966V353.38ZM126 341.992L116.072 347.102V380.025L126 384.916V402.217L71.688 374.769L71.688 352.723L126 323.669V341.992ZM107.896 280.374L107.896 304.099H126V321.108H71.688V280.374C71.688 260.883 79.426 255.043 89.354 255.043H90.084C99.793 255.043 107.896 260.956 107.896 280.374ZM84.025 304.099H95.705V280.666C95.705 275.337 93.661 272.782 90.011 272.782H89.792C86.142 272.782 84.025 275.264 84.025 280.666V304.099ZM126 232.881V249.89H71.688V232.881H94.318L71.688 205.068V183.46L96.508 214.704L126 182L126 204.192L100.377 232.881H126ZM70.739 150.31V147.171C70.739 113.007 87.894 108.992 97.603 108.992H99.793C109.356 108.992 126.949 112.934 126.949 147.171V150.31C126.949 184.693 109.356 188.562 99.793 188.562H97.603C87.894 188.562 70.739 184.693 70.739 150.31ZM98.114 126.804C91.836 126.804 83.879 130.454 83.879 148.777C83.879 167.392 91.836 170.75 98.114 170.75H98.99C105.195 170.75 113.736 167.1 113.736 148.777C113.736 130.527 105.414 126.804 99.136 126.804H98.114ZM126 103.32H71.688V56.819C71.688 41.27 77.674 36.963 84.098 36.963H85.12C92.128 36.963 94.975 42.949 95.705 45.577C96.654 41.854 99.866 33.897 109.356 33.897H110.378C118.992 33.897 126 38.788 126 56.381V103.32ZM83.149 59.739V86.311H91.982V59.739C91.982 54.994 89.792 53.826 87.602 53.826H87.456C85.193 53.826 83.149 54.994 83.149 59.739ZM103.516 58.279V86.311H114.174V58.279C114.174 52.585 111.035 51.563 108.845 51.563H108.553C106.217 51.563 103.516 52.658 103.516 58.279Z" fill="black"/>
<path d="M63 31.9968C61.9441 31.9968 60.973 31.7328 60.0835 31.2048C59.2228 30.7057 58.5284 30.0241 58.0005 29.1633C57.5014 28.2738 57.2502 27.3026 57.2502 26.2467C57.2502 24.914 57.5557 23.802 58.1669 22.914C58.778 22.0245 59.7219 20.983 61.0002 19.7894C61.9441 18.9287 62.4161 18.1095 62.4161 17.3319V16.5816H61.6657C60.805 16.5816 59.6243 17.4423 58.1237 19.1654C56.6518 20.887 54.86 21.7477 52.7498 21.7477C51.6939 21.7477 50.7228 21.4981 49.8333 20.9973C48.9726 20.4694 48.2783 19.775 47.7503 18.9142C47.2512 18.0263 47 17.0535 47 15.9976C47 14.9417 47.2496 13.9833 47.7503 13.1225C48.2783 12.233 48.9726 11.5386 49.8333 11.0394C50.7228 10.5115 51.6939 10.2475 52.7498 10.2475C54.8328 10.2475 56.6102 11.0954 58.0821 12.7898C59.5539 14.4841 60.749 15.332 61.6657 15.332H62.4161V14.6649C62.4161 13.8873 61.9441 13.0681 61.0002 12.2074L60.0419 11.3322C59.3476 10.6939 58.7092 9.9291 58.1253 9.04115C57.5413 8.1244 57.2502 7.02685 57.2502 5.75011C57.2502 4.69417 57.4998 3.73581 58.0005 2.87505C58.5284 1.9855 59.2228 1.29114 60.0835 0.791962C60.973 0.263989 61.9441 0 63 0C64.0559 0 65.0142 0.263989 65.8749 0.791962C66.7644 1.31994 67.4588 2.01429 67.9579 2.87505C68.4858 3.73581 68.7498 4.69417 68.7498 5.75011C68.7498 7.83321 67.9035 9.61072 66.2093 11.0826C64.515 12.5546 63.6671 13.7497 63.6671 14.6665V15.3336H64.3343C65.2782 15.3336 66.4733 14.4857 67.9179 12.7914C69.3338 11.097 71.1112 10.2491 73.2502 10.2491C74.3061 10.2491 75.2644 10.5131 76.1251 11.041C77.0146 11.5402 77.7089 12.2218 78.2081 13.0825C78.736 13.9433 79 14.9161 79 15.9992C79 17.0823 78.736 18.0263 78.2081 18.9158C77.7089 19.7766 77.0146 20.471 76.1251 20.9989C75.2644 21.4981 74.3061 21.7493 73.2502 21.7493C71.9447 21.7493 70.82 21.4293 69.8761 20.791C68.9594 20.1526 67.9323 19.2214 66.7932 17.9991C65.9325 17.0551 65.1134 16.5832 64.3359 16.5832H63.6687V17.3335C63.6687 18.3607 64.5151 19.5558 66.2109 20.9174C67.9051 22.2789 68.7514 24.0564 68.7514 26.2499C68.7514 27.3058 68.4875 28.277 67.9595 29.1665C67.4588 30.0273 66.7788 30.7073 65.9181 31.208C65.0574 31.736 64.0847 32 63.0016 32L63 31.9968Z" fill="url(#paint0_linear_8347_387)"/>
<path d="M64.1433 186H61.8567V196.12L58.0662 186.736L55.9461 187.592L59.8358 197.219L52.4931 189.877L50.877 191.493L57.9141 198.53L48.7953 194.546L47.88 196.64L57.5301 200.856H47V203.142H57.5301L47.88 207.358L48.7953 209.453L57.9141 205.469L50.877 212.506L52.4931 214.122L59.8358 206.781L55.9461 216.408L58.0662 217.264L61.8567 207.88V218H64.1433V207.88L67.9338 217.264L70.0523 216.408L66.1626 206.781L73.5053 214.122L75.1214 212.506L68.0843 205.469L77.2031 209.453L78.1184 207.358L68.4699 203.142H79V200.856H68.4699L78.12 196.64L77.2047 194.546L68.0859 198.53L75.123 191.493L73.5069 189.877L66.1642 197.219L70.0539 187.592L67.9354 186.736L64.1449 196.12V186H64.1433Z" fill="url(#paint1_linear_8347_387)"/>
<path d="M56.8129 387.999C38.2446 401.676 49.3312 412.76 63.0034 394.191C76.6676 412.762 87.7525 401.677 69.1939 387.999C87.7605 374.324 76.6756 363.237 63.0034 381.81C49.3216 363.244 38.2366 374.324 56.8129 387.999ZM63.0002 391.999C65.2098 391.999 67.0002 390.208 67.0002 387.999C67.0002 385.789 65.2098 383.999 63.0002 383.999C60.7906 383.999 59.0001 385.789 59.0001 387.999C59.0001 390.208 60.7906 391.999 63.0002 391.999Z" fill="url(#paint2_linear_8347_387)"/>
<defs>
<linearGradient id="paint0_linear_8347_387" x1="52.3395" y1="2.30572" x2="71.7804" y2="27.187" gradientUnits="userSpaceOnUse">
<stop stop-color="#F0B153"/>
<stop offset="1" stop-color="#EFD0C4"/>
</linearGradient>
<linearGradient id="paint1_linear_8347_387" x1="52.3395" y1="188.306" x2="71.7804" y2="213.187" gradientUnits="userSpaceOnUse">
<stop stop-color="#F0B153"/>
<stop offset="1" stop-color="#EFD0C4"/>
</linearGradient>
<linearGradient id="paint2_linear_8347_387" x1="52.3395" y1="374.306" x2="71.7804" y2="399.187" gradientUnits="userSpaceOnUse">
<stop stop-color="#F0B153"/>
<stop offset="1" stop-color="#EFD0C4"/>
</linearGradient>
</defs>
</svg>
