<svg width="128" height="542" viewBox="0 0 128 542" fill="none" xmlns="http://www.w3.org/2000/svg">
<path d="M27.1525 230.153C26.3651 204.428 25.7243 203.79 0 203C25.7243 202.213 26.3624 201.572 27.1525 175.848C27.9373 201.572 28.5808 202.21 54.3051 203C28.5808 203.79 27.9427 204.42 27.1525 230.153Z" fill="#0267FF"/>
<path d="M27.1525 292C26.3651 266.276 25.7243 265.638 0 264.848C25.7243 264.06 26.3624 263.419 27.1525 237.695C27.9373 263.419 28.5808 264.057 54.3051 264.848C28.5808 265.638 27.9427 266.268 27.1525 292Z" fill="#0267FF"/>
<path d="M56 524.875H25.775L56 530.95V539.425H0.199999L0.199999 530.95H30.425L0.199999 524.875L0.199999 516.4H56V524.875ZM31.475 504.803H56V513.278H0.199999L0.199999 504.803H22.55V499.028H0.199999L0.199999 490.553H56V499.028H31.475V504.803ZM0.199999 488.323L0.199999 465.673H8.3L8.3 472.798H56V481.198H8.3V488.323H0.199999ZM0.199999 463.543L0.199999 444.268H8.3V455.068H22.925L22.925 446.593H31.4L31.4 455.068H47.525V443.818H56V463.543H0.199999ZM32.825 428.218V433.168H56V441.643H0.199999L0.199999 428.218C0.199999 425.168 0.924998 422.968 2.375 421.618C3.775 420.218 6.125 419.518 9.425 419.518H22.625C29.425 419.518 32.825 422.418 32.825 428.218ZM7.775 433.168H24.8V430.993C24.8 429.793 24.475 429.018 23.825 428.668C23.125 428.268 22.1 428.068 20.75 428.068H11.6C10.35 428.068 9.4 428.268 8.75 428.668C8.1 429.068 7.775 429.843 7.775 430.993L7.775 433.168ZM21.8 408.636V403.686C21.8 397.886 25.225 394.986 32.075 394.986H46.25C49.6 394.986 52.075 395.686 53.675 397.086C55.225 398.486 56 400.686 56 403.686V417.111H0.199999L0.199999 408.636H21.8ZM47.9 408.636V406.461C47.9 405.311 47.575 404.536 46.925 404.136C46.275 403.736 45.325 403.536 44.075 403.536H33.95C32.6 403.536 31.6 403.736 30.95 404.136C30.25 404.486 29.9 405.261 29.9 406.461V408.636H47.9ZM0.199999 392.278L0.199999 373.003H8.3L8.3 383.803H22.925V375.328H31.4V383.803H47.525V372.553H56V392.278H0.199999ZM32.825 356.954V361.904H56L56 370.379H0.199999L0.199999 356.954C0.199999 353.904 0.924998 351.704 2.375 350.354C3.775 348.954 6.125 348.254 9.425 348.254H22.625C29.425 348.254 32.825 351.154 32.825 356.954ZM7.775 361.904H24.8V359.729C24.8 358.529 24.475 357.754 23.825 357.404C23.125 357.004 22.1 356.804 20.75 356.804H11.6C10.35 356.804 9.4 357.004 8.75 357.404C8.1 357.804 7.775 358.579 7.775 359.729V361.904ZM21.8 337.371V332.421C21.8 326.621 25.225 323.721 32.075 323.721H46.25C49.6 323.721 52.075 324.421 53.675 325.821C55.225 327.221 56 329.421 56 332.421V345.846H0.199999L0.199999 337.371H21.8ZM47.9 337.371V335.196C47.9 334.046 47.575 333.271 46.925 332.871C46.275 332.471 45.325 332.271 44.075 332.271H33.95C32.6 332.271 31.6 332.471 30.95 332.871C30.25 333.221 29.9 333.996 29.9 335.196V337.371H47.9ZM0.199999 312.846H56V321.321H0.199999L0.199999 312.846Z" fill="black"/>
<path d="M126.615 537.312H72.3032V469.787H126.615V486.796H85.4432V520.303H126.615V537.312ZM104.423 418.38L84.0562 428.892L104.423 438.966V418.38ZM126.615 406.992L116.687 412.102V445.025L126.615 449.916V467.217L72.3032 439.769L72.3032 417.723L126.615 388.669V406.992ZM108.511 345.374L108.511 369.099H126.615V386.108H72.3032V345.374C72.3032 325.883 80.0412 320.043 89.9692 320.043H90.6992C100.408 320.043 108.511 325.956 108.511 345.374ZM84.6402 369.099H96.3202V345.666C96.3202 340.337 94.2762 337.782 90.6262 337.782H90.4072C86.7572 337.782 84.6402 340.264 84.6402 345.666V369.099ZM126.615 297.881V314.89H72.3032V297.881H94.9332L72.3032 270.068V248.46L97.1232 279.704L126.615 247L126.615 269.192L100.992 297.881H126.615ZM71.3542 215.31V212.171C71.3542 178.007 88.5092 173.992 98.2182 173.992H100.408C109.971 173.992 127.564 177.934 127.564 212.171V215.31C127.564 249.693 109.971 253.562 100.408 253.562H98.2182C88.5092 253.562 71.3542 249.693 71.3542 215.31ZM98.7292 191.804C92.4512 191.804 84.4942 195.454 84.4942 213.777C84.4942 232.392 92.4512 235.75 98.7292 235.75H99.6052C105.81 235.75 114.351 232.1 114.351 213.777C114.351 195.527 106.029 191.804 99.7512 191.804H98.7292ZM126.615 168.32H72.3032V121.819C72.3032 106.27 78.2892 101.963 84.7132 101.963H85.7352C92.7432 101.963 95.5902 107.949 96.3202 110.577C97.2692 106.854 100.481 98.897 109.971 98.897H110.993C119.607 98.897 126.615 103.788 126.615 121.381V168.32ZM83.7642 124.739V151.311H92.5972V124.739C92.5972 119.994 90.4072 118.826 88.2172 118.826H88.0712C85.8082 118.826 83.7642 119.994 83.7642 124.739ZM104.131 123.279V151.311H114.789V123.279C114.789 117.585 111.65 116.563 109.46 116.563H109.168C106.832 116.563 104.131 117.658 104.131 123.279Z" fill="black"/>
<path d="M63 96.9968C61.9441 96.9968 60.973 96.7328 60.0835 96.2048C59.2228 95.7057 58.5284 95.0241 58.0005 94.1633C57.5014 93.2738 57.2502 92.3026 57.2502 91.2467C57.2502 89.914 57.5557 88.802 58.1669 87.914C58.778 87.0245 59.7219 85.983 61.0002 84.7894C61.9441 83.9287 62.4161 83.1095 62.4161 82.3319V81.5816H61.6657C60.805 81.5816 59.6243 82.4423 58.1237 84.1654C56.6518 85.887 54.86 86.7477 52.7498 86.7477C51.6939 86.7477 50.7228 86.4981 49.8333 85.9973C48.9726 85.4694 48.2783 84.775 47.7503 83.9142C47.2512 83.0263 47 82.0535 47 80.9976C47 79.9417 47.2496 78.9833 47.7503 78.1225C48.2783 77.233 48.9726 76.5386 49.8333 76.0394C50.7228 75.5115 51.6939 75.2475 52.7498 75.2475C54.8328 75.2475 56.6102 76.0954 58.0821 77.7898C59.5539 79.4841 60.749 80.332 61.6657 80.332H62.4161V79.6649C62.4161 78.8873 61.9441 78.0681 61.0002 77.2074L60.0419 76.3322C59.3476 75.6939 58.7092 74.9291 58.1253 74.0411C57.5413 73.1244 57.2502 72.0268 57.2502 70.7501C57.2502 69.6942 57.4998 68.7358 58.0005 67.8751C58.5284 66.9855 59.2228 66.2911 60.0835 65.792C60.973 65.264 61.9441 65 63 65C64.0559 65 65.0142 65.264 65.8749 65.792C66.7644 66.3199 67.4588 67.0143 67.9579 67.8751C68.4858 68.7358 68.7498 69.6942 68.7498 70.7501C68.7498 72.8332 67.9035 74.6107 66.2093 76.0826C64.515 77.5546 63.6671 78.7497 63.6671 79.6665V80.3336H64.3343C65.2782 80.3336 66.4733 79.4857 67.9179 77.7914C69.3338 76.097 71.1112 75.2491 73.2502 75.2491C74.3061 75.2491 75.2644 75.5131 76.1251 76.041C77.0146 76.5402 77.7089 77.2218 78.2081 78.0825C78.736 78.9433 79 79.9161 79 80.9992C79 82.0823 78.736 83.0263 78.2081 83.9158C77.7089 84.7766 77.0146 85.471 76.1251 85.9989C75.2644 86.4981 74.3061 86.7493 73.2502 86.7493C71.9447 86.7493 70.82 86.4293 69.8761 85.791C68.9594 85.1526 67.9323 84.2214 66.7932 82.9991C65.9325 82.0551 65.1134 81.5832 64.3359 81.5832H63.6687V82.3335C63.6687 83.3607 64.5151 84.5558 66.2109 85.9174C67.9051 87.2789 68.7514 89.0564 68.7514 91.2499C68.7514 92.3058 68.4875 93.277 67.9595 94.1665C67.4588 95.0273 66.7788 95.7073 65.9181 96.208C65.0574 96.736 64.0847 97 63.0016 97L63 96.9968Z" fill="url(#paint0_linear_8347_387)"/>
<path d="M64.1433 251H61.8567V261.12L58.0662 251.736L55.9461 252.592L59.8358 262.219L52.4931 254.877L50.877 256.493L57.9141 263.53L48.7953 259.546L47.88 261.64L57.5301 265.856H47V268.142H57.5301L47.88 272.358L48.7953 274.453L57.9141 270.469L50.877 277.506L52.4931 279.122L59.8358 271.781L55.9461 281.408L58.0662 282.264L61.8567 272.88V283H64.1433V272.88L67.9338 282.264L70.0523 281.408L66.1626 271.781L73.5053 279.122L75.1214 277.506L68.0843 270.469L77.2031 274.453L78.1184 272.358L68.4699 268.142H79V265.856H68.4699L78.12 261.64L77.2047 259.546L68.0859 263.53L75.123 256.493L73.5069 254.877L66.1642 262.219L70.0539 252.592L67.9354 251.736L64.1449 261.12V251H64.1433Z" fill="url(#paint1_linear_8347_387)"/>
<path d="M56.8129 452.999C38.2446 466.676 49.3312 477.76 63.0034 459.191C76.6676 477.762 87.7525 466.677 69.1939 452.999C87.7605 439.324 76.6756 428.237 63.0034 446.81C49.3216 428.244 38.2366 439.324 56.8129 452.999ZM63.0002 456.999C65.2098 456.999 67.0002 455.208 67.0002 452.999C67.0002 450.789 65.2098 448.999 63.0002 448.999C60.7906 448.999 59.0001 450.789 59.0001 452.999C59.0001 455.208 60.7906 456.999 63.0002 456.999Z" fill="url(#paint2_linear_8347_387)"/>
<defs>
<linearGradient id="paint0_linear_8347_387" x1="52.3395" y1="67.3057" x2="71.7804" y2="92.187" gradientUnits="userSpaceOnUse">
<stop stop-color="#F0B153"/>
<stop offset="1" stop-color="#EFD0C4"/>
</linearGradient>
<linearGradient id="paint1_linear_8347_387" x1="52.3395" y1="253.306" x2="71.7804" y2="278.187" gradientUnits="userSpaceOnUse">
<stop stop-color="#F0B153"/>
<stop offset="1" stop-color="#EFD0C4"/>
</linearGradient>
<linearGradient id="paint2_linear_8347_387" x1="52.3395" y1="439.306" x2="71.7804" y2="464.187" gradientUnits="userSpaceOnUse">
<stop stop-color="#F0B153"/>
<stop offset="1" stop-color="#EFD0C4"/>
</linearGradient>
</defs>
</svg>
