<svg width="331" height="28" viewBox="0 0 331 28" fill="none" xmlns="http://www.w3.org/2000/svg">
<path d="M17.536 0.775999H18.912C33.888 0.775999 35.648 8.296 35.648 12.552V13.512C35.648 17.704 33.92 25.416 18.912 25.416H17.536C2.464 25.416 0.768 17.704 0.768 13.512V12.552C0.768 8.296 2.464 0.775999 17.536 0.775999ZM27.84 12.776C27.84 10.024 26.24 6.536 18.208 6.536C10.048 6.536 8.576 10.024 8.576 12.776V13.16C8.576 15.88 10.176 19.624 18.208 19.624C26.208 19.624 27.84 15.976 27.84 13.224V12.776Z" fill="black"/>
<mask id="path-2-outside-1_7702_14377" maskUnits="userSpaceOnUse" x="56" y="1" width="244" height="28" fill="black">
<rect fill="white" x="56" y="1" width="244" height="28"/>
<path d="M70.768 27.352C60.848 27.352 58.128 21.56 58.128 17.048V16.856H65.68C65.776 17.912 66.288 21.432 71.44 21.432H71.824C75.728 21.432 77.552 19.16 77.552 15.544V3.192H85.04V15.736C85.04 20.664 82.704 27.352 72.56 27.352H70.768ZM104.005 2.776H105.381C120.357 2.776 122.117 10.296 122.117 14.552V15.512C122.117 19.704 120.389 27.416 105.381 27.416H104.005C88.9328 27.416 87.2368 19.704 87.2368 15.512V14.552C87.2368 10.296 88.9328 2.776 104.005 2.776ZM114.309 14.776C114.309 12.024 112.709 8.536 104.677 8.536C96.5168 8.536 95.0448 12.024 95.0448 14.776V15.16C95.0448 17.88 96.6448 21.624 104.677 21.624C112.677 21.624 114.309 17.976 114.309 15.224V14.776ZM132.059 27H124.603V3.192H132.059V13.112L144.251 3.192H153.723L140.027 14.072L154.363 27H144.635L132.059 15.768V27ZM162.84 3.192V27H155.384V3.192H162.84ZM187.174 27.352C177.254 27.352 174.534 21.56 174.534 17.048V16.856H182.086C182.182 17.912 182.694 21.432 187.846 21.432H188.23C192.134 21.432 193.958 19.16 193.958 15.544V3.192H201.446V15.736C201.446 20.664 199.11 27.352 188.966 27.352H187.174ZM220.411 2.776H221.787C236.763 2.776 238.523 10.296 238.523 14.552V15.512C238.523 19.704 236.795 27.416 221.787 27.416H220.411C205.339 27.416 203.643 19.704 203.643 15.512V14.552C203.643 10.296 205.339 2.776 220.411 2.776ZM230.715 14.776C230.715 12.024 229.115 8.536 221.083 8.536C212.923 8.536 211.451 12.024 211.451 14.776V15.16C211.451 17.88 213.051 21.624 221.083 21.624C229.083 21.624 230.715 17.976 230.715 15.224V14.776ZM248.499 27V17.784L235.762 3.192H245.01L252.403 11.96L259.923 3.192H268.339L255.955 17.784V27H248.499ZM283.519 17.272L278.911 8.344L274.495 17.272H283.519ZM288.511 27L286.271 22.648H271.839L269.695 27H262.111L274.143 3.192H283.807L296.543 27H288.511Z"/>
</mask>
<path d="M58.128 16.856V15.2817H56.5537V16.856H58.128ZM65.68 16.856L67.2478 16.7135L67.1177 15.2817H65.68V16.856ZM77.552 3.192V1.61769H75.9777V3.192H77.552ZM85.04 3.192H86.6143V1.61769H85.04V3.192ZM70.768 25.7777C66.1216 25.7777 63.4179 24.4304 61.8669 22.8051C60.294 21.1568 59.7023 19.009 59.7023 17.048H56.5537C56.5537 19.599 57.322 22.6032 59.5891 24.9789C61.8781 27.3776 65.4944 28.9263 70.768 28.9263V25.7777ZM59.7023 17.048V16.856H56.5537V17.048H59.7023ZM58.128 18.4303H65.68V15.2817H58.128V18.4303ZM64.1122 16.9985C64.1677 17.6099 64.3531 19.1276 65.4195 20.5041C66.5498 21.9633 68.4616 23.0063 71.44 23.0063V19.8577C69.2664 19.8577 68.3462 19.1407 67.9085 18.5759C67.4069 17.9284 67.2883 17.1581 67.2478 16.7135L64.1122 16.9985ZM71.44 23.0063H71.824V19.8577H71.44V23.0063ZM71.824 23.0063C74.0837 23.0063 75.9868 22.3402 77.3074 20.9133C78.6084 19.5076 79.1263 17.5971 79.1263 15.544H75.9777C75.9777 17.1069 75.5836 18.1404 74.9966 18.7747C74.4292 19.3878 73.4683 19.8577 71.824 19.8577V23.0063ZM79.1263 15.544V3.192H75.9777V15.544H79.1263ZM77.552 4.76631H85.04V1.61769H77.552V4.76631ZM83.4657 3.192V15.736H86.6143V3.192H83.4657ZM83.4657 15.736C83.4657 17.9887 82.9266 20.4912 81.3803 22.4015C79.8845 24.2495 77.2561 25.7777 72.56 25.7777V28.9263C78.0079 28.9263 81.6195 27.1105 83.8277 24.3825C85.9854 21.7168 86.6143 18.4113 86.6143 15.736H83.4657ZM72.56 25.7777H70.768V28.9263H72.56V25.7777ZM104.005 4.35031H105.381V1.20169H104.005V4.35031ZM105.381 4.35031C112.628 4.35031 116.322 6.16883 118.228 8.15739C120.14 10.1522 120.542 12.6174 120.542 14.552H123.691C123.691 12.2306 123.213 8.80777 120.501 5.97861C117.783 3.14317 113.11 1.20169 105.381 1.20169V4.35031ZM120.542 14.552V15.512H123.691V14.552H120.542ZM120.542 15.512C120.542 17.417 120.147 19.9206 118.23 21.957C116.326 23.9806 112.634 25.8417 105.381 25.8417V28.9903C113.136 28.9903 117.812 26.9954 120.523 24.115C123.222 21.2474 123.691 17.799 123.691 15.512H120.542ZM105.381 25.8417H104.005V28.9903H105.381V25.8417ZM104.005 25.8417C96.7175 25.8417 93.0188 23.9794 91.1151 21.957C89.2 19.9224 88.8111 17.4208 88.8111 15.512H85.6624C85.6624 17.7952 86.1215 21.2456 88.8224 24.115C91.5347 26.9966 96.22 28.9903 104.005 28.9903V25.8417ZM88.8111 15.512V14.552H85.6624V15.512H88.8111ZM88.8111 14.552C88.8111 12.6095 89.2007 10.1478 91.1062 8.15641C93.0065 6.17051 96.7063 4.35031 104.005 4.35031V1.20169C96.2312 1.20169 91.547 3.14149 88.8313 5.97959C86.1208 8.8122 85.6624 12.2385 85.6624 14.552H88.8111ZM115.883 14.776C115.883 13.0914 115.383 11.034 113.535 9.43398C111.731 7.87083 108.886 6.96169 104.677 6.96169V10.1103C108.5 10.1103 110.471 10.9452 111.474 11.814C112.435 12.646 112.734 13.7086 112.734 14.776H115.883ZM104.677 6.96169C100.412 6.96169 97.5582 7.86743 95.7633 9.43985C93.9227 11.0524 93.4704 13.1191 93.4704 14.776H96.6191C96.6191 13.6809 96.9028 12.6276 97.8382 11.8082C98.8193 10.9486 100.782 10.1103 104.677 10.1103V6.96169ZM93.4704 14.776V15.16H96.6191V14.776H93.4704ZM93.4704 15.16C93.4704 16.8237 93.9667 18.92 95.7899 20.577C97.5903 22.2132 100.442 23.1983 104.677 23.1983V20.0497C100.879 20.0497 98.9152 19.1627 97.9076 18.247C96.9228 17.352 96.6191 16.2163 96.6191 15.16H93.4704ZM104.677 23.1983C108.887 23.1983 111.736 22.241 113.541 20.6308C115.375 18.9946 115.883 16.9097 115.883 15.224H112.734C112.734 16.2903 112.427 17.4054 111.445 18.2812C110.434 19.183 108.466 20.0497 104.677 20.0497V23.1983ZM115.883 15.224V14.776H112.734V15.224H115.883ZM132.059 27V28.5743H133.633V27H132.059ZM124.603 27H123.029V28.5743H124.603V27ZM124.603 3.192V1.61769H123.029V3.192H124.603ZM132.059 3.192H133.633V1.61769H132.059V3.192ZM132.059 13.112H130.485V16.4225L133.053 14.3332L132.059 13.112ZM144.251 3.192V1.61769H143.691L143.257 1.97084L144.251 3.192ZM153.723 3.192L154.702 4.42469L158.236 1.61769H153.723V3.192ZM140.027 14.072L139.048 12.8393L137.592 13.9959L138.973 15.2411L140.027 14.072ZM154.363 27V28.5743H158.46L155.417 25.8309L154.363 27ZM144.635 27L143.586 28.1742L144.034 28.5743H144.635V27ZM132.059 15.768L133.108 14.5938L130.485 12.2511V15.768H132.059ZM132.059 25.4257H124.603V28.5743H132.059V25.4257ZM126.177 27V3.192H123.029V27H126.177ZM124.603 4.76631H132.059V1.61769H124.603V4.76631ZM130.485 3.192V13.112H133.633V3.192H130.485ZM133.053 14.3332L145.245 4.41315L143.257 1.97084L131.065 11.8908L133.053 14.3332ZM144.251 4.76631H153.723V1.61769H144.251V4.76631ZM152.744 1.95931L139.048 12.8393L141.006 15.3047L154.702 4.42469L152.744 1.95931ZM138.973 15.2411L153.309 28.1691L155.417 25.8309L141.081 12.9029L138.973 15.2411ZM154.363 25.4257H144.635V28.5743H154.363V25.4257ZM145.684 25.8258L133.108 14.5938L131.01 16.9422L143.586 28.1742L145.684 25.8258ZM130.485 15.768V27H133.633V15.768H130.485ZM162.84 3.192H164.415V1.61769H162.84V3.192ZM162.84 27V28.5743H164.415V27H162.84ZM155.384 27H153.81V28.5743H155.384V27ZM155.384 3.192V1.61769H153.81V3.192H155.384ZM161.266 3.192V27H164.415V3.192H161.266ZM162.84 25.4257H155.384V28.5743H162.84V25.4257ZM156.959 27V3.192H153.81V27H156.959ZM155.384 4.76631H162.84V1.61769H155.384V4.76631ZM174.534 16.856V15.2817H172.96V16.856H174.534ZM182.086 16.856L183.654 16.7135L183.524 15.2817H182.086V16.856ZM193.958 3.192V1.61769H192.384V3.192H193.958ZM201.446 3.192H203.021V1.61769H201.446V3.192ZM187.174 25.7777C182.528 25.7777 179.824 24.4304 178.273 22.8051C176.7 21.1568 176.109 19.009 176.109 17.048H172.96C172.96 19.599 173.728 22.6032 175.995 24.9789C178.284 27.3776 181.901 28.9263 187.174 28.9263V25.7777ZM176.109 17.048V16.856H172.96V17.048H176.109ZM174.534 18.4303H182.086V15.2817H174.534V18.4303ZM180.518 16.9985C180.574 17.6099 180.759 19.1276 181.826 20.5041C182.956 21.9633 184.868 23.0063 187.846 23.0063V19.8577C185.673 19.8577 184.752 19.1407 184.315 18.5759C183.813 17.9284 183.695 17.1581 183.654 16.7135L180.518 16.9985ZM187.846 23.0063H188.23V19.8577H187.846V23.0063ZM188.23 23.0063C190.49 23.0063 192.393 22.3402 193.714 20.9133C195.015 19.5076 195.533 17.5971 195.533 15.544H192.384C192.384 17.1069 191.99 18.1404 191.403 18.7747C190.835 19.3878 189.875 19.8577 188.23 19.8577V23.0063ZM195.533 15.544V3.192H192.384V15.544H195.533ZM193.958 4.76631H201.446V1.61769H193.958V4.76631ZM199.872 3.192V15.736H203.021V3.192H199.872ZM199.872 15.736C199.872 17.9887 199.333 20.4912 197.787 22.4015C196.291 24.2495 193.662 25.7777 188.966 25.7777V28.9263C194.414 28.9263 198.026 27.1105 200.234 24.3825C202.392 21.7168 203.021 18.4113 203.021 15.736H199.872ZM188.966 25.7777H187.174V28.9263H188.966V25.7777ZM220.411 4.35031H221.787V1.20169H220.411V4.35031ZM221.787 4.35031C229.034 4.35031 232.728 6.16883 234.634 8.15739C236.547 10.1522 236.949 12.6174 236.949 14.552H240.097C240.097 12.2306 239.619 8.80777 236.908 5.97861C234.19 3.14317 229.516 1.20169 221.787 1.20169V4.35031ZM236.949 14.552V15.512H240.097V14.552H236.949ZM236.949 15.512C236.949 17.417 236.553 19.9206 234.637 21.957C232.732 23.9806 229.04 25.8417 221.787 25.8417V28.9903C229.542 28.9903 234.218 26.9954 236.929 24.115C239.629 21.2474 240.097 17.799 240.097 15.512H236.949ZM221.787 25.8417H220.411V28.9903H221.787V25.8417ZM220.411 25.8417C213.124 25.8417 209.425 23.9794 207.521 21.957C205.606 19.9224 205.217 17.4208 205.217 15.512H202.069C202.069 17.7952 202.528 21.2456 205.229 24.115C207.941 26.9966 212.626 28.9903 220.411 28.9903V25.8417ZM205.217 15.512V14.552H202.069V15.512H205.217ZM205.217 14.552C205.217 12.6095 205.607 10.1478 207.512 8.15641C209.413 6.17051 213.113 4.35031 220.411 4.35031V1.20169C212.637 1.20169 207.953 3.14149 205.238 5.97959C202.527 8.8122 202.069 12.2385 202.069 14.552H205.217ZM232.289 14.776C232.289 13.0914 231.789 11.034 229.942 9.43398C228.137 7.87083 225.292 6.96169 221.083 6.96169V10.1103C224.906 10.1103 226.877 10.9452 227.88 11.814C228.841 12.646 229.141 13.7086 229.141 14.776H232.289ZM221.083 6.96169C216.818 6.96169 213.964 7.86743 212.17 9.43985C210.329 11.0524 209.877 13.1191 209.877 14.776H213.025C213.025 13.6809 213.309 12.6276 214.244 11.8082C215.226 10.9486 217.188 10.1103 221.083 10.1103V6.96169ZM209.877 14.776V15.16H213.025V14.776H209.877ZM209.877 15.16C209.877 16.8237 210.373 18.92 212.196 20.577C213.997 22.2132 216.848 23.1983 221.083 23.1983V20.0497C217.286 20.0497 215.321 19.1627 214.314 18.247C213.329 17.352 213.025 16.2163 213.025 15.16H209.877ZM221.083 23.1983C225.294 23.1983 228.142 22.241 229.947 20.6308C231.781 18.9946 232.289 16.9097 232.289 15.224H229.141C229.141 16.2903 228.833 17.4054 227.851 18.2812C226.84 19.183 224.872 20.0497 221.083 20.0497V23.1983ZM232.289 15.224V14.776H229.141V15.224H232.289ZM248.499 27H246.924V28.5743H248.499V27ZM248.499 17.784H250.073V17.1936L249.685 16.7488L248.499 17.784ZM235.762 3.192V1.61769H232.299L234.576 4.22721L235.762 3.192ZM245.01 3.192L246.214 2.17726L245.742 1.61769H245.01V3.192ZM252.402 11.96L251.199 12.9747L252.392 14.3902L253.597 12.9849L252.402 11.96ZM259.923 3.192V1.61769H259.199L258.728 2.1671L259.923 3.192ZM268.339 3.192L269.539 4.21068L271.739 1.61769H268.339V3.192ZM255.954 17.784L254.754 16.7653L254.38 17.206V17.784H255.954ZM255.954 27V28.5743H257.529V27H255.954ZM250.073 27V17.784H246.924V27H250.073ZM249.685 16.7488L236.949 2.15679L234.576 4.22721L247.312 18.8192L249.685 16.7488ZM235.762 4.76631H245.01V1.61769H235.762V4.76631ZM243.807 4.20674L251.199 12.9747L253.606 10.9453L246.214 2.17726L243.807 4.20674ZM253.597 12.9849L261.117 4.2169L258.728 2.1671L251.208 10.9351L253.597 12.9849ZM259.923 4.76631H268.339V1.61769H259.923V4.76631ZM267.138 2.17332L254.754 16.7653L257.155 18.8027L269.539 4.21068L267.138 2.17332ZM254.38 17.784V27H257.529V17.784H254.38ZM255.954 25.4257H248.499V28.5743H255.954V25.4257ZM283.519 17.272V18.8463H286.103L284.918 16.55L283.519 17.272ZM278.911 8.344L280.31 7.62196L278.881 4.85354L277.5 7.64602L278.911 8.344ZM274.495 17.272L273.084 16.574L271.96 18.8463H274.495V17.272ZM288.511 27L287.111 27.7205L287.55 28.5743H288.511V27ZM286.271 22.648L287.671 21.9275L287.231 21.0737H286.271V22.648ZM271.839 22.648V21.0737H270.859L270.427 21.9523L271.839 22.648ZM269.695 27V28.5743H270.674L271.107 27.6957L269.695 27ZM262.111 27L260.706 26.2899L259.551 28.5743H262.111V27ZM274.143 3.192V1.61769H273.174L272.738 2.48191L274.143 3.192ZM283.807 3.192L285.195 2.44941L284.75 1.61769H283.807V3.192ZM296.543 27V28.5743H299.17L297.931 26.2574L296.543 27ZM284.918 16.55L280.31 7.62196L277.512 9.06604L282.12 17.994L284.918 16.55ZM277.5 7.64602L273.084 16.574L275.906 17.97L280.322 9.04198L277.5 7.64602ZM274.495 18.8463H283.519V15.6977H274.495V18.8463ZM289.911 26.2795L287.671 21.9275L284.871 23.3685L287.111 27.7205L289.911 26.2795ZM286.271 21.0737H271.839V24.2223H286.271V21.0737ZM270.427 21.9523L268.283 26.3043L271.107 27.6957L273.251 23.3437L270.427 21.9523ZM269.695 25.4257H262.111V28.5743H269.695V25.4257ZM263.516 27.7101L275.548 3.90209L272.738 2.48191L260.706 26.2899L263.516 27.7101ZM274.143 4.76631H283.807V1.61769H274.143V4.76631ZM282.419 3.93459L295.155 27.7426L297.931 26.2574L285.195 2.44941L282.419 3.93459ZM296.543 25.4257H288.511V28.5743H296.543V25.4257Z" fill="#ABEC20" mask="url(#path-2-outside-1_7702_14377)"/>
<path d="M64.768 25.352C54.848 25.352 52.128 19.56 52.128 15.048V14.856H59.68C59.776 15.912 60.288 19.432 65.44 19.432H65.824C69.728 19.432 71.552 17.16 71.552 13.544V1.192H79.04V13.736C79.04 18.664 76.704 25.352 66.56 25.352H64.768ZM98.0048 0.775999H99.3808C114.357 0.775999 116.117 8.296 116.117 12.552V13.512C116.117 17.704 114.389 25.416 99.3808 25.416H98.0048C82.9328 25.416 81.2368 17.704 81.2368 13.512V12.552C81.2368 8.296 82.9328 0.775999 98.0048 0.775999ZM108.309 12.776C108.309 10.024 106.709 6.536 98.6768 6.536C90.5168 6.536 89.0448 10.024 89.0448 12.776V13.16C89.0448 15.88 90.6448 19.624 98.6768 19.624C106.677 19.624 108.309 15.976 108.309 13.224V12.776ZM126.059 25H118.603V1.192H126.059V11.112L138.251 1.192H147.723L134.027 12.072L148.363 25H138.635L126.059 13.768V25ZM156.84 1.192V25H149.384V1.192H156.84ZM181.174 25.352C171.254 25.352 168.534 19.56 168.534 15.048V14.856H176.086C176.182 15.912 176.694 19.432 181.846 19.432H182.23C186.134 19.432 187.958 17.16 187.958 13.544V1.192H195.446V13.736C195.446 18.664 193.11 25.352 182.966 25.352H181.174ZM214.411 0.775999H215.787C230.763 0.775999 232.523 8.296 232.523 12.552V13.512C232.523 17.704 230.795 25.416 215.787 25.416H214.411C199.339 25.416 197.643 17.704 197.643 13.512V12.552C197.643 8.296 199.339 0.775999 214.411 0.775999ZM224.715 12.776C224.715 10.024 223.115 6.536 215.083 6.536C206.923 6.536 205.451 10.024 205.451 12.776V13.16C205.451 15.88 207.051 19.624 215.083 19.624C223.083 19.624 224.715 15.976 224.715 13.224V12.776ZM242.499 25V15.784L229.762 1.192H239.01L246.403 9.96L253.923 1.192H262.339L249.955 15.784V25H242.499ZM277.519 15.272L272.911 6.344L268.495 15.272H277.519ZM282.511 25L280.271 20.648H265.839L263.695 25H256.111L268.143 1.192H277.807L290.543 25H282.511Z" fill="#0267FF"/>
<path d="M319 25C318.652 13.6312 318.369 13.3492 307 13C318.369 12.652 318.651 12.3688 319 1C319.347 12.3688 319.631 12.6508 331 13C319.631 13.3492 319.349 13.6276 319 25Z" fill="#0267FF"/>
</svg>
