<svg width="1157" height="67" viewBox="0 0 1157 67" fill="none" xmlns="http://www.w3.org/2000/svg">
<path d="M40.004 0.738998H43.143C77.307 0.738998 81.322 17.894 81.322 27.603V29.793C81.322 39.356 77.38 56.949 43.143 56.949H40.004C5.621 56.949 1.752 39.356 1.752 29.793V27.603C1.752 17.894 5.621 0.738998 40.004 0.738998ZM63.51 28.114C63.51 21.836 59.86 13.879 41.537 13.879C22.922 13.879 19.564 21.836 19.564 28.114V28.99C19.564 35.195 23.214 43.736 41.537 43.736C59.787 43.736 63.51 35.414 63.51 29.136V28.114Z" fill="black"/>
<mask id="path-2-outside-1_7702_12903" maskUnits="userSpaceOnUse" x="104" y="7" width="553" height="63" fill="black">
<rect fill="white" x="104" y="7" width="553" height="63"/>
<path d="M136.127 66.803C113.497 66.803 107.292 53.59 107.292 43.297V42.859H124.52C124.739 45.268 125.907 53.298 137.66 53.298H138.536C147.442 53.298 151.603 48.115 151.603 39.866V11.688H168.685V40.304C168.685 51.546 163.356 66.803 140.215 66.803H136.127ZM211.948 10.739H215.087C249.251 10.739 253.266 27.894 253.266 37.603V39.793C253.266 49.356 249.324 66.949 215.087 66.949H211.948C177.565 66.949 173.696 49.356 173.696 39.793V37.603C173.696 27.894 177.565 10.739 211.948 10.739ZM235.454 38.114C235.454 31.836 231.804 23.879 213.481 23.879C194.866 23.879 191.508 31.836 191.508 38.114V38.99C191.508 45.195 195.158 53.736 213.481 53.736C231.731 53.736 235.454 45.414 235.454 39.136V38.114ZM275.947 66H258.938V11.688H275.947V34.318L303.76 11.688H325.368L294.124 36.508L326.828 66H304.636L275.947 40.377V66ZM346.167 11.688V66H329.158V11.688H346.167ZM401.679 66.803C379.049 66.803 372.844 53.59 372.844 43.297V42.859H390.072C390.291 45.268 391.459 53.298 403.212 53.298H404.088C412.994 53.298 417.155 48.115 417.155 39.866V11.688H434.237V40.304C434.237 51.546 428.908 66.803 405.767 66.803H401.679ZM477.5 10.739H480.639C514.803 10.739 518.818 27.894 518.818 37.603V39.793C518.818 49.356 514.876 66.949 480.639 66.949H477.5C443.117 66.949 439.248 49.356 439.248 39.793V37.603C439.248 27.894 443.117 10.739 477.5 10.739ZM501.006 38.114C501.006 31.836 497.356 23.879 479.033 23.879C460.418 23.879 457.06 31.836 457.06 38.114V38.99C457.06 45.195 460.71 53.736 479.033 53.736C497.283 53.736 501.006 45.414 501.006 39.136V38.114ZM541.575 66V44.976L512.521 11.688H533.618L550.481 31.69L567.636 11.688H586.835L558.584 44.976V66H541.575ZM621.465 43.808L610.953 23.441L600.879 43.808H621.465ZM632.853 66L627.743 56.072H594.82L589.929 66H572.628L600.076 11.688H622.122L651.176 66H632.853Z"/>
</mask>
<path d="M107.292 42.859V39.859H104.292V42.859H107.292ZM124.52 42.859L127.508 42.5874L127.26 39.859H124.52V42.859ZM151.603 11.688V8.688H148.603V11.688H151.603ZM168.685 11.688H171.685V8.688H168.685V11.688ZM136.127 63.803C125.41 63.803 119.07 60.6917 115.394 56.8388C111.675 52.9419 110.292 47.8814 110.292 43.297H104.292C104.292 49.0056 106.012 55.6981 111.053 60.981C116.136 66.3078 124.214 69.803 136.127 69.803V63.803ZM110.292 43.297V42.859H104.292V43.297H110.292ZM107.292 45.859H124.52V39.859H107.292V45.859ZM121.532 43.1306C121.656 44.4939 122.067 47.8159 124.393 50.8191C126.842 53.9798 131.017 56.298 137.66 56.298V50.298C132.55 50.298 130.265 48.6012 129.136 47.1446C127.886 45.5306 127.603 43.6331 127.508 42.5874L121.532 43.1306ZM137.66 56.298H138.536V50.298H137.66V56.298ZM138.536 56.298C143.575 56.298 147.74 54.8154 150.611 51.7131C153.445 48.6512 154.603 44.4575 154.603 39.866H148.603C148.603 43.5235 147.681 46.0458 146.207 47.6377C144.772 49.1891 142.403 50.298 138.536 50.298V56.298ZM154.603 39.866V11.688H148.603V39.866H154.603ZM151.603 14.688H168.685V8.688H151.603V14.688ZM165.685 11.688V40.304H171.685V11.688H165.685ZM165.685 40.304C165.685 45.5223 164.438 51.3819 160.796 55.8818C157.25 60.2628 151.069 63.803 140.215 63.803V69.803C152.502 69.803 160.556 65.7147 165.46 59.6567C170.267 53.7175 171.685 46.3277 171.685 40.304H165.685ZM140.215 63.803H136.127V69.803H140.215V63.803ZM211.948 13.739H215.087V7.739H211.948V13.739ZM215.087 13.739C231.71 13.739 240.322 17.9106 244.823 22.6061C249.335 27.3135 250.266 33.1171 250.266 37.603H256.266C256.266 32.3799 255.19 24.7515 249.154 18.4542C243.106 12.1449 232.628 7.739 215.087 7.739V13.739ZM250.266 37.603V39.793H256.266V37.603H250.266ZM250.266 39.793C250.266 44.2106 249.351 50.0993 244.831 54.9009C240.335 59.6782 231.728 63.949 215.087 63.949V69.949C232.684 69.949 243.167 65.4233 249.2 59.0133C255.211 52.6277 256.266 44.9384 256.266 39.793H250.266ZM215.087 63.949H211.948V69.949H215.087V63.949ZM211.948 63.949C195.231 63.949 186.608 59.676 182.113 54.9009C177.597 50.1028 176.696 44.2178 176.696 39.793H170.696C170.696 44.9311 171.73 52.6242 177.744 59.0133C183.78 65.4255 194.283 69.949 211.948 69.949V63.949ZM176.696 39.793V37.603H170.696V39.793H176.696ZM176.696 37.603C176.696 33.102 177.598 27.3051 182.096 22.6042C186.584 17.9138 195.209 13.739 211.948 13.739V7.739C194.304 7.739 183.803 12.1417 177.761 18.456C171.729 24.7599 170.696 32.395 170.696 37.603H176.696ZM238.454 38.114C238.454 34.3869 237.351 29.8803 233.303 26.3745C229.336 22.939 223.01 20.879 213.481 20.879V26.879C222.275 26.879 226.936 28.7975 229.375 30.91C231.733 32.9522 232.454 35.5631 232.454 38.114H238.454ZM213.481 20.879C203.822 20.879 197.479 22.9325 193.537 26.3857C189.508 29.9154 188.508 34.4398 188.508 38.114H194.508C194.508 35.5102 195.187 32.9171 197.491 30.8988C199.882 28.804 204.526 26.879 213.481 26.879V20.879ZM188.508 38.114V38.99H194.508V38.114H188.508ZM188.508 38.99C188.508 42.6713 189.604 47.273 193.606 50.91C197.564 54.5073 203.903 56.736 213.481 56.736V50.736C204.736 50.736 200.089 48.6942 197.641 46.4698C195.237 44.285 194.508 41.5137 194.508 38.99H188.508ZM213.481 56.736C223.008 56.736 229.34 54.5692 233.309 51.029C237.333 47.4392 238.454 42.8651 238.454 39.136H232.454C232.454 41.6849 231.714 44.4108 229.315 46.5515C226.859 48.7418 222.205 50.736 213.481 50.736V56.736ZM238.454 39.136V38.114H232.454V39.136H238.454ZM275.947 66V69H278.947V66H275.947ZM258.938 66H255.938V69H258.938V66ZM258.938 11.688V8.688H255.938V11.688H258.938ZM275.947 11.688H278.947V8.688H275.947V11.688ZM275.947 34.318H272.947V40.6265L277.84 36.645L275.947 34.318ZM303.76 11.688V8.688H302.694L301.867 9.36097L303.76 11.688ZM325.368 11.688L327.234 14.037L333.968 8.688H325.368V11.688ZM294.124 36.508L292.258 34.159L289.484 36.363L292.115 38.7359L294.124 36.508ZM326.828 66V69H334.634L328.837 63.7721L326.828 66ZM304.636 66L302.638 68.2375L303.491 69H304.636V66ZM275.947 40.377L277.945 38.1395L272.947 33.6753V40.377H275.947ZM275.947 63H258.938V69H275.947V63ZM261.938 66V11.688H255.938V66H261.938ZM258.938 14.688H275.947V8.688H258.938V14.688ZM272.947 11.688V34.318H278.947V11.688H272.947ZM277.84 36.645L305.653 14.015L301.867 9.36097L274.054 31.991L277.84 36.645ZM303.76 14.688H325.368V8.688H303.76V14.688ZM323.502 9.33898L292.258 34.159L295.99 38.857L327.234 14.037L323.502 9.33898ZM292.115 38.7359L324.819 68.2279L328.837 63.7721L296.133 34.2801L292.115 38.7359ZM326.828 63H304.636V69H326.828V63ZM306.634 63.7625L277.945 38.1395L273.949 42.6145L302.638 68.2375L306.634 63.7625ZM272.947 40.377V66H278.947V40.377H272.947ZM346.167 11.688H349.167V8.688H346.167V11.688ZM346.167 66V69H349.167V66H346.167ZM329.158 66H326.158V69H329.158V66ZM329.158 11.688V8.688H326.158V11.688H329.158ZM343.167 11.688V66H349.167V11.688H343.167ZM346.167 63H329.158V69H346.167V63ZM332.158 66V11.688H326.158V66H332.158ZM329.158 14.688H346.167V8.688H329.158V14.688ZM372.844 42.859V39.859H369.844V42.859H372.844ZM390.072 42.859L393.059 42.5874L392.811 39.859H390.072V42.859ZM417.155 11.688V8.688H414.155V11.688H417.155ZM434.237 11.688H437.237V8.688H434.237V11.688ZM401.679 63.803C390.961 63.803 384.622 60.6917 380.945 56.8388C377.227 52.9419 375.844 47.8814 375.844 43.297H369.844C369.844 49.0056 371.563 55.6981 376.605 60.981C381.688 66.3078 389.766 69.803 401.679 69.803V63.803ZM375.844 43.297V42.859H369.844V43.297H375.844ZM372.844 45.859H390.072V39.859H372.844V45.859ZM387.084 43.1306C387.208 44.4939 387.618 47.8159 389.945 50.8191C392.393 53.9798 396.569 56.298 403.212 56.298V50.298C398.102 50.298 395.817 48.6012 394.688 47.1446C393.438 45.5306 393.155 43.6331 393.059 42.5874L387.084 43.1306ZM403.212 56.298H404.088V50.298H403.212V56.298ZM404.088 56.298C409.127 56.298 413.292 54.8154 416.163 51.7131C418.997 48.6512 420.155 44.4575 420.155 39.866H414.155C414.155 43.5235 413.232 46.0458 411.759 47.6377C410.323 49.1891 407.954 50.298 404.088 50.298V56.298ZM420.155 39.866V11.688H414.155V39.866H420.155ZM417.155 14.688H434.237V8.688H417.155V14.688ZM431.237 11.688V40.304H437.237V11.688H431.237ZM431.237 40.304C431.237 45.5223 429.99 51.3819 426.348 55.8818C422.802 60.2628 416.621 63.803 405.767 63.803V69.803C418.054 69.803 426.108 65.7147 431.011 59.6567C435.819 53.7175 437.237 46.3277 437.237 40.304H431.237ZM405.767 63.803H401.679V69.803H405.767V63.803ZM477.5 13.739H480.639V7.739H477.5V13.739ZM480.639 13.739C497.262 13.739 505.874 17.9106 510.374 22.6061C514.887 27.3135 515.818 33.1171 515.818 37.603H521.818C521.818 32.3799 520.742 24.7515 514.706 18.4542C508.658 12.1449 498.18 7.739 480.639 7.739V13.739ZM515.818 37.603V39.793H521.818V37.603H515.818ZM515.818 39.793C515.818 44.2106 514.903 50.0993 510.383 54.9009C505.886 59.6782 497.279 63.949 480.639 63.949V69.949C498.236 69.949 508.718 65.4233 514.752 59.0133C520.763 52.6277 521.818 44.9384 521.818 39.793H515.818ZM480.639 63.949H477.5V69.949H480.639V63.949ZM477.5 63.949C460.783 63.949 452.16 59.676 447.665 54.9009C443.149 50.1028 442.248 44.2178 442.248 39.793H436.248C436.248 44.9311 437.282 52.6242 443.296 59.0133C449.332 65.4255 459.835 69.949 477.5 69.949V63.949ZM442.248 39.793V37.603H436.248V39.793H442.248ZM442.248 37.603C442.248 33.102 443.15 27.3051 447.648 22.6042C452.136 17.9138 460.761 13.739 477.5 13.739V7.739C459.856 7.739 449.355 12.1417 443.313 18.456C437.281 24.7599 436.248 32.395 436.248 37.603H442.248ZM504.006 38.114C504.006 34.3869 502.903 29.8803 498.855 26.3745C494.888 22.939 488.562 20.879 479.033 20.879V26.879C487.827 26.879 492.488 28.7975 494.927 30.91C497.285 32.9522 498.006 35.5631 498.006 38.114H504.006ZM479.033 20.879C469.373 20.879 463.031 22.9325 459.089 26.3857C455.06 29.9154 454.06 34.4398 454.06 38.114H460.06C460.06 35.5102 460.739 32.9171 463.043 30.8988C465.434 28.804 470.078 26.879 479.033 26.879V20.879ZM454.06 38.114V38.99H460.06V38.114H454.06ZM454.06 38.99C454.06 42.6713 455.156 47.273 459.158 50.91C463.116 54.5073 469.455 56.736 479.033 56.736V50.736C470.288 50.736 465.641 48.6942 463.193 46.4698C460.789 44.285 460.06 41.5137 460.06 38.99H454.06ZM479.033 56.736C488.56 56.736 494.892 54.5692 498.86 51.029C502.885 47.4392 504.006 42.8651 504.006 39.136H498.006C498.006 41.6849 497.266 44.4108 494.866 46.5515C492.411 48.7418 487.757 50.736 479.033 50.736V56.736ZM504.006 39.136V38.114H498.006V39.136H504.006ZM541.575 66H538.575V69H541.575V66ZM541.575 44.976H544.575V43.8509L543.835 43.0033L541.575 44.976ZM512.521 11.688V8.688H505.92L510.261 13.6607L512.521 11.688ZM533.618 11.688L535.911 9.7543L535.012 8.688H533.618V11.688ZM550.481 31.69L548.187 33.6237L550.461 36.321L552.758 33.6431L550.481 31.69ZM567.636 11.688V8.688H566.256L565.359 9.73494L567.636 11.688ZM586.835 11.688L589.122 13.6292L593.316 8.688H586.835V11.688ZM558.584 44.976L556.296 43.0348L555.584 43.8746V44.976H558.584ZM558.584 66V69H561.584V66H558.584ZM544.575 66V44.976H538.575V66H544.575ZM543.835 43.0033L514.781 9.71529L510.261 13.6607L539.315 46.9487L543.835 43.0033ZM512.521 14.688H533.618V8.688H512.521V14.688ZM531.324 13.6217L548.187 33.6237L552.774 29.7563L535.911 9.7543L531.324 13.6217ZM552.758 33.6431L569.913 13.6411L565.359 9.73494L548.204 29.7369L552.758 33.6431ZM567.636 14.688H586.835V8.688H567.636V14.688ZM584.547 9.7468L556.296 43.0348L560.871 46.9172L589.122 13.6292L584.547 9.7468ZM555.584 44.976V66H561.584V44.976H555.584ZM558.584 63H541.575V69H558.584V63ZM621.465 43.808V46.808H626.389L624.13 42.4321L621.465 43.808ZM610.953 23.441L613.618 22.0651L610.896 16.7896L608.264 22.1109L610.953 23.441ZM600.879 43.808L598.19 42.4779L596.048 46.808H600.879V43.808ZM632.853 66L630.185 67.3729L631.023 69H632.853V66ZM627.743 56.072L630.41 54.6991L629.573 53.072H627.743V56.072ZM594.82 56.072V53.072H592.953L592.129 54.7462L594.82 56.072ZM589.929 66V69H591.795L592.62 67.3258L589.929 66ZM572.628 66L569.95 64.6469L567.75 69H572.628V66ZM600.076 11.688V8.688H598.23L597.398 10.3349L600.076 11.688ZM622.122 11.688L624.767 10.2729L623.919 8.688H622.122V11.688ZM651.176 66V69H656.183L653.821 64.5849L651.176 66ZM624.13 42.4321L613.618 22.0651L608.287 24.8169L618.799 45.1839L624.13 42.4321ZM608.264 22.1109L598.19 42.4779L603.568 45.1381L613.642 24.7711L608.264 22.1109ZM600.879 46.808H621.465V40.808H600.879V46.808ZM635.52 64.6271L630.41 54.6991L625.075 57.4449L630.185 67.3729L635.52 64.6271ZM627.743 53.072H594.82V59.072H627.743V53.072ZM592.129 54.7462L587.237 64.6742L592.62 67.3258L597.511 57.3978L592.129 54.7462ZM589.929 63H572.628V69H589.929V63ZM575.305 67.3531L602.753 13.0411L597.398 10.3349L569.95 64.6469L575.305 67.3531ZM600.076 14.688H622.122V8.688H600.076V14.688ZM619.476 13.1031L648.53 67.4151L653.821 64.5849L624.767 10.2729L619.476 13.1031ZM651.176 63H632.853V69H651.176V63Z" fill="#ABEC20" mask="url(#path-2-outside-1_7702_12903)"/>
<path d="M128.127 58.803C105.497 58.803 99.292 45.59 99.292 35.297V34.859H116.52C116.739 37.268 117.907 45.298 129.66 45.298H130.536C139.442 45.298 143.603 40.115 143.603 31.866V3.688H160.685V32.304C160.685 43.546 155.356 58.803 132.215 58.803H128.127ZM203.948 2.739H207.087C241.251 2.739 245.266 19.894 245.266 29.603V31.793C245.266 41.356 241.324 58.949 207.087 58.949H203.948C169.565 58.949 165.696 41.356 165.696 31.793V29.603C165.696 19.894 169.565 2.739 203.948 2.739ZM227.454 30.114C227.454 23.836 223.804 15.879 205.481 15.879C186.866 15.879 183.508 23.836 183.508 30.114V30.99C183.508 37.195 187.158 45.736 205.481 45.736C223.731 45.736 227.454 37.414 227.454 31.136V30.114ZM267.947 58H250.938V3.688H267.947V26.318L295.76 3.688H317.368L286.124 28.508L318.828 58H296.636L267.947 32.377V58ZM338.167 3.688V58H321.158V3.688H338.167ZM393.679 58.803C371.049 58.803 364.844 45.59 364.844 35.297V34.859H382.072C382.291 37.268 383.459 45.298 395.212 45.298H396.088C404.994 45.298 409.155 40.115 409.155 31.866V3.688H426.237V32.304C426.237 43.546 420.908 58.803 397.767 58.803H393.679ZM469.5 2.739H472.639C506.803 2.739 510.818 19.894 510.818 29.603V31.793C510.818 41.356 506.876 58.949 472.639 58.949H469.5C435.117 58.949 431.248 41.356 431.248 31.793V29.603C431.248 19.894 435.117 2.739 469.5 2.739ZM493.006 30.114C493.006 23.836 489.356 15.879 471.033 15.879C452.418 15.879 449.06 23.836 449.06 30.114V30.99C449.06 37.195 452.71 45.736 471.033 45.736C489.283 45.736 493.006 37.414 493.006 31.136V30.114ZM533.575 58V36.976L504.521 3.688H525.618L542.481 23.69L559.636 3.688H578.835L550.584 36.976V58H533.575ZM613.465 35.808L602.953 15.441L592.879 35.808H613.465ZM624.853 58L619.743 48.072H586.82L581.929 58H564.628L592.076 3.688H614.122L643.176 58H624.853Z" fill="#0267FF"/>
<path d="M696.5 57.5C695.703 31.4465 695.053 30.8003 669 30C695.053 29.2025 695.7 28.5535 696.5 2.5C697.295 28.5535 697.947 29.1998 724 30C697.947 30.8003 697.3 31.4383 696.5 57.5Z" fill="#0267FF"/>
<path d="M770.5 57.5C769.703 31.4465 769.053 30.8003 743 30C769.053 29.2025 769.7 28.5535 770.5 2.5C771.295 28.5535 771.947 29.1998 798 30C771.947 30.8003 771.3 31.4383 770.5 57.5Z" fill="#0267FF"/>
<path d="M844.5 57.5C843.703 31.4465 843.053 30.8003 817 30C843.053 29.2025 843.7 28.5535 844.5 2.5C845.295 28.5535 845.947 29.1998 872 30C845.947 30.8003 845.3 31.4383 844.5 57.5Z" fill="#0267FF"/>
</svg>
