<svg width="40" height="238" viewBox="0 0 40 238" fill="none" xmlns="http://www.w3.org/2000/svg">
<path d="M40 220.056C40 218.087 38.1768 216.569 35.5801 216.569C34.3094 216.569 32.2652 217.075 29.3923 218.031C26.5193 218.987 23.8674 219.494 21.4917 219.494H20.7735C22.3204 217.019 23.5912 215.331 24.4751 214.544C26.2983 212.913 31.4917 208.638 31.4917 205.319C31.4917 203.35 30.1105 202 28.453 202C27.5138 202 26.6851 202.394 25.8564 203.181C24.2541 204.756 23.4807 208.244 22.5967 212.35C22.1547 214.431 21.326 216.625 20 219.044C18.674 216.569 17.7901 214.319 17.3481 212.181C16.9061 210.1 16.4641 208.244 15.9668 206.669C14.9171 203.406 13.3149 202 11.4365 202C9.72376 202 8.50828 203.35 8.50828 205.15C8.50828 206.275 8.83978 207.344 9.55801 208.413C10.221 209.425 11.9889 211.281 14.8619 213.925C17.4586 216.681 17.2376 216.288 19.2265 219.494C16.5746 219.494 13.7569 218.988 10.8287 217.975C7.90055 216.963 5.74586 216.456 4.41989 216.456C1.76796 216.456 0 217.975 0 219.944C0 221.969 1.87845 223.431 4.41989 223.431C6.35359 223.431 10.4972 222.025 13.1492 221.125C14.4751 220.675 16.2983 220.506 18.5083 220.506H19.2265C17.9006 222.756 16.5193 224.5 15.1381 225.738C12.3757 228.213 8.50828 231.7 8.50828 234.681C8.50828 236.65 9.779 238 11.4365 238C12.3757 238 13.2597 237.606 14.0884 236.875C15.7459 235.412 16.4641 232.037 17.3481 227.819C17.7901 225.681 18.674 223.375 20 220.956C21.326 223.319 22.2099 225.569 22.5967 227.594C22.9834 229.675 23.4807 231.531 23.9227 233.162C24.8066 236.481 26.6298 238 28.453 238C30.1105 238 31.4917 236.537 31.4917 234.737C31.4917 231.812 28.453 229.056 25.3591 226.244C23.8122 224.838 22.2652 222.981 20.7735 220.506C23.6464 220.506 26.4088 221.013 29.2818 222.025C32.0994 223.038 34.1989 223.544 35.5801 223.544C38.0663 223.544 40 222.138 40 220.056Z" fill="black"/>
<mask id="path-2-outside-1_7702_14433" maskUnits="userSpaceOnUse" x="-0.5" y="60" width="41" height="119" fill="black">
<rect fill="white" x="-0.5" y="60" width="41" height="119"/>
<path d="M22.1 177.35V171.8H31.25C32.55 171.8 33.3 171.5 33.3 170.45V170.25C33.3 169.2 32.4 168.95 31.25 168.95H1.3L1.3 163.2H31.7C36.55 163.2 38.8 165.7 38.8 169.6V171.15C38.8 174.8 37.15 177.35 32.05 177.35H22.1ZM22.1 161.676V156.126H31.25C32.55 156.126 33.3 155.826 33.3 154.776V154.576C33.3 153.526 32.4 153.276 31.25 153.276H1.3L1.3 147.526H31.7C36.55 147.526 38.8 150.026 38.8 153.926V155.476C38.8 159.126 37.15 161.676 32.05 161.676H22.1ZM23.05 131.477V134.777H38.5V140.427H1.3L1.3 131.477C1.3 127.477 3 125.677 7.45 125.677H16.25C20.65 125.677 23.05 127.627 23.05 131.477ZM6.35 134.777H17.7V133.327C17.7 131.627 16.5 131.377 15 131.377H8.9C7.45 131.377 6.35 131.677 6.35 133.327V134.777ZM25.95 117.385L12.2 118.885L25.95 120.335V117.385ZM38.5 116.035L31.5 116.785V120.885L38.5 121.635V126.685L1.3 122.135L1.3 115.435L38.5 110.585V116.035ZM6.35 104.015H16.6V102.515C16.6 100.965 15.6 100.465 13.95 100.465H8.75C7.15 100.465 6.35 100.815 6.35 102.515V104.015ZM21.9 104.015H38.5V109.665H1.3L1.3 100.515C1.3 96.7648 2.9 94.8648 7.05 94.8648H13.65C16.75 94.8648 17.95 96.3148 18.4 97.3148C18.95 96.0648 19.95 94.8648 22.45 94.8648H35.5C37 94.8648 37.7 94.5648 38.25 94.3148H38.5V99.9148C38.1 100.165 37.45 100.465 35.45 100.465H24.25C22.6 100.465 21.9 100.765 21.9 102.565V104.015ZM38.5 87.2668V92.9168H1.3L1.3 87.2668H16.2L1.3 82.8168L1.3 77.3168L18.6 82.5668L38.5 76.7668V82.5668L22.35 87.2668H38.5ZM38.9 69.8164C38.9 74.3164 36.45 76.7164 31.85 76.7164H24.4V71.1164H30.9C32.6 71.1164 33.5 70.5664 33.5 69.2664C33.5 67.9164 32.6 67.4164 30.3 67.4164H29.45C26.8 67.4164 25.85 67.6664 23.2 69.7164L18.6 73.3164C15.5 75.7164 13.1 76.4164 9.4 76.4164H8.2C3.25 76.4164 0.949998 73.9164 0.949998 69.4664V68.4164C0.949998 63.7664 3 61.9664 7.4 61.9664H13.5V67.4164H8.15C6.9 67.4164 5.95 67.6664 5.95 69.0164C5.95 70.3664 6.8 70.6664 8.55 70.6664H9.25C11.35 70.6664 12.5 70.2664 14.95 68.3664L19.6 64.7664C22.9 62.2164 24.8 61.4164 29 61.4164H30.2C35.65 61.4164 38.9 63.7664 38.9 68.7164V69.8164Z"/>
</mask>
<path d="M22.1 177.35H20.8288V178.621H22.1V177.35ZM22.1 171.8V170.529H20.8288V171.8H22.1ZM1.3 168.95H0.0287654V170.221H1.3V168.95ZM1.3 163.2V161.929H0.0287654V163.2H1.3ZM23.3712 177.35V171.8H20.8288V177.35H23.3712ZM22.1 173.071H31.25V170.529H22.1V173.071ZM31.25 173.071C31.9381 173.071 32.7466 173.004 33.4079 172.614C33.7691 172.401 34.0815 172.096 34.2924 171.686C34.4977 171.288 34.5712 170.861 34.5712 170.45H32.0288C32.0288 170.564 32.0085 170.568 32.0326 170.521C32.0622 170.464 32.1059 170.43 32.1171 170.424C32.1172 170.423 32.1024 170.432 32.0656 170.444C32.0286 170.457 31.9743 170.471 31.8985 170.485C31.743 170.512 31.5318 170.529 31.25 170.529V173.071ZM34.5712 170.45V170.25H32.0288V170.45H34.5712ZM34.5712 170.25C34.5712 169.802 34.4737 169.355 34.2324 168.951C33.9902 168.546 33.6515 168.267 33.2975 168.081C32.6415 167.736 31.8657 167.679 31.25 167.679V170.221C31.496 170.221 31.6953 170.235 31.8523 170.26C32.0124 170.286 32.0897 170.318 32.115 170.332C32.1297 170.339 32.0879 170.319 32.0505 170.256C32.0138 170.195 32.0288 170.173 32.0288 170.25H34.5712ZM31.25 167.679H1.3L1.3 170.221H31.25V167.679ZM2.57123 168.95L2.57123 163.2H0.0287654L0.0287654 168.95H2.57123ZM1.3 164.471H31.7V161.929H1.3V164.471ZM31.7 164.471C33.9184 164.471 35.3343 165.042 36.1923 165.858C37.0415 166.667 37.5288 167.892 37.5288 169.6H40.0712C40.0712 167.408 39.4335 165.433 37.9452 164.017C36.4657 162.608 34.3316 161.929 31.7 161.929V164.471ZM37.5288 169.6V171.15H40.0712V169.6H37.5288ZM37.5288 171.15C37.5288 172.808 37.1516 173.977 36.4204 174.738C35.6979 175.491 34.4052 176.079 32.05 176.079V178.621C34.7948 178.621 36.8771 177.934 38.2546 176.499C39.6234 175.073 40.0712 173.142 40.0712 171.15H37.5288ZM32.05 176.079H22.1V178.621H32.05V176.079ZM22.1 161.676H20.8288V162.947H22.1V161.676ZM22.1 156.126V154.855H20.8288V156.126H22.1ZM1.3 153.276H0.0287654L0.0287654 154.547H1.3L1.3 153.276ZM1.3 147.526L1.3 146.255H0.0287654L0.0287654 147.526H1.3ZM23.3712 161.676V156.126H20.8288V161.676H23.3712ZM22.1 157.397H31.25V154.855H22.1V157.397ZM31.25 157.397C31.9381 157.397 32.7466 157.33 33.4079 156.94C33.7691 156.727 34.0815 156.422 34.2924 156.013C34.4977 155.614 34.5712 155.188 34.5712 154.776H32.0288C32.0288 154.89 32.0085 154.894 32.0326 154.848C32.0622 154.79 32.1059 154.756 32.1171 154.75C32.1172 154.75 32.1024 154.758 32.0656 154.771C32.0286 154.783 31.9743 154.798 31.8985 154.811C31.743 154.838 31.5318 154.855 31.25 154.855V157.397ZM34.5712 154.776V154.576H32.0288V154.776H34.5712ZM34.5712 154.576C34.5712 154.129 34.4737 153.681 34.2324 153.277C33.9902 152.873 33.6515 152.593 33.2975 152.407C32.6415 152.062 31.8657 152.005 31.25 152.005V154.547C31.496 154.547 31.6953 154.561 31.8523 154.587C32.0124 154.612 32.0897 154.645 32.115 154.658C32.1297 154.666 32.0879 154.645 32.0505 154.583C32.0138 154.521 32.0288 154.499 32.0288 154.576H34.5712ZM31.25 152.005H1.3L1.3 154.547H31.25V152.005ZM2.57123 153.276V147.526H0.0287654L0.0287654 153.276H2.57123ZM1.3 148.797H31.7V146.255H1.3L1.3 148.797ZM31.7 148.797C33.9184 148.797 35.3343 149.368 36.1923 150.184C37.0415 150.993 37.5288 152.219 37.5288 153.926H40.0712C40.0712 151.734 39.4335 149.76 37.9452 148.343C36.4657 146.935 34.3316 146.255 31.7 146.255V148.797ZM37.5288 153.926V155.476H40.0712V153.926H37.5288ZM37.5288 155.476C37.5288 157.135 37.1516 158.303 36.4204 159.065C35.6979 159.817 34.4052 160.405 32.05 160.405V162.947C34.7948 162.947 36.8771 162.26 38.2546 160.825C39.6234 159.399 40.0712 157.468 40.0712 155.476H37.5288ZM32.05 160.405H22.1V162.947H32.05V160.405ZM23.05 134.777H21.7788V136.048H23.05V134.777ZM38.5 134.777H39.7712V133.505H38.5V134.777ZM38.5 140.427V141.698H39.7712V140.427H38.5ZM1.3 140.427H0.0287654V141.698H1.3V140.427ZM6.35 134.777H5.07877V136.048H6.35V134.777ZM17.7 134.777V136.048H18.9712V134.777H17.7ZM21.7788 131.477V134.777H24.3212V131.477H21.7788ZM23.05 136.048H38.5V133.505H23.05V136.048ZM37.2288 134.777V140.427H39.7712V134.777H37.2288ZM38.5 139.155H1.3L1.3 141.698H38.5V139.155ZM2.57123 140.427L2.57123 131.477H0.0287654L0.0287654 140.427H2.57123ZM2.57123 131.477C2.57123 129.621 2.97043 128.59 3.59049 127.99C4.22148 127.379 5.35403 126.948 7.45 126.948V124.405C5.09596 124.405 3.15352 124.874 1.82201 126.163C0.479569 127.463 0.0287654 129.332 0.0287654 131.477H2.57123ZM7.45 126.948H16.25V124.405H7.45V126.948ZM16.25 126.948C18.2878 126.948 19.6471 127.403 20.481 128.105C21.2766 128.775 21.7788 129.828 21.7788 131.477H24.3212C24.3212 129.275 23.6234 127.428 22.119 126.161C20.6529 124.926 18.6121 124.405 16.25 124.405V126.948ZM6.35 136.048H17.7V133.505H6.35V136.048ZM18.9712 134.777V133.327H16.4288L16.4288 134.777H18.9712ZM18.9712 133.327C18.9712 132.756 18.8708 132.208 18.6179 131.72C18.358 131.218 17.9759 130.854 17.5371 130.607C16.7325 130.153 15.7522 130.105 15 130.105V132.648C15.3466 132.648 15.6295 132.663 15.8605 132.698C16.0933 132.734 16.2221 132.784 16.2879 132.821C16.3366 132.849 16.3482 132.866 16.3602 132.889C16.3792 132.926 16.4288 133.047 16.4288 133.327H18.9712ZM15 130.105H8.9V132.648H15V130.105ZM8.9 130.105C8.15208 130.105 7.19656 130.168 6.41417 130.651C5.49037 131.22 5.07877 132.181 5.07877 133.327H7.62123C7.62123 133.051 7.6676 132.923 7.68902 132.879C7.70366 132.849 7.71515 132.835 7.74833 132.815C7.79709 132.785 7.90334 132.738 8.10967 132.701C8.31532 132.665 8.57465 132.648 8.9 132.648V130.105ZM5.07877 133.327V134.777H7.62123V133.327H5.07877ZM25.95 117.385H27.2212V115.968L25.8121 116.121L25.95 117.385ZM12.2 118.885L12.0621 117.621L12.0667 120.149L12.2 118.885ZM25.95 120.335L25.8167 121.599L27.2212 121.747V120.335H25.95ZM38.5 116.035L38.6354 117.299L39.7712 117.177V116.035H38.5ZM31.5 116.785L31.3646 115.521L30.2288 115.643V116.785H31.5ZM31.5 120.885H30.2288V122.027L31.3646 122.149L31.5 120.885ZM38.5 121.635H39.7712V120.493L38.6354 120.371L38.5 121.635ZM38.5 126.685L38.3457 127.947L39.7712 128.121V126.685H38.5ZM1.3 122.135H0.0287654V123.26L1.14566 123.397L1.3 122.135ZM1.3 115.435L1.13565 114.175L0.0287654 114.319L0.0287654 115.435H1.3ZM38.5 110.585H39.7712V109.137L38.3357 109.325L38.5 110.585ZM25.8121 116.121L12.0621 117.621L12.3379 120.149L26.0879 118.649L25.8121 116.121ZM12.0667 120.149L25.8167 121.599L26.0833 119.071L12.3333 117.621L12.0667 120.149ZM27.2212 120.335V117.385H24.6788V120.335H27.2212ZM38.3646 114.771L31.3646 115.521L31.6354 118.049L38.6354 117.299L38.3646 114.771ZM30.2288 116.785V120.885H32.7712V116.785H30.2288ZM31.3646 122.149L38.3646 122.899L38.6354 120.371L31.6354 119.621L31.3646 122.149ZM37.2288 121.635V126.685H39.7712V121.635H37.2288ZM38.6543 125.423L1.45434 120.873L1.14566 123.397L38.3457 127.947L38.6543 125.423ZM2.57123 122.135V115.435H0.0287654L0.0287654 122.135H2.57123ZM1.46435 116.696L38.6643 111.846L38.3357 109.325L1.13565 114.175L1.46435 116.696ZM37.2288 110.585V116.035H39.7712V110.585H37.2288ZM6.35 104.015H5.07877V105.286H6.35V104.015ZM16.6 104.015V105.286H17.8712V104.015H16.6ZM21.9 104.015H20.6288V105.286H21.9V104.015ZM38.5 104.015H39.7712V102.744H38.5V104.015ZM38.5 109.665V110.936H39.7712V109.665H38.5ZM1.3 109.665H0.0287654L0.0287654 110.936H1.3L1.3 109.665ZM18.4 97.3148L17.2407 97.8365L18.413 100.442L19.5636 97.8268L18.4 97.3148ZM38.25 94.3148V93.0436H37.9746L37.724 93.1576L38.25 94.3148ZM38.5 94.3148H39.7712V93.0436H38.5V94.3148ZM38.5 99.9148L39.1738 100.993L39.7712 100.619V99.9148H38.5ZM6.35 105.286H16.6V102.744H6.35V105.286ZM17.8712 104.015V102.515H15.3288V104.015H17.8712ZM17.8712 102.515C17.8712 101.438 17.5022 100.482 16.6218 99.8665C15.8398 99.3202 14.8528 99.1936 13.95 99.1936V101.736C14.6972 101.736 15.0352 101.86 15.1657 101.951C15.2104 101.982 15.236 102.012 15.2593 102.064C15.2875 102.126 15.3288 102.261 15.3288 102.515H17.8712ZM13.95 99.1936H8.75V101.736H13.95V99.1936ZM8.75 99.1936C7.94284 99.1936 6.95325 99.2609 6.18726 99.8354C5.31766 100.488 5.07877 101.498 5.07877 102.515H7.62123C7.62123 102.179 7.66214 102 7.69309 101.916C7.70023 101.897 7.70629 101.884 7.71031 101.876C7.71428 101.869 7.71667 101.865 7.71693 101.865C7.71715 101.865 7.71636 101.866 7.71472 101.867C7.7131 101.869 7.71215 101.87 7.71274 101.869C7.7138 101.869 7.76714 101.829 7.94681 101.793C8.13013 101.757 8.38663 101.736 8.75 101.736V99.1936ZM5.07877 102.515V104.015H7.62123V102.515H5.07877ZM21.9 105.286H38.5V102.744H21.9V105.286ZM37.2288 104.015V109.665H39.7712V104.015H37.2288ZM38.5 108.394H1.3L1.3 110.936H38.5V108.394ZM2.57123 109.665V100.515H0.0287654L0.0287654 109.665H2.57123ZM2.57123 100.515C2.57123 98.7876 2.9443 97.7716 3.52963 97.1703C4.10878 96.5754 5.14112 96.1361 7.05 96.1361V93.5936C4.80888 93.5936 2.96622 94.1043 1.70787 95.3968C0.455696 96.6831 0.0287654 98.4921 0.0287654 100.515H2.57123ZM7.05 96.1361H13.65V93.5936H7.05V96.1361ZM13.65 96.1361C14.996 96.1361 15.8189 96.4484 16.3219 96.778C16.8271 97.1092 17.0959 97.5146 17.2407 97.8365L19.5593 96.7932C19.2541 96.1151 18.6979 95.2955 17.7156 94.6516C16.7311 94.0063 15.404 93.5936 13.65 93.5936V96.1361ZM19.5636 97.8268C19.786 97.3214 20.0548 96.9287 20.4384 96.6514C20.8118 96.3815 21.4117 96.1361 22.45 96.1361V93.5936C20.9882 93.5936 19.8382 93.9482 18.9491 94.5908C18.0702 95.226 17.564 96.0583 17.2364 96.8029L19.5636 97.8268ZM22.45 96.1361H35.5V93.5936H22.45V96.1361ZM35.5 96.1361C37.2273 96.1361 38.1083 95.7756 38.776 95.4721L37.724 93.1576C37.2917 93.3541 36.7727 93.5936 35.5 93.5936V96.1361ZM38.25 95.5861H38.5V93.0436H38.25V95.5861ZM37.2288 94.3148V99.9148H39.7712V94.3148H37.2288ZM37.8262 98.8368C37.7008 98.9153 37.3148 99.1936 35.45 99.1936V101.736C37.5852 101.736 38.4992 101.414 39.1738 100.993L37.8262 98.8368ZM35.45 99.1936H24.25V101.736H35.45V99.1936ZM24.25 99.1936C23.4574 99.1936 22.4377 99.2368 21.6701 99.8408C20.8081 100.519 20.6288 101.571 20.6288 102.565H23.1712C23.1712 101.759 23.3419 101.761 23.2424 101.839C23.2197 101.857 23.2476 101.822 23.4228 101.789C23.6036 101.755 23.8635 101.736 24.25 101.736V99.1936ZM20.6288 102.565V104.015H23.1712V102.565H20.6288ZM38.5 87.2668H39.7712V85.9956H38.5V87.2668ZM38.5 92.9168V94.188H39.7712V92.9168H38.5ZM1.3 92.9168H0.0287654V94.188H1.3L1.3 92.9168ZM1.3 87.2668V85.9956H0.0287654V87.2668H1.3ZM16.2 87.2668V88.538L16.5638 86.0487L16.2 87.2668ZM1.3 82.8168H0.0287654V83.7638L0.936213 84.0349L1.3 82.8168ZM1.3 77.3168L1.66915 76.1003L0.0287654 75.6025V77.3168H1.3ZM18.6 82.5668L18.2308 83.7832L18.5927 83.8931L18.9557 83.7872L18.6 82.5668ZM38.5 76.7668H39.7712V75.0722L38.1443 75.5463L38.5 76.7668ZM38.5 82.5668L38.8552 83.7874L39.7712 83.5208V82.5668H38.5ZM22.35 87.2668L21.9948 86.0462L22.35 88.538V87.2668ZM37.2288 87.2668V92.9168H39.7712V87.2668H37.2288ZM38.5 91.6456H1.3L1.3 94.188H38.5V91.6456ZM2.57123 92.9168V87.2668H0.0287654L0.0287654 92.9168H2.57123ZM1.3 88.538H16.2V85.9956H1.3V88.538ZM16.5638 86.0487L1.66379 81.5987L0.936213 84.0349L15.8362 88.4849L16.5638 86.0487ZM2.57123 82.8168L2.57123 77.3168H0.0287654L0.0287654 82.8168H2.57123ZM0.930844 78.5332L18.2308 83.7832L18.9692 81.3503L1.66915 76.1003L0.930844 78.5332ZM18.9557 83.7872L38.8557 77.9873L38.1443 75.5463L18.2443 81.3463L18.9557 83.7872ZM37.2288 76.7668V82.5668H39.7712V76.7668H37.2288ZM38.1448 81.3462L21.9948 86.0462L22.7052 88.4874L38.8552 83.7874L38.1448 81.3462ZM22.35 88.538H38.5V85.9956H22.35V88.538ZM24.4 76.7164H23.1288V77.9876H24.4V76.7164ZM24.4 71.1164V69.8452H23.1288V71.1164H24.4ZM23.2 69.7164L22.4222 68.7109L22.4165 68.7153L23.2 69.7164ZM18.6 73.3164L19.3782 74.3216L19.3835 74.3175L18.6 73.3164ZM13.5 61.9664H14.7712V60.6952H13.5V61.9664ZM13.5 67.4164V68.6876H14.7712V67.4164H13.5ZM14.95 68.3664L14.1718 67.3612L14.171 67.3619L14.95 68.3664ZM19.6 64.7664L18.8227 63.7605L18.8218 63.7612L19.6 64.7664ZM37.6288 69.8164C37.6288 71.8426 37.0808 73.1937 36.2107 74.0455C35.3362 74.9016 33.9405 75.4452 31.85 75.4452V77.9876C34.3595 77.9876 36.4888 77.3312 37.9893 75.8623C39.4942 74.3891 40.1712 72.2902 40.1712 69.8164H37.6288ZM31.85 75.4452H24.4V77.9876H31.85V75.4452ZM25.6712 76.7164V71.1164H23.1288V76.7164H25.6712ZM24.4 72.3876H30.9V69.8452H24.4V72.3876ZM30.9 72.3876C31.8423 72.3876 32.8034 72.2437 33.5564 71.7273C34.4044 71.1458 34.7712 70.2503 34.7712 69.2664H32.2288C32.2288 69.446 32.1978 69.5305 32.1838 69.56C32.1737 69.5814 32.161 69.6014 32.1186 69.6305C31.9966 69.7141 31.6577 69.8452 30.9 69.8452V72.3876ZM34.7712 69.2664C34.7712 68.7925 34.6928 68.2963 34.4567 67.8318C34.2131 67.3525 33.8433 66.9894 33.3947 66.7322C32.5711 66.2602 31.4755 66.1452 30.3 66.1452V68.6876C31.4245 68.6876 31.9289 68.8226 32.1303 68.9381C32.1677 68.9594 32.1823 68.9737 32.1853 68.9769C32.1875 68.9791 32.1882 68.9798 32.1902 68.9838C32.1947 68.9928 32.2288 69.0653 32.2288 69.2664H34.7712ZM30.3 66.1452H29.45V68.6876H30.3V66.1452ZM29.45 66.1452C28.1024 66.1452 27.0175 66.2038 25.9006 66.5994C24.7993 66.9894 23.766 67.6713 22.4222 68.7109L23.9778 70.7219C25.284 69.7115 26.0507 69.2434 26.7494 68.996C27.4325 68.754 28.1476 68.6876 29.45 68.6876V66.1452ZM22.4165 68.7153L17.8165 72.3153L19.3835 74.3175L23.9835 70.7175L22.4165 68.7153ZM17.8218 72.3112C16.3527 73.4486 15.1054 74.1403 13.8293 74.5583C12.5501 74.9774 11.17 75.1452 9.4 75.1452V77.6876C11.33 77.6876 12.9999 77.5054 14.6207 76.9745C16.2446 76.4425 17.7473 75.5842 19.3782 74.3216L17.8218 72.3112ZM9.4 75.1452H8.2V77.6876H9.4V75.1452ZM8.2 75.1452C5.92433 75.1452 4.48711 74.5716 3.6129 73.7065C2.7409 72.8437 2.22123 71.4849 2.22123 69.4664H-0.321236C-0.321236 71.8979 0.309096 74.0141 1.82459 75.5138C3.33788 77.0112 5.52567 77.6876 8.2 77.6876V75.1452ZM2.22123 69.4664V68.4164H-0.321236V69.4664H2.22123ZM2.22123 68.4164C2.22123 66.2454 2.70369 65.0458 3.41038 64.3599C4.12486 63.6664 5.33471 63.2376 7.4 63.2376V60.6952C5.06528 60.6952 3.05014 61.1664 1.63961 62.5354C0.221301 63.912 -0.321236 65.9374 -0.321236 68.4164H2.22123ZM7.4 63.2376H13.5V60.6952H7.4V63.2376ZM12.2288 61.9664V67.4164H14.7712V61.9664H12.2288ZM13.5 66.1452H8.15V68.6876H13.5V66.1452ZM8.15 66.1452C7.50372 66.1452 6.64876 66.1962 5.93747 66.614C5.54924 66.842 5.21288 67.1728 4.98512 67.6201C4.76364 68.0551 4.67877 68.5331 4.67877 69.0164H7.22123C7.22123 68.8248 7.2551 68.7652 7.25081 68.7737C7.24025 68.7944 7.21951 68.8096 7.22503 68.8063C7.24608 68.794 7.3203 68.7587 7.48969 68.7302C7.65752 68.702 7.87354 68.6876 8.15 68.6876V66.1452ZM4.67877 69.0164C4.67877 69.4795 4.75057 69.9591 4.96907 70.4041C5.19755 70.8694 5.54715 71.2163 5.96823 71.4543C6.72034 71.8794 7.68176 71.9376 8.55 71.9376V69.3952C8.14139 69.3952 7.83142 69.3771 7.59537 69.3415C7.35585 69.3053 7.25159 69.2592 7.21927 69.241C7.20909 69.2352 7.23682 69.2541 7.25124 69.2834C7.25568 69.2925 7.22123 69.2283 7.22123 69.0164H4.67877ZM8.55 71.9376H9.25V69.3952H8.55V71.9376ZM9.25 71.9376C10.3902 71.9376 11.377 71.8286 12.4349 71.4116C13.4618 71.0068 14.476 70.3427 15.729 69.371L14.171 67.3619C12.974 68.2901 12.1882 68.776 11.5026 69.0462C10.848 69.3043 10.2098 69.3952 9.25 69.3952V71.9376ZM15.7282 69.3716L20.3782 65.7716L18.8218 63.7612L14.1718 67.3612L15.7282 69.3716ZM20.3773 65.7723C21.9939 64.5231 23.1717 63.7798 24.4007 63.3285C25.6195 62.8809 26.9795 62.6876 29 62.6876V60.1452C26.8205 60.1452 25.1305 60.3519 23.5243 60.9418C21.9283 61.528 20.5061 62.4597 18.8227 63.7605L20.3773 65.7723ZM29 62.6876H30.2V60.1452H29V62.6876ZM30.2 62.6876C32.7695 62.6876 34.614 63.2454 35.7951 64.1992C36.9293 65.1151 37.6288 66.5401 37.6288 68.7164H40.1712C40.1712 65.9427 39.2457 63.7177 37.3924 62.2211C35.586 60.7624 33.0805 60.1452 30.2 60.1452V62.6876ZM37.6288 68.7164V69.8164H40.1712V68.7164H37.6288Z" fill="black" mask="url(#path-2-outside-1_7702_14433)"/>
<path d="M40 18.0563C40 16.0875 38.1768 14.5688 35.5801 14.5688C34.3094 14.5688 32.2652 15.075 29.3923 16.0313C26.5193 16.9875 23.8674 17.4938 21.4917 17.4938H20.7735C22.3204 15.0188 23.5912 13.3312 24.4751 12.5438C26.2983 10.9125 31.4917 6.6375 31.4917 3.31875C31.4917 1.35 30.1105 0 28.453 0C27.5138 0 26.6851 0.393753 25.8564 1.18125C24.2541 2.75625 23.4807 6.24375 22.5967 10.35C22.1547 12.4313 21.326 14.625 20 17.0438C18.674 14.5688 17.7901 12.3188 17.3481 10.1812C16.9061 8.1 16.4641 6.24375 15.9668 4.66875C14.9171 1.40625 13.3149 0 11.4365 0C9.72376 0 8.50828 1.35 8.50828 3.15C8.50828 4.275 8.83978 5.34375 9.55801 6.4125C10.221 7.425 11.9889 9.28125 14.8619 11.925C17.4586 14.6813 17.2376 14.2875 19.2265 17.4938C16.5746 17.4938 13.7569 16.9875 10.8287 15.975C7.90055 14.9625 5.74586 14.4563 4.41989 14.4563C1.76796 14.4563 0 15.975 0 17.9438C0 19.9688 1.87845 21.4313 4.41989 21.4313C6.35359 21.4313 10.4972 20.025 13.1492 19.125C14.4751 18.675 16.2983 18.5063 18.5083 18.5063H19.2265C17.9006 20.7563 16.5193 22.5 15.1381 23.7375C12.3757 26.2125 8.50828 29.7 8.50828 32.6812C8.50828 34.65 9.779 36 11.4365 36C12.3757 36 13.2597 35.6062 14.0884 34.875C15.7459 33.4125 16.4641 30.0375 17.3481 25.8187C17.7901 23.6812 18.674 21.375 20 18.9563C21.326 21.3188 22.2099 23.5687 22.5967 25.5937C22.9834 27.675 23.4807 29.5313 23.9227 31.1625C24.8066 34.4813 26.6298 36 28.453 36C30.1105 36 31.4917 34.5375 31.4917 32.7375C31.4917 29.8125 28.453 27.0563 25.3591 24.2438C23.8122 22.8375 22.2652 20.9813 20.7735 18.5063C23.6464 18.5063 26.4088 19.0125 29.2818 20.025C32.0994 21.0375 34.1989 21.5438 35.5801 21.5438C38.0663 21.5438 40 20.1375 40 18.0563Z" fill="black"/>
</svg>
