<svg width="40" height="234" viewBox="0 0 40 234" fill="none" xmlns="http://www.w3.org/2000/svg">
<path d="M40 216.056C40 214.087 38.1768 212.569 35.5801 212.569C34.3094 212.569 32.2652 213.075 29.3923 214.031C26.5193 214.987 23.8674 215.494 21.4917 215.494H20.7735C22.3204 213.019 23.5912 211.331 24.4751 210.544C26.2983 208.913 31.4917 204.638 31.4917 201.319C31.4917 199.35 30.1105 198 28.453 198C27.5138 198 26.6851 198.394 25.8564 199.181C24.2541 200.756 23.4807 204.244 22.5967 208.35C22.1547 210.431 21.326 212.625 20 215.044C18.674 212.569 17.7901 210.319 17.3481 208.181C16.9061 206.1 16.4641 204.244 15.9668 202.669C14.9171 199.406 13.3149 198 11.4365 198C9.72376 198 8.50828 199.35 8.50828 201.15C8.50828 202.275 8.83978 203.344 9.55801 204.413C10.221 205.425 11.9889 207.281 14.8619 209.925C17.4586 212.681 17.2376 212.288 19.2265 215.494C16.5746 215.494 13.7569 214.988 10.8287 213.975C7.90055 212.963 5.74586 212.456 4.41989 212.456C1.76796 212.456 0 213.975 0 215.944C0 217.969 1.87845 219.431 4.41989 219.431C6.35359 219.431 10.4972 218.025 13.1492 217.125C14.4751 216.675 16.2983 216.506 18.5083 216.506H19.2265C17.9006 218.756 16.5193 220.5 15.1381 221.738C12.3757 224.213 8.50828 227.7 8.50828 230.681C8.50828 232.65 9.779 234 11.4365 234C12.3757 234 13.2597 233.606 14.0884 232.875C15.7459 231.412 16.4641 228.037 17.3481 223.819C17.7901 221.681 18.674 219.375 20 216.956C21.326 219.319 22.2099 221.569 22.5967 223.594C22.9834 225.675 23.4807 227.531 23.9227 229.162C24.8066 232.481 26.6298 234 28.453 234C30.1105 234 31.4917 232.537 31.4917 230.737C31.4917 227.812 28.453 225.056 25.3591 222.244C23.8122 220.838 22.2652 218.981 20.7735 216.506C23.6464 216.506 26.4088 217.013 29.2818 218.025C32.0994 219.038 34.1989 219.544 35.5801 219.544C38.0663 219.544 40 218.138 40 216.056Z" fill="black"/>
<mask id="path-2-outside-1_7702_14427" maskUnits="userSpaceOnUse" x="-0.5" y="58" width="41" height="117" fill="black">
<rect fill="white" x="-0.5" y="58" width="41" height="117"/>
<path d="M22.1 173.35V167.8H31.25C32.55 167.8 33.3 167.5 33.3 166.45V166.25C33.3 165.2 32.4 164.95 31.25 164.95H1.3L1.3 159.2H31.7C36.55 159.2 38.8 161.7 38.8 165.6V167.15C38.8 170.8 37.15 173.35 32.05 173.35H22.1ZM22.1 157.676V152.126H31.25C32.55 152.126 33.3 151.826 33.3 150.776V150.576C33.3 149.526 32.4 149.276 31.25 149.276H1.3L1.3 143.526H31.7C36.55 143.526 38.8 146.026 38.8 149.926V151.476C38.8 155.126 37.15 157.676 32.05 157.676H22.1ZM38.9 129.977C38.9 134.477 36.45 136.877 31.85 136.877H24.4V131.277H30.9C32.6 131.277 33.5 130.727 33.5 129.427C33.5 128.077 32.6 127.577 30.3 127.577H29.45C26.8 127.577 25.85 127.827 23.2 129.877L18.6 133.477C15.5 135.877 13.1 136.577 9.4 136.577H8.2C3.25 136.577 0.949998 134.077 0.949998 129.627L0.949998 128.577C0.949998 123.927 3 122.127 7.4 122.127H13.5V127.577H8.15C6.9 127.577 5.95 127.827 5.95 129.177C5.95 130.527 6.8 130.827 8.55 130.827H9.25C11.35 130.827 12.5 130.427 14.95 128.527L19.6 124.927C22.9 122.377 24.8 121.577 29 121.577H30.2C35.65 121.577 38.9 123.927 38.9 128.877V129.977ZM38.5 119.971H1.3L1.3 114.321H16.2V110.471H1.3L1.3 104.821H38.5V110.471H22.15V114.321H38.5L38.5 119.971ZM0.949998 95.6352L0.949998 94.6852C0.949998 89.1852 4.35 87.4352 9.45 87.4352H30.2C35.4 87.4352 38.95 89.1852 38.95 94.6352V95.5852C38.95 100.985 35.4 102.885 30.2 102.885H9.5C4.35 102.885 0.949998 100.935 0.949998 95.6352ZM9.2 93.1852C7.25 93.1852 6.35 93.8352 6.35 95.1352C6.35 96.5852 7.3 97.1352 9.2 97.1352H30.6C32.2 97.1352 33.45 96.6852 33.45 95.0852C33.45 93.5852 32.2 93.1852 30.6 93.1852H9.2ZM38.5 75.943V82.193L1.3 86.843L1.3 81.143L25.35 78.593L1.3 76.093L1.3 70.843L25.35 68.243L1.3 65.693L1.3 60.393L38.5 65.143V71.193L16.85 73.543L38.5 75.943Z"/>
</mask>
<path d="M22.1 173.35H20.8288V174.621H22.1V173.35ZM22.1 167.8V166.529H20.8288V167.8H22.1ZM1.3 164.95H0.0287654V166.221H1.3V164.95ZM1.3 159.2V157.929H0.0287654V159.2H1.3ZM23.3712 173.35V167.8H20.8288V173.35H23.3712ZM22.1 169.071H31.25V166.529H22.1V169.071ZM31.25 169.071C31.9381 169.071 32.7466 169.004 33.4079 168.614C33.7691 168.401 34.0815 168.096 34.2924 167.686C34.4977 167.288 34.5712 166.861 34.5712 166.45H32.0288C32.0288 166.564 32.0085 166.568 32.0326 166.521C32.0622 166.464 32.1059 166.43 32.1171 166.424C32.1172 166.423 32.1024 166.432 32.0656 166.444C32.0286 166.457 31.9743 166.471 31.8985 166.485C31.743 166.512 31.5318 166.529 31.25 166.529V169.071ZM34.5712 166.45V166.25H32.0288V166.45H34.5712ZM34.5712 166.25C34.5712 165.802 34.4737 165.355 34.2324 164.951C33.9902 164.546 33.6515 164.267 33.2975 164.081C32.6415 163.736 31.8657 163.679 31.25 163.679V166.221C31.496 166.221 31.6953 166.235 31.8523 166.26C32.0124 166.286 32.0897 166.318 32.115 166.332C32.1297 166.339 32.0879 166.319 32.0505 166.256C32.0138 166.195 32.0288 166.173 32.0288 166.25H34.5712ZM31.25 163.679H1.3L1.3 166.221H31.25V163.679ZM2.57123 164.95L2.57123 159.2H0.0287654L0.0287654 164.95H2.57123ZM1.3 160.471H31.7V157.929H1.3V160.471ZM31.7 160.471C33.9184 160.471 35.3343 161.042 36.1923 161.858C37.0415 162.667 37.5288 163.892 37.5288 165.6H40.0712C40.0712 163.408 39.4335 161.433 37.9452 160.017C36.4657 158.608 34.3316 157.929 31.7 157.929V160.471ZM37.5288 165.6V167.15H40.0712V165.6H37.5288ZM37.5288 167.15C37.5288 168.808 37.1516 169.977 36.4204 170.738C35.6979 171.491 34.4052 172.079 32.05 172.079V174.621C34.7948 174.621 36.8771 173.934 38.2546 172.499C39.6234 171.073 40.0712 169.142 40.0712 167.15H37.5288ZM32.05 172.079H22.1V174.621H32.05V172.079ZM22.1 157.676H20.8288V158.947H22.1V157.676ZM22.1 152.126V150.855H20.8288V152.126H22.1ZM1.3 149.276H0.0287654L0.0287654 150.547H1.3L1.3 149.276ZM1.3 143.526L1.3 142.255H0.0287654L0.0287654 143.526H1.3ZM23.3712 157.676V152.126H20.8288V157.676H23.3712ZM22.1 153.397H31.25V150.855H22.1V153.397ZM31.25 153.397C31.9381 153.397 32.7466 153.33 33.4079 152.94C33.7691 152.727 34.0815 152.422 34.2924 152.013C34.4977 151.614 34.5712 151.188 34.5712 150.776H32.0288C32.0288 150.89 32.0085 150.894 32.0326 150.848C32.0622 150.79 32.1059 150.756 32.1171 150.75C32.1172 150.75 32.1024 150.758 32.0656 150.771C32.0286 150.783 31.9743 150.798 31.8985 150.811C31.743 150.838 31.5318 150.855 31.25 150.855V153.397ZM34.5712 150.776V150.576H32.0288V150.776H34.5712ZM34.5712 150.576C34.5712 150.129 34.4737 149.681 34.2324 149.277C33.9902 148.873 33.6515 148.593 33.2975 148.407C32.6415 148.062 31.8657 148.005 31.25 148.005V150.547C31.496 150.547 31.6953 150.561 31.8523 150.587C32.0124 150.612 32.0897 150.645 32.115 150.658C32.1297 150.666 32.0879 150.645 32.0505 150.583C32.0138 150.521 32.0288 150.499 32.0288 150.576H34.5712ZM31.25 148.005H1.3L1.3 150.547H31.25V148.005ZM2.57123 149.276V143.526H0.0287654L0.0287654 149.276H2.57123ZM1.3 144.797H31.7V142.255H1.3L1.3 144.797ZM31.7 144.797C33.9184 144.797 35.3343 145.368 36.1923 146.184C37.0415 146.993 37.5288 148.219 37.5288 149.926H40.0712C40.0712 147.734 39.4335 145.76 37.9452 144.343C36.4657 142.935 34.3316 142.255 31.7 142.255V144.797ZM37.5288 149.926V151.476H40.0712V149.926H37.5288ZM37.5288 151.476C37.5288 153.135 37.1516 154.303 36.4204 155.065C35.6979 155.817 34.4052 156.405 32.05 156.405V158.947C34.7948 158.947 36.8771 158.26 38.2546 156.825C39.6234 155.399 40.0712 153.468 40.0712 151.476H37.5288ZM32.05 156.405H22.1V158.947H32.05V156.405ZM24.4 136.877H23.1288V138.148H24.4V136.877ZM24.4 131.277V130.005H23.1288V131.277H24.4ZM23.2 129.877L22.4222 128.871L22.4165 128.875L23.2 129.877ZM18.6 133.477L19.3782 134.482L19.3835 134.478L18.6 133.477ZM13.5 122.127H14.7712V120.855H13.5V122.127ZM13.5 127.577V128.848H14.7712V127.577H13.5ZM14.95 128.527L14.1718 127.521L14.171 127.522L14.95 128.527ZM19.6 124.927L18.8227 123.921L18.8218 123.921L19.6 124.927ZM37.6288 129.977C37.6288 132.003 37.0808 133.354 36.2107 134.206C35.3362 135.062 33.9405 135.605 31.85 135.605V138.148C34.3595 138.148 36.4888 137.491 37.9893 136.022C39.4942 134.549 40.1712 132.45 40.1712 129.977H37.6288ZM31.85 135.605H24.4V138.148H31.85V135.605ZM25.6712 136.877V131.277H23.1288V136.877H25.6712ZM24.4 132.548H30.9V130.005H24.4V132.548ZM30.9 132.548C31.8423 132.548 32.8034 132.404 33.5564 131.887C34.4044 131.306 34.7712 130.41 34.7712 129.427H32.2288C32.2288 129.606 32.1978 129.691 32.1838 129.72C32.1737 129.742 32.161 129.762 32.1186 129.791C31.9966 129.874 31.6577 130.005 30.9 130.005V132.548ZM34.7712 129.427C34.7712 128.953 34.6928 128.456 34.4567 127.992C34.2131 127.513 33.8433 127.15 33.3947 126.892C32.5711 126.42 31.4755 126.305 30.3 126.305V128.848C31.4245 128.848 31.9289 128.983 32.1303 129.098C32.1677 129.12 32.1823 129.134 32.1853 129.137C32.1875 129.139 32.1882 129.14 32.1902 129.144C32.1947 129.153 32.2288 129.225 32.2288 129.427H34.7712ZM30.3 126.305H29.45V128.848H30.3V126.305ZM29.45 126.305C28.1024 126.305 27.0175 126.364 25.9006 126.76C24.7993 127.15 23.766 127.831 22.4222 128.871L23.9778 130.882C25.284 129.872 26.0507 129.404 26.7494 129.156C27.4325 128.914 28.1476 128.848 29.45 128.848V126.305ZM22.4165 128.875L17.8165 132.475L19.3835 134.478L23.9835 130.878L22.4165 128.875ZM17.8218 132.471C16.3527 133.609 15.1054 134.3 13.8293 134.718C12.5501 135.138 11.17 135.305 9.4 135.305L9.4 137.848C11.33 137.848 12.9999 137.666 14.6207 137.135C16.2446 136.603 17.7473 135.744 19.3782 134.482L17.8218 132.471ZM9.4 135.305H8.2L8.2 137.848H9.4L9.4 135.305ZM8.2 135.305C5.92433 135.305 4.48711 134.732 3.6129 133.867C2.7409 133.004 2.22123 131.645 2.22123 129.627H-0.321236C-0.321236 132.058 0.309096 134.174 1.82459 135.674C3.33788 137.171 5.52567 137.848 8.2 137.848L8.2 135.305ZM2.22123 129.627V128.577H-0.321236L-0.321236 129.627H2.22123ZM2.22123 128.577C2.22123 126.406 2.70369 125.206 3.41038 124.52C4.12486 123.827 5.33471 123.398 7.4 123.398L7.4 120.855C5.06528 120.855 3.05014 121.327 1.63961 122.696C0.221301 124.072 -0.321236 126.098 -0.321236 128.577H2.22123ZM7.4 123.398H13.5V120.855H7.4L7.4 123.398ZM12.2288 122.127V127.577H14.7712V122.127H12.2288ZM13.5 126.305H8.15V128.848H13.5V126.305ZM8.15 126.305C7.50372 126.305 6.64876 126.356 5.93747 126.774C5.54924 127.002 5.21288 127.333 4.98512 127.78C4.76364 128.215 4.67877 128.693 4.67877 129.177H7.22123C7.22123 128.985 7.2551 128.925 7.25081 128.934C7.24025 128.955 7.21951 128.97 7.22503 128.966C7.24608 128.954 7.3203 128.919 7.48969 128.89C7.65752 128.862 7.87354 128.848 8.15 128.848V126.305ZM4.67877 129.177C4.67877 129.64 4.75057 130.119 4.96907 130.564C5.19755 131.03 5.54715 131.377 5.96823 131.615C6.72034 132.04 7.68176 132.098 8.55 132.098V129.555C8.14139 129.555 7.83142 129.537 7.59537 129.502C7.35585 129.465 7.25159 129.419 7.21927 129.401C7.20909 129.395 7.23682 129.414 7.25124 129.444C7.25568 129.453 7.22123 129.388 7.22123 129.177H4.67877ZM8.55 132.098H9.25V129.555H8.55V132.098ZM9.25 132.098C10.3902 132.098 11.377 131.989 12.4349 131.572C13.4618 131.167 14.476 130.503 15.729 129.531L14.171 127.522C12.974 128.45 12.1882 128.936 11.5026 129.206C10.848 129.464 10.2098 129.555 9.25 129.555V132.098ZM15.7282 129.532L20.3782 125.932L18.8218 123.921L14.1718 127.521L15.7282 129.532ZM20.3773 125.932C21.9939 124.683 23.1717 123.94 24.4007 123.489C25.6195 123.041 26.9795 122.848 29 122.848V120.305C26.8205 120.305 25.1305 120.512 23.5243 121.102C21.9283 121.688 20.5061 122.62 18.8227 123.921L20.3773 125.932ZM29 122.848H30.2V120.305H29V122.848ZM30.2 122.848C32.7695 122.848 34.614 123.406 35.7951 124.359C36.9293 125.275 37.6288 126.7 37.6288 128.877H40.1712C40.1712 126.103 39.2457 123.878 37.3924 122.381C35.586 120.923 33.0805 120.305 30.2 120.305V122.848ZM37.6288 128.877V129.977H40.1712V128.877H37.6288ZM38.5 119.971V121.243H39.7712V119.971H38.5ZM1.3 119.971H0.0287654V121.243H1.3L1.3 119.971ZM1.3 114.321L1.3 113.05H0.0287654L0.0287654 114.321H1.3ZM16.2 114.321V115.593H17.4712V114.321H16.2ZM16.2 110.471H17.4712V109.2H16.2V110.471ZM1.3 110.471H0.0287654L0.0287654 111.743H1.3L1.3 110.471ZM1.3 104.821V103.55H0.0287654V104.821H1.3ZM38.5 104.821H39.7712V103.55H38.5V104.821ZM38.5 110.471V111.743H39.7712V110.471H38.5ZM22.15 110.471V109.2H20.8788V110.471H22.15ZM22.15 114.321H20.8788V115.593H22.15V114.321ZM38.5 114.321H39.7712V113.05H38.5V114.321ZM38.5 118.7H1.3L1.3 121.243H38.5V118.7ZM2.57123 119.971V114.321H0.0287654L0.0287654 119.971H2.57123ZM1.3 115.593H16.2V113.05H1.3L1.3 115.593ZM17.4712 114.321V110.471H14.9288V114.321H17.4712ZM16.2 109.2H1.3L1.3 111.743H16.2V109.2ZM2.57123 110.471L2.57123 104.821H0.0287654L0.0287654 110.471H2.57123ZM1.3 106.093H38.5V103.55H1.3V106.093ZM37.2288 104.821V110.471H39.7712V104.821H37.2288ZM38.5 109.2H22.15V111.743H38.5V109.2ZM20.8788 110.471V114.321H23.4212V110.471H20.8788ZM22.15 115.593H38.5V113.05H22.15V115.593ZM37.2288 114.321L37.2288 119.971H39.7712L39.7712 114.321H37.2288ZM2.22123 95.6352V94.6852H-0.321236V95.6352H2.22123ZM2.22123 94.6852C2.22123 92.2136 2.96929 90.8322 4.05432 90.0116C5.21326 89.1351 7.00139 88.7064 9.45 88.7064V86.1639C6.7986 86.1639 4.33674 86.6102 2.52067 87.9837C0.630702 89.4131 -0.321236 91.6567 -0.321236 94.6852H2.22123ZM9.45 88.7064H30.2L30.2 86.1639H9.45V88.7064ZM30.2 88.7064C32.7011 88.7064 34.5627 89.1357 35.777 90.0193C36.9097 90.8435 37.6788 92.2125 37.6788 94.6352H40.2212C40.2212 91.6078 39.2153 89.3769 37.273 87.9635C35.4123 86.6096 32.8989 86.1639 30.2 86.1639L30.2 88.7064ZM37.6788 94.6352V95.5852H40.2212V94.6352H37.6788ZM37.6788 95.5852C37.6788 97.9806 36.9103 99.3845 35.7636 100.242C34.5456 101.153 32.6837 101.614 30.2 101.614V104.156C32.9163 104.156 35.4294 103.667 37.2864 102.278C39.2147 100.836 40.2212 98.5897 40.2212 95.5852H37.6788ZM30.2 101.614H9.5V104.156H30.2V101.614ZM9.5 101.614C7.04856 101.614 5.24209 101.143 4.06924 100.24C2.96062 99.3869 2.22123 97.9922 2.22123 95.6352H-0.321236C-0.321236 98.5781 0.639377 100.808 2.51826 102.255C4.3329 103.652 6.80144 104.156 9.5 104.156V101.614ZM9.2 91.9139C8.12688 91.9139 7.10295 92.0847 6.31943 92.628C5.44479 93.2344 5.07877 94.1518 5.07877 95.1352H7.62123C7.62123 94.9557 7.65216 94.864 7.67108 94.8239C7.68629 94.7916 7.70863 94.7586 7.76807 94.7174C7.92205 94.6106 8.32312 94.4564 9.2 94.4564L9.2 91.9139ZM5.07877 95.1352C5.07877 96.1733 5.44452 97.1241 6.35414 97.7345C7.15143 98.2695 8.18079 98.4064 9.2 98.4064V95.8639C8.31921 95.8639 7.92357 95.7258 7.77086 95.6233C7.71824 95.588 7.69781 95.5599 7.6809 95.5235C7.65866 95.4757 7.62123 95.3621 7.62123 95.1352H5.07877ZM9.2 98.4064H30.6V95.8639H9.2V98.4064ZM30.6 98.4064C31.473 98.4064 32.4721 98.2923 33.2868 97.7955C34.2145 97.2299 34.7212 96.2837 34.7212 95.0852H32.1788C32.1788 95.3184 32.134 95.4334 32.1075 95.4833C32.0836 95.5282 32.0467 95.5739 31.9632 95.6248C31.7529 95.753 31.327 95.8639 30.6 95.8639V98.4064ZM34.7212 95.0852C34.7212 94.5307 34.6044 93.9982 34.333 93.524C34.0602 93.0473 33.6731 92.703 33.247 92.464C32.4417 92.0123 31.4578 91.9139 30.6 91.9139V94.4564C31.3422 94.4564 31.7833 94.5581 32.003 94.6814C32.0894 94.7298 32.1148 94.7667 32.1264 94.7869C32.1394 94.8096 32.1788 94.8896 32.1788 95.0852H34.7212ZM30.6 91.9139H9.2L9.2 94.4564H30.6V91.9139ZM38.5 75.943H39.7712V74.8049L38.6401 74.6795L38.5 75.943ZM38.5 82.193L38.6577 83.4544L39.7712 83.3152V82.193H38.5ZM1.3 86.843H0.0287654V88.283L1.45768 88.1044L1.3 86.843ZM1.3 81.143L1.16596 79.8788L0.0287654 79.9994V81.143H1.3ZM25.35 78.593L25.484 79.8571L25.4814 77.3285L25.35 78.593ZM1.3 76.093H0.0287654V77.2389L1.16856 77.3574L1.3 76.093ZM1.3 70.843L1.16336 69.5791L0.0287654 69.7018L0.0287654 70.843H1.3ZM25.35 68.243L25.4866 69.5068L25.484 66.9788L25.35 68.243ZM1.3 65.693H0.0287654V66.8365L1.16596 66.9571L1.3 65.693ZM1.3 60.393L1.46101 59.132L0.0287654 58.9491L0.0287654 60.393H1.3ZM38.5 65.143H39.7712V64.0237L38.661 63.882L38.5 65.143ZM38.5 71.193L38.6372 72.4568L39.7712 72.3337V71.193H38.5ZM16.85 73.543L16.7128 72.2792L16.7099 74.8065L16.85 73.543ZM37.2288 75.943V82.193H39.7712V75.943H37.2288ZM38.3423 80.9315L1.14232 85.5816L1.45768 88.1044L38.6577 83.4544L38.3423 80.9315ZM2.57123 86.843L2.57123 81.143H0.0287654L0.0287654 86.843H2.57123ZM1.43404 82.4071L25.484 79.8571L25.216 77.3288L1.16596 79.8788L1.43404 82.4071ZM25.4814 77.3285L1.43144 74.8285L1.16856 77.3574L25.2186 79.8574L25.4814 77.3285ZM2.57123 76.093V70.843H0.0287654L0.0287654 76.093H2.57123ZM1.43663 72.1068L25.4866 69.5068L25.2134 66.9791L1.16336 69.5791L1.43663 72.1068ZM25.484 66.9788L1.43404 64.4288L1.16596 66.9571L25.216 69.5071L25.484 66.9788ZM2.57123 65.693L2.57123 60.393H0.0287654L0.0287654 65.693H2.57123ZM1.13898 61.654L38.339 66.404L38.661 63.882L1.46101 59.132L1.13898 61.654ZM37.2288 65.143V71.193H39.7712V65.143H37.2288ZM38.3628 69.9292L16.7128 72.2792L16.9872 74.8068L38.6372 72.4568L38.3628 69.9292ZM16.7099 74.8065L38.3599 77.2065L38.6401 74.6795L16.9901 72.2795L16.7099 74.8065Z" fill="black" mask="url(#path-2-outside-1_7702_14427)"/>
<path d="M40 18.0563C40 16.0875 38.1768 14.5688 35.5801 14.5688C34.3094 14.5688 32.2652 15.075 29.3923 16.0313C26.5193 16.9875 23.8674 17.4938 21.4917 17.4938H20.7735C22.3204 15.0188 23.5912 13.3312 24.4751 12.5438C26.2983 10.9125 31.4917 6.6375 31.4917 3.31875C31.4917 1.35 30.1105 0 28.453 0C27.5138 0 26.6851 0.393753 25.8564 1.18125C24.2541 2.75625 23.4807 6.24375 22.5967 10.35C22.1547 12.4313 21.326 14.625 20 17.0438C18.674 14.5688 17.7901 12.3188 17.3481 10.1812C16.9061 8.1 16.4641 6.24375 15.9668 4.66875C14.9171 1.40625 13.3149 0 11.4365 0C9.72376 0 8.50828 1.35 8.50828 3.15C8.50828 4.275 8.83978 5.34375 9.55801 6.4125C10.221 7.425 11.9889 9.28125 14.8619 11.925C17.4586 14.6813 17.2376 14.2875 19.2265 17.4938C16.5746 17.4938 13.7569 16.9875 10.8287 15.975C7.90055 14.9625 5.74586 14.4563 4.41989 14.4563C1.76796 14.4563 0 15.975 0 17.9438C0 19.9688 1.87845 21.4313 4.41989 21.4313C6.35359 21.4313 10.4972 20.025 13.1492 19.125C14.4751 18.675 16.2983 18.5063 18.5083 18.5063H19.2265C17.9006 20.7563 16.5193 22.5 15.1381 23.7375C12.3757 26.2125 8.50828 29.7 8.50828 32.6812C8.50828 34.65 9.779 36 11.4365 36C12.3757 36 13.2597 35.6062 14.0884 34.875C15.7459 33.4125 16.4641 30.0375 17.3481 25.8187C17.7901 23.6812 18.674 21.375 20 18.9563C21.326 21.3188 22.2099 23.5687 22.5967 25.5937C22.9834 27.675 23.4807 29.5313 23.9227 31.1625C24.8066 34.4813 26.6298 36 28.453 36C30.1105 36 31.4917 34.5375 31.4917 32.7375C31.4917 29.8125 28.453 27.0563 25.3591 24.2438C23.8122 22.8375 22.2652 20.9813 20.7735 18.5063C23.6464 18.5063 26.4088 19.0125 29.2818 20.025C32.0994 21.0375 34.1989 21.5438 35.5801 21.5438C38.0663 21.5438 40 20.1375 40 18.0563Z" fill="black"/>
</svg>
