<svg width="11" height="105" viewBox="0 0 11 105" fill="none" xmlns="http://www.w3.org/2000/svg">
<path d="M4.721 93.3813H5.051C6.481 93.3813 9.143 94.0413 9.143 98.9033V99.3873C9.143 104.227 6.481 104.909 5.051 104.909H4.721C3.269 104.909 0.673 104.227 0.673 99.3873V98.9033C0.673 94.0523 3.269 93.3813 4.721 93.3813ZM4.952 96.0653H4.798C3.863 96.0653 2.664 96.6373 2.664 99.1453C2.664 101.697 3.863 102.225 4.798 102.225H4.93C5.854 102.225 7.141 101.642 7.141 99.1453C7.141 96.6483 5.887 96.0653 4.952 96.0653ZM3.929 90.8106V92.7136H2.389C2.29 91.2946 1.685 90.6456 0.816 90.2716L0.816 88.2696H9V90.8106H3.929ZM10.441 69.3058L0.112 73.1448L0.112 71.2638L10.441 67.4578V69.3058ZM10.441 63.9832L0.112 67.8222L0.112 65.9412L10.441 62.1352L10.441 63.9832ZM10.441 58.6607L0.112 62.4997L0.112 60.6187L10.441 56.8127V58.6607ZM9.143 41.2618C9.143 45.5518 7.295 46.0468 6.217 46.0468H6.096V43.3738C6.58 43.3408 7.394 43.0548 7.394 40.9428V40.7888C7.394 38.6328 6.965 38.3908 6.525 38.3908C6.052 38.3908 5.744 38.6438 5.7 40.5358L5.667 41.9438C5.579 45.0018 4.545 45.9368 3.269 45.9368H3.17C1.949 45.9368 0.673 45.1998 0.673 41.4818V40.7228C0.673 36.8508 2.026 35.9708 3.258 35.9708H3.368L3.368 38.6328C3.049 38.6768 2.389 38.8638 2.389 40.9978V41.1738C2.389 43.1538 2.752 43.2968 3.093 43.2968C3.434 43.2968 3.775 43.0878 3.797 41.4048L3.819 40.0298C3.885 36.9498 4.622 35.7068 6.25 35.7068H6.404C7.757 35.7068 9.143 36.3888 9.143 40.5028V41.2618ZM0.816 34.6881L0.816 32.1251H6.965V26.4381H9L9 34.6881H0.816ZM0.816 22.7742H9V25.3372H0.816L0.816 22.7742ZM9 21.3682H0.816L0.816 15.9452C0.816 11.2042 2.851 10.1702 4.688 10.1702H5.018C6.778 10.1702 9.011 11.1492 9 15.9342V21.3682ZM2.752 18.8052H7.031V16.1432C7.031 13.2392 5.755 12.8542 4.919 12.8542H4.853C4.017 12.8542 2.752 13.2062 2.752 16.1432V18.8052ZM0.816 9.13842L0.816 0.514421H2.675V6.60842H3.885L3.885 0.657421H5.755V6.60842H7.097V0.404421H9L9 9.13842H0.816Z" fill="black"/>
</svg>
