<svg width="72" height="1664" viewBox="0 0 72 1664" fill="none" xmlns="http://www.w3.org/2000/svg">
<g clip-path="url(#clip0_7702_12884)">
<mask id="path-1-outside-1_7702_12884" maskUnits="userSpaceOnUse" x="2" y="1501.12" width="80" height="164" fill="black">
<rect fill="white" x="2" y="1501.12" width="80" height="164"/>
<path d="M80.02 1653.52H67.588C66.748 1660.92 61.036 1663.6 53.056 1663.6H18.28C9.628 1663.6 3.916 1660.33 3.916 1651.42V1649.83C3.916 1640.59 9.628 1637.65 18.196 1637.65H53.056C60.7 1637.65 66.244 1639.92 67.504 1646.55L80.02 1642.18V1653.52ZM17.776 1647.31C14.5 1647.31 12.988 1648.4 12.988 1650.58C12.988 1653.02 14.584 1653.94 17.776 1653.94H53.728C56.416 1653.94 58.516 1653.19 58.516 1650.5C58.516 1647.98 56.416 1647.31 53.728 1647.31H17.776ZM67.756 1621.04V1622.72C67.756 1631.12 62.38 1634.56 53.392 1634.56H4.504L4.504 1624.9H53.98C56.668 1624.9 58.432 1623.98 58.432 1621.88C58.432 1619.61 56.752 1618.77 53.98 1618.77H4.504L4.504 1609.11H53.392C62.212 1609.11 67.756 1612.64 67.756 1621.04ZM4.504 1605.77L4.504 1584.18H13.576L13.576 1596.27H29.956V1586.78H39.448V1596.27H57.508V1583.67H67V1605.77H4.504ZM67.672 1570.4C67.672 1577.96 63.556 1581.99 55.828 1581.99H43.312V1572.59H54.232C57.088 1572.59 58.6 1571.66 58.6 1569.48C58.6 1567.21 57.088 1566.37 53.224 1566.37H51.796C47.344 1566.37 45.748 1566.79 41.296 1570.23L33.568 1576.28C28.36 1580.31 24.328 1581.49 18.112 1581.49H16.096C7.78 1581.49 3.916 1577.29 3.916 1569.81L3.916 1568.05C3.916 1560.24 7.36 1557.21 14.752 1557.21H25V1566.37H16.012C13.912 1566.37 12.316 1566.79 12.316 1569.06C12.316 1571.33 13.744 1571.83 16.684 1571.83H17.86C21.388 1571.83 23.32 1571.16 27.436 1567.97L35.248 1561.92C40.792 1557.63 43.984 1556.29 51.04 1556.29H53.056C62.212 1556.29 67.672 1560.24 67.672 1568.55V1570.4ZM67 1547.36H13.576V1555.34H4.504L4.504 1529.98H13.576L13.576 1537.96H67V1547.36ZM67.672 1517.16C67.672 1524.72 63.556 1528.76 55.828 1528.76H43.312V1519.35H54.232C57.088 1519.35 58.6 1518.42 58.6 1516.24C58.6 1513.97 57.088 1513.13 53.224 1513.13H51.796C47.344 1513.13 45.748 1513.55 41.296 1517L33.568 1523.04C28.36 1527.08 24.328 1528.25 18.112 1528.25H16.096C7.78 1528.25 3.916 1524.05 3.916 1516.58V1514.81C3.916 1507 7.36 1503.98 14.752 1503.98H25V1513.13H16.012C13.912 1513.13 12.316 1513.55 12.316 1515.82C12.316 1518.09 13.744 1518.59 16.684 1518.59H17.86C21.388 1518.59 23.32 1517.92 27.436 1514.73L35.248 1508.68C40.792 1504.4 43.984 1503.05 51.04 1503.05H53.056C62.212 1503.05 67.672 1507 67.672 1515.32V1517.16Z"/>
</mask>
<path d="M80.02 1653.52V1654.79H81.2912V1653.52H80.02ZM67.588 1653.52V1652.25H66.453L66.3249 1653.38L67.588 1653.52ZM67.504 1646.55L66.2551 1646.79L66.5302 1648.24L67.9229 1647.75L67.504 1646.55ZM80.02 1642.18H81.2912V1640.39L79.6011 1640.98L80.02 1642.18ZM80.02 1652.25H67.588V1654.79H80.02V1652.25ZM66.3249 1653.38C65.9445 1656.73 64.4971 1658.89 62.3213 1660.26C60.0797 1661.67 56.9331 1662.33 53.056 1662.33V1664.87C57.1589 1664.87 60.8583 1664.19 63.6777 1662.41C66.5629 1660.59 68.3915 1657.71 68.8511 1653.67L66.3249 1653.38ZM53.056 1662.33H18.28V1664.87H53.056V1662.33ZM18.28 1662.33C14.0776 1662.33 10.8176 1661.53 8.62899 1659.84C6.50462 1658.21 5.18723 1655.58 5.18723 1651.42H2.64476C2.64476 1656.17 4.18338 1659.63 7.078 1661.86C9.9084 1664.04 13.8304 1664.87 18.28 1664.87V1662.33ZM5.18723 1651.42V1649.83H2.64476V1651.42H5.18723ZM5.18723 1649.83C5.18723 1645.49 6.51329 1642.87 8.60982 1641.29C10.7803 1639.64 14.0134 1638.92 18.196 1638.92V1636.38C13.8106 1636.38 9.90374 1637.12 7.07617 1639.26C4.1747 1641.45 2.64476 1644.93 2.64476 1649.83H5.18723ZM18.196 1638.92H53.056V1636.38H18.196V1638.92ZM53.056 1638.92C56.7808 1638.92 59.827 1639.48 62.0539 1640.72C64.2158 1641.93 65.6934 1643.83 66.2551 1646.79L68.7529 1646.31C68.0546 1642.64 66.1302 1640.09 63.2941 1638.5C60.523 1636.95 56.9752 1636.38 53.056 1636.38V1638.92ZM67.9229 1647.75L80.4389 1643.38L79.6011 1640.98L67.0851 1645.35L67.9229 1647.75ZM78.7488 1642.18V1653.52H81.2912V1642.18H78.7488ZM17.776 1646.04C16.0399 1646.04 14.5315 1646.32 13.4292 1647.08C12.2358 1647.91 11.7168 1649.16 11.7168 1650.58H14.2592C14.2592 1649.82 14.4962 1649.44 14.8778 1649.17C15.3505 1648.84 16.2361 1648.58 17.776 1648.58V1646.04ZM11.7168 1650.58C11.7168 1652.11 12.244 1653.41 13.4766 1654.23C14.5969 1654.98 16.1108 1655.21 17.776 1655.21V1652.67C16.2492 1652.67 15.3691 1652.44 14.8934 1652.12C14.53 1651.88 14.2592 1651.49 14.2592 1650.58H11.7168ZM17.776 1655.21H53.728V1652.67H17.776V1655.21ZM53.728 1655.21C55.145 1655.21 56.6286 1655.02 57.7918 1654.31C59.068 1653.54 59.7872 1652.24 59.7872 1650.5H57.2448C57.2448 1651.44 56.914 1651.87 56.4682 1652.14C55.9094 1652.48 54.999 1652.67 53.728 1652.67V1655.21ZM59.7872 1650.5C59.7872 1649.69 59.6173 1648.95 59.2492 1648.31C58.8797 1647.66 58.3524 1647.19 57.752 1646.85C56.5982 1646.2 55.1298 1646.04 53.728 1646.04V1648.58C55.0142 1648.58 55.9398 1648.75 56.508 1649.07C56.7686 1649.21 56.9343 1649.38 57.0426 1649.57C57.1522 1649.76 57.2448 1650.05 57.2448 1650.5H59.7872ZM53.728 1646.04H17.776V1648.58H53.728V1646.04ZM4.504 1634.56H3.23276V1635.83H4.504V1634.56ZM4.504 1624.9V1623.63H3.23276V1624.9H4.504ZM4.504 1618.77H3.23276V1620.04H4.504V1618.77ZM4.504 1609.11V1607.84H3.23276V1609.11H4.504ZM66.4848 1621.04V1622.72H69.0272V1621.04H66.4848ZM66.4848 1622.72C66.4848 1626.63 65.2504 1629.17 63.1661 1630.79C61.0192 1632.45 57.7598 1633.29 53.392 1633.29V1635.83C58.0122 1635.83 61.9348 1634.95 64.7229 1632.8C67.5736 1630.59 69.0272 1627.21 69.0272 1622.72H66.4848ZM53.392 1633.29H4.504V1635.83H53.392V1633.29ZM5.77523 1634.56L5.77523 1624.9H3.23276L3.23276 1634.56H5.77523ZM4.504 1626.17H53.98V1623.63H4.504V1626.17ZM53.98 1626.17C55.4345 1626.17 56.827 1625.93 57.8956 1625.25C59.048 1624.52 59.7032 1623.35 59.7032 1621.88H57.1608C57.1608 1622.5 56.934 1622.85 56.5324 1623.1C56.047 1623.41 55.2135 1623.63 53.98 1623.63V1626.17ZM59.7032 1621.88C59.7032 1620.38 59.1137 1619.16 57.9337 1618.4C56.859 1617.71 55.4489 1617.5 53.98 1617.5V1620.04C55.2831 1620.04 56.099 1620.25 56.5573 1620.54C56.9103 1620.77 57.1608 1621.11 57.1608 1621.88H59.7032ZM53.98 1617.5H4.504V1620.04H53.98V1617.5ZM5.77523 1618.77L5.77523 1609.11H3.23276L3.23276 1618.77H5.77523ZM4.504 1610.38H53.392V1607.84H4.504V1610.38ZM53.392 1610.38C57.6651 1610.38 60.9291 1611.24 63.1019 1612.93C65.2161 1614.57 66.4848 1617.14 66.4848 1621.04H69.0272C69.0272 1616.53 67.5239 1613.14 64.6611 1610.92C61.8569 1608.74 57.9389 1607.84 53.392 1607.84V1610.38ZM4.504 1605.77H3.23276V1607.04H4.504V1605.77ZM4.504 1584.18V1582.91H3.23276L3.23276 1584.18H4.504ZM13.576 1584.18H14.8472V1582.91H13.576V1584.18ZM13.576 1596.27H12.3048V1597.54H13.576V1596.27ZM29.956 1596.27V1597.54H31.2272V1596.27H29.956ZM29.956 1586.78V1585.51H28.6848V1586.78H29.956ZM39.448 1586.78H40.7192V1585.51H39.448V1586.78ZM39.448 1596.27H38.1768V1597.54H39.448V1596.27ZM57.508 1596.27V1597.54H58.7792V1596.27H57.508ZM57.508 1583.67V1582.4H56.2368V1583.67H57.508ZM67 1583.67H68.2712V1582.4H67V1583.67ZM67 1605.77V1607.04H68.2712V1605.77H67ZM5.77523 1605.77L5.77523 1584.18H3.23276L3.23276 1605.77H5.77523ZM4.504 1585.45H13.576V1582.91H4.504V1585.45ZM12.3048 1584.18L12.3048 1596.27H14.8472L14.8472 1584.18H12.3048ZM13.576 1597.54H29.956V1595H13.576V1597.54ZM31.2272 1596.27V1586.78H28.6848V1596.27H31.2272ZM29.956 1588.05H39.448V1585.51H29.956V1588.05ZM38.1768 1586.78V1596.27H40.7192V1586.78H38.1768ZM39.448 1597.54H57.508V1595H39.448V1597.54ZM58.7792 1596.27V1583.67H56.2368V1596.27H58.7792ZM57.508 1584.94H67V1582.4H57.508V1584.94ZM65.7288 1583.67V1605.77H68.2712V1583.67H65.7288ZM67 1604.49H4.504V1607.04H67V1604.49ZM43.312 1581.99H42.0408V1583.27H43.312V1581.99ZM43.312 1572.59V1571.31H42.0408V1572.59H43.312ZM41.296 1570.23L40.5182 1569.23L40.5125 1569.23L41.296 1570.23ZM33.568 1576.28L34.3462 1577.29L34.3515 1577.28L33.568 1576.28ZM25 1557.21H26.2712V1555.94H25V1557.21ZM25 1566.37V1567.64H26.2712V1566.37H25ZM27.436 1567.97L26.6578 1566.96L26.657 1566.96L27.436 1567.97ZM35.248 1561.92L34.4707 1560.91L34.4698 1560.91L35.248 1561.92ZM66.4008 1570.4C66.4008 1573.96 65.4363 1576.48 63.7587 1578.12C62.0767 1579.77 59.4825 1580.72 55.828 1580.72V1583.27C59.9015 1583.27 63.2293 1582.2 65.5373 1579.94C67.8497 1577.68 68.9432 1574.41 68.9432 1570.4H66.4008ZM55.828 1580.72H43.312V1583.27H55.828V1580.72ZM44.5832 1581.99V1572.59H42.0408V1581.99H44.5832ZM43.312 1573.86H54.232V1571.31H43.312V1573.86ZM54.232 1573.86C55.7523 1573.86 57.1554 1573.62 58.2059 1572.9C59.3514 1572.11 59.8712 1570.9 59.8712 1569.48H57.3288C57.3288 1570.24 57.0926 1570.58 56.7681 1570.8C56.3486 1571.09 55.5677 1571.31 54.232 1571.31V1573.86ZM59.8712 1569.48C59.8712 1568.77 59.7545 1568.08 59.4366 1567.46C59.1112 1566.82 58.6161 1566.33 57.9932 1565.97C56.8211 1565.3 55.1815 1565.1 53.224 1565.1V1567.64C55.1305 1567.64 56.1789 1567.86 56.7288 1568.18C56.9669 1568.31 57.0913 1568.46 57.1701 1568.61C57.2565 1568.78 57.3288 1569.05 57.3288 1569.48H59.8712ZM53.224 1565.1H51.796V1567.64H53.224V1565.1ZM51.796 1565.1C49.5474 1565.1 47.8505 1565.2 46.1216 1565.81C44.4083 1566.42 42.763 1567.49 40.5182 1569.23L42.0738 1571.24C44.281 1569.53 45.6597 1568.67 46.9704 1568.21C48.2655 1567.75 49.5926 1567.64 51.796 1567.64V1565.1ZM40.5125 1569.23L32.7845 1575.28L34.3515 1577.28L42.0795 1571.24L40.5125 1569.23ZM32.7898 1575.28C30.2667 1577.23 28.0844 1578.45 25.8223 1579.19C23.5571 1579.93 21.14 1580.22 18.112 1580.22V1582.76C21.3 1582.76 24.0069 1582.46 26.6137 1581.61C29.2236 1580.75 31.6613 1579.37 34.3462 1577.29L32.7898 1575.28ZM18.112 1580.22H16.096V1582.76H18.112V1580.22ZM16.096 1580.22C12.1373 1580.22 9.46761 1579.22 7.78165 1577.55C6.0979 1575.89 5.18723 1573.35 5.18723 1569.81H2.64476C2.64476 1573.76 3.66609 1577.06 5.99334 1579.36C8.31838 1581.66 11.7387 1582.76 16.096 1582.76V1580.22ZM5.18723 1569.81V1568.05H2.64476V1569.81H5.18723ZM5.18723 1568.05C5.18723 1564.3 6.01819 1562 7.44738 1560.61C8.88436 1559.22 11.1907 1558.49 14.752 1558.49V1555.94C10.9213 1555.94 7.80964 1556.72 5.67661 1558.79C3.5358 1560.87 2.64476 1563.99 2.64476 1568.05H5.18723ZM14.752 1558.49H25V1555.94H14.752V1558.49ZM23.7288 1557.21V1566.37H26.2712V1557.21H23.7288ZM25 1565.1H16.012V1567.64H25V1565.1ZM16.012 1565.1C14.9407 1565.1 13.7118 1565.19 12.7327 1565.77C12.2106 1566.07 11.7669 1566.51 11.4653 1567.1C11.17 1567.68 11.0448 1568.35 11.0448 1569.06H13.5872C13.5872 1568.64 13.6615 1568.39 13.731 1568.26C13.7943 1568.13 13.8809 1568.04 14.0203 1567.96C14.3642 1567.76 14.9833 1567.64 16.012 1567.64V1565.1ZM11.0448 1569.06C11.0448 1569.75 11.1527 1570.42 11.444 1571.01C11.7452 1571.62 12.2043 1572.08 12.772 1572.4C13.8173 1572.99 15.2208 1573.1 16.684 1573.1V1570.56C15.2072 1570.56 14.4267 1570.42 14.023 1570.19C13.8662 1570.1 13.7845 1570.01 13.7261 1569.89C13.6578 1569.75 13.5872 1569.5 13.5872 1569.06H11.0448ZM16.684 1573.1H17.86V1570.56H16.684V1573.1ZM17.86 1573.1C19.7142 1573.1 21.2535 1572.92 22.8937 1572.28C24.5028 1571.64 26.129 1570.59 28.215 1568.97L26.657 1566.96C24.627 1568.54 23.2292 1569.41 21.9613 1569.91C20.7245 1570.4 19.5338 1570.56 17.86 1570.56V1573.1ZM28.2142 1568.97L36.0262 1562.92L34.4698 1560.91L26.6578 1566.96L28.2142 1568.97ZM36.0253 1562.92C38.7639 1560.81 40.8257 1559.49 43.0152 1558.69C45.1945 1557.89 47.5915 1557.56 51.04 1557.56V1555.02C47.4325 1555.02 44.7055 1555.36 42.1388 1556.3C39.5823 1557.24 37.2761 1558.74 34.4707 1560.91L36.0253 1562.92ZM51.04 1557.56H53.056V1555.02H51.04V1557.56ZM53.056 1557.56C57.4785 1557.56 60.802 1558.52 62.9988 1560.29C65.1488 1562.03 66.4008 1564.69 66.4008 1568.55H68.9432C68.9432 1564.1 67.4652 1560.63 64.5962 1558.31C61.774 1556.04 57.7895 1555.02 53.056 1555.02V1557.56ZM66.4008 1568.55V1570.4H68.9432V1568.55H66.4008ZM67 1547.36V1548.63H68.2712V1547.36H67ZM13.576 1547.36V1546.09H12.3048V1547.36H13.576ZM13.576 1555.34V1556.61H14.8472V1555.34H13.576ZM4.504 1555.34H3.23276V1556.61H4.504V1555.34ZM4.504 1529.98V1528.7H3.23276L3.23276 1529.98H4.504ZM13.576 1529.98H14.8472V1528.7H13.576V1529.98ZM13.576 1537.96H12.3048V1539.23H13.576V1537.96ZM67 1537.96H68.2712V1536.68H67V1537.96ZM67 1546.09H13.576V1548.63H67V1546.09ZM12.3048 1547.36V1555.34H14.8472V1547.36H12.3048ZM13.576 1554.07H4.504V1556.61H13.576V1554.07ZM5.77523 1555.34L5.77523 1529.98H3.23276L3.23276 1555.34H5.77523ZM4.504 1531.25H13.576V1528.7H4.504V1531.25ZM12.3048 1529.98V1537.96H14.8472L14.8472 1529.98H12.3048ZM13.576 1539.23H67V1536.68H13.576V1539.23ZM65.7288 1537.96V1547.36H68.2712V1537.96H65.7288ZM43.312 1528.76H42.0408V1530.03H43.312V1528.76ZM43.312 1519.35V1518.08H42.0408V1519.35H43.312ZM41.296 1517L40.5182 1515.99L40.5125 1515.99L41.296 1517ZM33.568 1523.04L34.3462 1524.05L34.3515 1524.04L33.568 1523.04ZM25 1503.98H26.2712V1502.7H25V1503.98ZM25 1513.13V1514.4H26.2712V1513.13H25ZM27.436 1514.73L26.6578 1513.72L26.657 1513.72L27.436 1514.73ZM35.248 1508.68L34.4707 1507.67L34.4698 1507.67L35.248 1508.68ZM66.4008 1517.16C66.4008 1520.72 65.4363 1523.24 63.7587 1524.89C62.0767 1526.53 59.4825 1527.48 55.828 1527.48V1530.03C59.9015 1530.03 63.2293 1528.96 65.5373 1526.7C67.8497 1524.44 68.9432 1521.17 68.9432 1517.16H66.4008ZM55.828 1527.48H43.312V1530.03H55.828V1527.48ZM44.5832 1528.76V1519.35H42.0408V1528.76H44.5832ZM43.312 1520.62H54.232V1518.08H43.312V1520.62ZM54.232 1520.62C55.7523 1520.62 57.1554 1520.38 58.2059 1519.66C59.3514 1518.88 59.8712 1517.67 59.8712 1516.24H57.3288C57.3288 1517 57.0926 1517.34 56.7681 1517.56C56.3486 1517.85 55.5677 1518.08 54.232 1518.08V1520.62ZM59.8712 1516.24C59.8712 1515.54 59.7545 1514.85 59.4366 1514.22C59.1112 1513.58 58.6161 1513.09 57.9932 1512.73C56.8211 1512.06 55.1815 1511.86 53.224 1511.86V1514.4C55.1305 1514.4 56.1789 1514.62 56.7288 1514.94C56.9669 1515.07 57.0913 1515.22 57.1701 1515.37C57.2565 1515.54 57.3288 1515.81 57.3288 1516.24H59.8712ZM53.224 1511.86H51.796V1514.4H53.224V1511.86ZM51.796 1511.86C49.5474 1511.86 47.8505 1511.96 46.1216 1512.57C44.4083 1513.18 42.763 1514.25 40.5182 1515.99L42.0738 1518C44.281 1516.29 45.6597 1515.43 46.9704 1514.97C48.2655 1514.51 49.5926 1514.4 51.796 1514.4V1511.86ZM40.5125 1515.99L32.7845 1522.04L34.3515 1524.04L42.0795 1518L40.5125 1515.99ZM32.7898 1522.04C30.2667 1523.99 28.0844 1525.21 25.8223 1525.95C23.5571 1526.69 21.14 1526.98 18.112 1526.98V1529.52C21.3 1529.52 24.0069 1529.22 26.6137 1528.37C29.2236 1527.51 31.6613 1526.13 34.3462 1524.05L32.7898 1522.04ZM18.112 1526.98H16.096V1529.52H18.112V1526.98ZM16.096 1526.98C12.1373 1526.98 9.46761 1525.98 7.78165 1524.31C6.0979 1522.65 5.18723 1520.11 5.18723 1516.58H2.64476C2.64476 1520.52 3.66609 1523.82 5.99334 1526.12C8.31838 1528.42 11.7387 1529.52 16.096 1529.52V1526.98ZM5.18723 1516.58V1514.81H2.64476L2.64476 1516.58H5.18723ZM5.18723 1514.81C5.18723 1511.06 6.01819 1508.76 7.44738 1507.38C8.88436 1505.98 11.1907 1505.25 14.752 1505.25V1502.7C10.9213 1502.7 7.80964 1503.48 5.67661 1505.55C3.5358 1507.63 2.64476 1510.75 2.64476 1514.81H5.18723ZM14.752 1505.25H25V1502.7H14.752V1505.25ZM23.7288 1503.98V1513.13H26.2712V1503.98H23.7288ZM25 1511.86H16.012V1514.4H25V1511.86ZM16.012 1511.86C14.9407 1511.86 13.7118 1511.95 12.7327 1512.53C12.2106 1512.84 11.7669 1513.27 11.4653 1513.87C11.17 1514.45 11.0448 1515.11 11.0448 1515.82H13.5872C13.5872 1515.4 13.6615 1515.16 13.731 1515.02C13.7943 1514.9 13.8809 1514.8 14.0203 1514.72C14.3642 1514.52 14.9833 1514.4 16.012 1514.4V1511.86ZM11.0448 1515.82C11.0448 1516.51 11.1527 1517.18 11.444 1517.77C11.7452 1518.38 12.2043 1518.84 12.772 1519.16C13.8173 1519.75 15.2208 1519.86 16.684 1519.86V1517.32C15.2072 1517.32 14.4267 1517.18 14.023 1516.95C13.8662 1516.86 13.7845 1516.77 13.7261 1516.65C13.6578 1516.51 13.5872 1516.26 13.5872 1515.82H11.0448ZM16.684 1519.86H17.86V1517.32H16.684V1519.86ZM17.86 1519.86C19.7142 1519.86 21.2535 1519.69 22.8937 1519.04C24.5028 1518.41 26.129 1517.35 28.215 1515.73L26.657 1513.72C24.627 1515.3 23.2292 1516.17 21.9613 1516.67C20.7245 1517.16 19.5338 1517.32 17.86 1517.32V1519.86ZM28.2142 1515.73L36.0262 1509.68L34.4698 1507.67L26.6578 1513.72L28.2142 1515.73ZM36.0253 1509.69C38.7639 1507.57 40.8257 1506.26 43.0152 1505.45C45.1945 1504.65 47.5915 1504.32 51.04 1504.32V1501.78C47.4325 1501.78 44.7055 1502.12 42.1388 1503.07C39.5823 1504 37.2761 1505.51 34.4707 1507.67L36.0253 1509.69ZM51.04 1504.32H53.056V1501.78H51.04V1504.32ZM53.056 1504.32C57.4785 1504.32 60.802 1505.28 62.9988 1507.05C65.1488 1508.79 66.4008 1511.46 66.4008 1515.32H68.9432C68.9432 1510.86 67.4652 1507.39 64.5962 1505.08C61.774 1502.8 57.7895 1501.78 53.056 1501.78V1504.32ZM66.4008 1515.32V1517.16H68.9432V1515.32H66.4008Z" fill="black" mask="url(#path-1-outside-1_7702_12884)"/>
<path d="M72 1429.54C72 1426.04 68.7182 1423.34 64.0442 1423.34C61.7569 1423.34 58.0773 1424.24 52.9061 1425.94C47.7348 1427.64 42.9613 1428.54 38.6851 1428.54H37.3923C40.1768 1424.14 42.4641 1421.14 44.0552 1419.74C47.337 1416.84 56.6851 1409.24 56.6851 1403.34C56.6851 1399.84 54.1989 1397.44 51.2155 1397.44C49.5249 1397.44 48.0331 1398.14 46.5414 1399.54C43.6575 1402.34 42.2652 1408.54 40.674 1415.84C39.8784 1419.54 38.3867 1423.44 36 1427.74C33.6133 1423.34 32.0221 1419.34 31.2265 1415.54C30.4309 1411.84 29.6354 1408.54 28.7403 1405.74C26.8508 1399.94 23.9669 1397.44 20.5856 1397.44C17.5028 1397.44 15.3149 1399.84 15.3149 1403.04C15.3149 1405.04 15.9116 1406.94 17.2044 1408.84C18.3978 1410.64 21.5801 1413.94 26.7514 1418.64C31.4254 1423.54 31.0276 1422.84 34.6077 1428.54C29.8343 1428.54 24.7624 1427.64 19.4917 1425.84C14.221 1424.04 10.3425 1423.14 7.9558 1423.14C3.18232 1423.14 0 1425.84 0 1429.34C0 1432.94 3.38121 1435.54 7.9558 1435.54C11.4365 1435.54 18.895 1433.04 23.6685 1431.44C26.0552 1430.64 29.337 1430.34 33.3149 1430.34H34.6077C32.221 1434.34 29.7348 1437.44 27.2486 1439.64C22.2762 1444.04 15.3149 1450.24 15.3149 1455.54C15.3149 1459.04 17.6022 1461.44 20.5856 1461.44C22.2762 1461.44 23.8674 1460.74 25.3591 1459.44C28.3425 1456.84 29.6354 1450.84 31.2265 1443.34C32.0221 1439.54 33.6133 1435.44 36 1431.14C38.3867 1435.34 39.9779 1439.34 40.674 1442.94C41.3702 1446.64 42.2652 1449.94 43.0608 1452.84C44.6519 1458.74 47.9337 1461.44 51.2155 1461.44C54.1989 1461.44 56.6851 1458.84 56.6851 1455.64C56.6851 1450.44 51.2155 1445.54 45.6464 1440.54C42.8619 1438.04 40.0773 1434.74 37.3923 1430.34C42.5635 1430.34 47.5359 1431.24 52.7072 1433.04C57.779 1434.84 61.558 1435.74 64.0442 1435.74C68.5193 1435.74 72 1433.24 72 1429.54Z" fill="black"/>
<mask id="path-4-outside-2_7702_12884" maskUnits="userSpaceOnUse" x="2" y="1163.76" width="68" height="194" fill="black">
<rect fill="white" x="2" y="1163.76" width="68" height="194"/>
<path d="M39.448 1355.66V1346.34H54.82C57.004 1346.34 58.264 1345.84 58.264 1344.07V1343.74C58.264 1341.97 56.752 1341.55 54.82 1341.55H4.504L4.504 1331.89H55.576C63.724 1331.89 67.504 1336.09 67.504 1342.64V1345.25C67.504 1351.38 64.732 1355.66 56.164 1355.66H39.448ZM39.448 1329.33V1320.01H54.82C57.004 1320.01 58.264 1319.5 58.264 1317.74V1317.4C58.264 1315.64 56.752 1315.22 54.82 1315.22H4.504L4.504 1305.56H55.576C63.724 1305.56 67.504 1309.76 67.504 1316.31V1318.92C67.504 1325.05 64.732 1329.33 56.164 1329.33H39.448ZM67.672 1282.8C67.672 1290.36 63.556 1294.39 55.828 1294.39H43.312V1284.98H54.232C57.088 1284.98 58.6 1284.06 58.6 1281.87C58.6 1279.61 57.088 1278.77 53.224 1278.77H51.796C47.344 1278.77 45.748 1279.19 41.296 1282.63L33.568 1288.68C28.36 1292.71 24.328 1293.89 18.112 1293.89H16.096C7.78 1293.89 3.916 1289.69 3.916 1282.21V1280.45C3.916 1272.63 7.36 1269.61 14.752 1269.61H25L25 1278.77H16.012C13.912 1278.77 12.316 1279.19 12.316 1281.45C12.316 1283.72 13.744 1284.23 16.684 1284.23H17.86C21.388 1284.23 23.32 1283.55 27.436 1280.36L35.248 1274.31C40.792 1270.03 43.984 1268.69 51.04 1268.69H53.056C62.212 1268.69 67.672 1272.63 67.672 1280.95V1282.8ZM67 1265.99H4.504L4.504 1256.5H29.536V1250.03H4.504L4.504 1240.54H67V1250.03H39.532V1256.5H67V1265.99ZM3.916 1225.1V1223.51C3.916 1214.27 9.628 1211.33 18.196 1211.33H53.056C61.792 1211.33 67.756 1214.27 67.756 1223.42V1225.02C67.756 1234.09 61.792 1237.28 53.056 1237.28H18.28C9.628 1237.28 3.916 1234.01 3.916 1225.1ZM17.776 1220.99C14.5 1220.99 12.988 1222.08 12.988 1224.26C12.988 1226.7 14.584 1227.62 17.776 1227.62H53.728C56.416 1227.62 58.516 1226.87 58.516 1224.18C58.516 1221.66 56.416 1220.99 53.728 1220.99H17.776ZM67 1192.02V1202.52L4.504 1210.33L4.504 1200.76L44.908 1196.47L4.504 1192.27L4.504 1183.45L44.908 1179.08L4.504 1174.8V1165.9L67 1173.88L67 1184.04L30.628 1187.99L67 1192.02Z"/>
</mask>
<path d="M39.448 1355.66H38.1768V1356.94H39.448V1355.66ZM39.448 1346.34V1345.07H38.1768V1346.34H39.448ZM4.504 1341.55H3.23276V1342.82H4.504V1341.55ZM4.504 1331.89V1330.62H3.23276V1331.89H4.504ZM40.7192 1355.66V1346.34H38.1768V1355.66H40.7192ZM39.448 1347.61H54.82V1345.07H39.448V1347.61ZM54.82 1347.61C55.9501 1347.61 57.1071 1347.49 58.0064 1346.96C58.4866 1346.68 58.8904 1346.28 59.1629 1345.75C59.4299 1345.24 59.5352 1344.66 59.5352 1344.07H56.9928C56.9928 1344.36 56.9406 1344.52 56.9031 1344.59C56.8711 1344.65 56.8234 1344.71 56.7156 1344.77C56.4389 1344.94 55.8739 1345.07 54.82 1345.07V1347.61ZM59.5352 1344.07V1343.74H56.9928V1344.07H59.5352ZM59.5352 1343.74C59.5352 1343.11 59.3994 1342.52 59.0885 1342C58.7767 1341.48 58.3372 1341.11 57.8578 1340.86C56.951 1340.38 55.8267 1340.28 54.82 1340.28V1342.82C55.7453 1342.82 56.343 1342.93 56.6752 1343.11C56.8153 1343.18 56.8745 1343.25 56.9066 1343.3C56.9396 1343.36 56.9928 1343.48 56.9928 1343.74H59.5352ZM54.82 1340.28H4.504V1342.82H54.82V1340.28ZM5.77523 1341.55L5.77523 1331.89H3.23276L3.23276 1341.55H5.77523ZM4.504 1333.16H55.576V1330.62H4.504V1333.16ZM55.576 1333.16C59.4434 1333.16 62.0663 1334.16 63.719 1335.73C65.363 1337.3 66.2328 1339.61 66.2328 1342.64H68.7752C68.7752 1339.13 67.755 1336.06 65.472 1333.89C63.1977 1331.73 59.8566 1330.62 55.576 1330.62V1333.16ZM66.2328 1342.64V1345.25H68.7752V1342.64H66.2328ZM66.2328 1345.25C66.2328 1348.15 65.5751 1350.37 64.1299 1351.88C62.6934 1353.37 60.2532 1354.39 56.164 1354.39V1356.94C60.6428 1356.94 63.8726 1355.81 65.9641 1353.64C68.0469 1351.47 68.7752 1348.48 68.7752 1345.25H66.2328ZM56.164 1354.39H39.448V1356.94H56.164V1354.39ZM39.448 1329.33H38.1768V1330.6H39.448V1329.33ZM39.448 1320.01V1318.74H38.1768V1320.01H39.448ZM4.504 1315.22H3.23276V1316.49H4.504V1315.22ZM4.504 1305.56V1304.29H3.23276V1305.56H4.504ZM40.7192 1329.33V1320.01H38.1768V1329.33H40.7192ZM39.448 1321.28H54.82V1318.74H39.448V1321.28ZM54.82 1321.28C55.9501 1321.28 57.1071 1321.16 58.0064 1320.63C58.4866 1320.35 58.8904 1319.95 59.1629 1319.42C59.4299 1318.9 59.5352 1318.33 59.5352 1317.74H56.9928C56.9928 1318.03 56.9406 1318.18 56.9031 1318.26C56.8711 1318.32 56.8234 1318.38 56.7156 1318.44C56.4389 1318.6 55.8739 1318.74 54.82 1318.74V1321.28ZM59.5352 1317.74V1317.4H56.9928V1317.74H59.5352ZM59.5352 1317.4C59.5352 1316.78 59.3994 1316.19 59.0885 1315.67C58.7767 1315.15 58.3372 1314.78 57.8578 1314.53C56.951 1314.05 55.8267 1313.95 54.82 1313.95V1316.49C55.7453 1316.49 56.343 1316.6 56.6752 1316.78C56.8153 1316.85 56.8745 1316.92 56.9066 1316.97C56.9396 1317.03 56.9928 1317.15 56.9928 1317.4H59.5352ZM54.82 1313.95H4.504V1316.49H54.82V1313.95ZM5.77523 1315.22L5.77523 1305.56H3.23276L3.23276 1315.22H5.77523ZM4.504 1306.83H55.576V1304.29H4.504L4.504 1306.83ZM55.576 1306.83C59.4434 1306.83 62.0663 1307.83 63.719 1309.4C65.363 1310.97 66.2328 1313.28 66.2328 1316.31H68.7752C68.7752 1312.79 67.755 1309.73 65.472 1307.56C63.1977 1305.39 59.8566 1304.29 55.576 1304.29V1306.83ZM66.2328 1316.31V1318.92H68.7752V1316.31H66.2328ZM66.2328 1318.92C66.2328 1321.82 65.5751 1324.04 64.1299 1325.54C62.6934 1327.04 60.2532 1328.06 56.164 1328.06V1330.6C60.6428 1330.6 63.8726 1329.48 65.9641 1327.3C68.0469 1325.13 68.7752 1322.15 68.7752 1318.92H66.2328ZM56.164 1328.06H39.448V1330.6H56.164V1328.06ZM43.312 1294.39H42.0408V1295.66H43.312V1294.39ZM43.312 1284.98V1283.71H42.0408V1284.98H43.312ZM41.296 1282.63L40.5182 1281.62L40.5125 1281.63L41.296 1282.63ZM33.568 1288.68L34.3462 1289.68L34.3515 1289.68L33.568 1288.68ZM25 1269.61H26.2712V1268.34H25V1269.61ZM25 1278.77V1280.04H26.2712V1278.77H25ZM27.436 1280.36L26.6578 1279.36L26.657 1279.36L27.436 1280.36ZM35.248 1274.31L34.4707 1273.31L34.4698 1273.31L35.248 1274.31ZM66.4008 1282.8C66.4008 1286.35 65.4363 1288.88 63.7587 1290.52C62.0767 1292.17 59.4825 1293.12 55.828 1293.12V1295.66C59.9015 1295.66 63.2293 1294.6 65.5373 1292.34C67.8497 1290.07 68.9432 1286.8 68.9432 1282.8H66.4008ZM55.828 1293.12H43.312V1295.66H55.828V1293.12ZM44.5832 1294.39V1284.98H42.0408V1294.39H44.5832ZM43.312 1286.25H54.232V1283.71H43.312V1286.25ZM54.232 1286.25C55.7523 1286.25 57.1554 1286.01 58.2059 1285.29C59.3514 1284.51 59.8712 1283.3 59.8712 1281.87H57.3288C57.3288 1282.63 57.0926 1282.98 56.7681 1283.2C56.3486 1283.49 55.5677 1283.71 54.232 1283.71V1286.25ZM59.8712 1281.87C59.8712 1281.17 59.7545 1280.48 59.4366 1279.85C59.1112 1279.21 58.6161 1278.72 57.9932 1278.37C56.8211 1277.69 55.1815 1277.49 53.224 1277.49V1280.04C55.1305 1280.04 56.1789 1280.26 56.7288 1280.57C56.9669 1280.71 57.0913 1280.85 57.1701 1281.01C57.2565 1281.18 57.3288 1281.44 57.3288 1281.87H59.8712ZM53.224 1277.49H51.796V1280.04H53.224V1277.49ZM51.796 1277.49C49.5474 1277.49 47.8505 1277.59 46.1216 1278.21C44.4083 1278.81 42.763 1279.89 40.5182 1281.62L42.0738 1283.63C44.281 1281.93 45.6597 1281.07 46.9704 1280.6C48.2655 1280.15 49.5926 1280.04 51.796 1280.04V1277.49ZM40.5125 1281.63L32.7845 1287.68L34.3515 1289.68L42.0795 1283.63L40.5125 1281.63ZM32.7898 1287.67C30.2667 1289.63 28.0844 1290.84 25.8223 1291.59C23.5571 1292.33 21.14 1292.61 18.112 1292.61V1295.16C21.3 1295.16 24.0069 1294.86 26.6137 1294C29.2236 1293.15 31.6613 1291.76 34.3462 1289.68L32.7898 1287.67ZM18.112 1292.61H16.096V1295.16H18.112V1292.61ZM16.096 1292.61C12.1373 1292.61 9.46761 1291.62 7.78165 1289.95C6.0979 1288.28 5.18723 1285.74 5.18723 1282.21H2.64476C2.64476 1286.15 3.66609 1289.45 5.99334 1291.75C8.31838 1294.05 11.7387 1295.16 16.096 1295.16V1292.61ZM5.18723 1282.21V1280.45H2.64476L2.64476 1282.21H5.18723ZM5.18723 1280.45C5.18723 1276.69 6.01819 1274.4 7.44738 1273.01C8.88436 1271.62 11.1907 1270.88 14.752 1270.88V1268.34C10.9213 1268.34 7.80964 1269.12 5.67661 1271.19C3.5358 1273.26 2.64476 1276.39 2.64476 1280.45H5.18723ZM14.752 1270.88H25L25 1268.34H14.752V1270.88ZM23.7288 1269.61L23.7288 1278.77H26.2712L26.2712 1269.61H23.7288ZM25 1277.49H16.012V1280.04H25V1277.49ZM16.012 1277.49C14.9407 1277.49 13.7118 1277.59 12.7327 1278.16C12.2106 1278.47 11.7669 1278.91 11.4653 1279.5C11.17 1280.08 11.0448 1280.74 11.0448 1281.45H13.5872C13.5872 1281.03 13.6615 1280.79 13.731 1280.65C13.7943 1280.53 13.8809 1280.44 14.0203 1280.35C14.3642 1280.15 14.9833 1280.04 16.012 1280.04V1277.49ZM11.0448 1281.45C11.0448 1282.15 11.1527 1282.81 11.444 1283.4C11.7452 1284.02 12.2043 1284.48 12.772 1284.8C13.8173 1285.39 15.2208 1285.5 16.684 1285.5L16.684 1282.95C15.2072 1282.95 14.4267 1282.81 14.023 1282.58C13.8662 1282.49 13.7845 1282.4 13.7261 1282.28C13.6578 1282.14 13.5872 1281.89 13.5872 1281.45H11.0448ZM16.684 1285.5H17.86L17.86 1282.95H16.684L16.684 1285.5ZM17.86 1285.5C19.7142 1285.5 21.2535 1285.32 22.8937 1284.67C24.5028 1284.04 26.129 1282.98 28.215 1281.37L26.657 1279.36C24.627 1280.93 23.2292 1281.81 21.9613 1282.31C20.7245 1282.79 19.5338 1282.95 17.86 1282.95L17.86 1285.5ZM28.2142 1281.37L36.0262 1275.32L34.4698 1273.31L26.6578 1279.36L28.2142 1281.37ZM36.0253 1275.32C38.7639 1273.2 40.8257 1271.89 43.0152 1271.09C45.1945 1270.29 47.5915 1269.96 51.04 1269.96V1267.41C47.4325 1267.41 44.7055 1267.76 42.1388 1268.7C39.5823 1269.64 37.2761 1271.14 34.4707 1273.31L36.0253 1275.32ZM51.04 1269.96H53.056V1267.41H51.04V1269.96ZM53.056 1269.96C57.4785 1269.96 60.802 1270.91 62.9988 1272.69C65.1488 1274.42 66.4008 1277.09 66.4008 1280.95H68.9432C68.9432 1276.49 67.4652 1273.03 64.5962 1270.71C61.774 1268.43 57.7895 1267.41 53.056 1267.41V1269.96ZM66.4008 1280.95V1282.8H68.9432V1280.95H66.4008ZM67 1265.99V1267.26H68.2712V1265.99H67ZM4.504 1265.99H3.23276V1267.26H4.504V1265.99ZM4.504 1256.5V1255.23H3.23276V1256.5H4.504ZM29.536 1256.5V1257.77H30.8072V1256.5H29.536ZM29.536 1250.03H30.8072V1248.76H29.536V1250.03ZM4.504 1250.03H3.23276V1251.3H4.504V1250.03ZM4.504 1240.54V1239.27H3.23276V1240.54H4.504ZM67 1240.54H68.2712V1239.27H67V1240.54ZM67 1250.03V1251.3H68.2712V1250.03H67ZM39.532 1250.03V1248.76H38.2608V1250.03H39.532ZM39.532 1256.5H38.2608V1257.77H39.532V1256.5ZM67 1256.5H68.2712V1255.23H67V1256.5ZM67 1264.72H4.504V1267.26H67V1264.72ZM5.77523 1265.99L5.77523 1256.5H3.23276L3.23276 1265.99H5.77523ZM4.504 1257.77H29.536V1255.23H4.504V1257.77ZM30.8072 1256.5V1250.03H28.2648V1256.5H30.8072ZM29.536 1248.76H4.504V1251.3H29.536V1248.76ZM5.77523 1250.03L5.77523 1240.54H3.23276L3.23276 1250.03H5.77523ZM4.504 1241.81H67V1239.27H4.504V1241.81ZM65.7288 1240.54V1250.03H68.2712V1240.54H65.7288ZM67 1248.76H39.532V1251.3H67V1248.76ZM38.2608 1250.03V1256.5H40.8032V1250.03H38.2608ZM39.532 1257.77H67V1255.23H39.532V1257.77ZM65.7288 1256.5V1265.99H68.2712V1256.5H65.7288ZM5.18723 1225.1V1223.51H2.64476V1225.1H5.18723ZM5.18723 1223.51C5.18723 1219.17 6.51329 1216.55 8.60982 1214.97C10.7803 1213.32 14.0134 1212.6 18.196 1212.6V1210.06C13.8106 1210.06 9.90374 1210.8 7.07617 1212.94C4.1747 1215.13 2.64476 1218.61 2.64476 1223.51H5.18723ZM18.196 1212.6H53.056V1210.06H18.196V1212.6ZM53.056 1212.6C57.3251 1212.6 60.6742 1213.33 62.934 1214.97C65.1122 1216.55 66.4848 1219.15 66.4848 1223.42H69.0272C69.0272 1218.54 67.4178 1215.09 64.43 1212.91C61.5238 1210.8 57.5229 1210.06 53.056 1210.06V1212.6ZM66.4848 1223.42V1225.02H69.0272V1223.42H66.4848ZM66.4848 1225.02C66.4848 1229.25 65.1128 1231.9 62.9206 1233.54C60.6571 1235.23 57.3077 1236.01 53.056 1236.01V1238.55C57.5403 1238.55 61.5409 1237.74 64.4434 1235.57C67.4172 1233.35 69.0272 1229.86 69.0272 1225.02H66.4848ZM53.056 1236.01H18.28V1238.55H53.056V1236.01ZM18.28 1236.01C14.0776 1236.01 10.8176 1235.21 8.62899 1233.53C6.50462 1231.89 5.18723 1229.26 5.18723 1225.1H2.64476C2.64476 1229.85 4.18338 1233.31 7.078 1235.54C9.9084 1237.72 13.8304 1238.55 18.28 1238.55V1236.01ZM17.776 1219.72C16.0399 1219.72 14.5315 1220 13.4292 1220.76C12.2358 1221.59 11.7168 1222.84 11.7168 1224.26H14.2592C14.2592 1223.5 14.4962 1223.12 14.8778 1222.85C15.3505 1222.52 16.2361 1222.26 17.776 1222.26V1219.72ZM11.7168 1224.26C11.7168 1225.79 12.244 1227.09 13.4766 1227.91C14.5969 1228.66 16.1108 1228.89 17.776 1228.89V1226.35C16.2492 1226.35 15.3691 1226.12 14.8934 1225.8C14.53 1225.56 14.2592 1225.17 14.2592 1224.26H11.7168ZM17.776 1228.89H53.728V1226.35H17.776V1228.89ZM53.728 1228.89C55.145 1228.89 56.6286 1228.7 57.7918 1227.99C59.068 1227.22 59.7872 1225.92 59.7872 1224.18H57.2448C57.2448 1225.12 56.914 1225.55 56.4682 1225.82C55.9094 1226.16 54.999 1226.35 53.728 1226.35V1228.89ZM59.7872 1224.18C59.7872 1223.37 59.6173 1222.63 59.2492 1221.99C58.8797 1221.34 58.3524 1220.87 57.752 1220.53C56.5982 1219.88 55.1298 1219.72 53.728 1219.72V1222.26C55.0142 1222.26 55.9398 1222.43 56.508 1222.75C56.7686 1222.89 56.9343 1223.06 57.0426 1223.25C57.1522 1223.44 57.2448 1223.73 57.2448 1224.18H59.7872ZM53.728 1219.72H17.776V1222.26H53.728V1219.72ZM67 1192.02H68.2712V1190.88L67.1401 1190.76L67 1192.02ZM67 1202.52L67.1577 1203.78L68.2712 1203.64V1202.52H67ZM4.504 1210.33H3.23276V1211.77L4.66168 1211.59L4.504 1210.33ZM4.504 1200.76L4.36996 1199.49L3.23276 1199.61V1200.76H4.504ZM44.908 1196.47L45.042 1197.74L45.0394 1195.21L44.908 1196.47ZM4.504 1192.27H3.23276V1193.42L4.37256 1193.54L4.504 1192.27ZM4.504 1183.45L4.36736 1182.19L3.23276 1182.31V1183.45H4.504ZM44.908 1179.08L45.0446 1180.35L45.042 1177.82L44.908 1179.08ZM4.504 1174.8H3.23276V1175.94L4.36996 1176.06L4.504 1174.8ZM4.504 1165.9L4.66501 1164.64L3.23276 1164.45V1165.9H4.504ZM67 1173.88H68.2712V1172.76L67.161 1172.62L67 1173.88ZM67 1184.04L67.1372 1185.3L68.2712 1185.18V1184.04H67ZM30.628 1187.99L30.4908 1186.72L30.4879 1189.25L30.628 1187.99ZM65.7288 1192.02V1202.52H68.2712V1192.02H65.7288ZM66.8423 1201.26L4.34632 1209.07L4.66168 1211.59L67.1577 1203.78L66.8423 1201.26ZM5.77523 1210.33L5.77523 1200.76H3.23276L3.23276 1210.33H5.77523ZM4.63803 1202.02L45.042 1197.74L44.774 1195.21L4.36996 1199.49L4.63803 1202.02ZM45.0394 1195.21L4.63544 1191.01L4.37256 1193.54L44.7766 1197.74L45.0394 1195.21ZM5.77523 1192.27L5.77523 1183.45H3.23276L3.23276 1192.27H5.77523ZM4.64063 1184.72L45.0446 1180.35L44.7714 1177.82L4.36736 1182.19L4.64063 1184.72ZM45.042 1177.82L4.63803 1173.54L4.36996 1176.06L44.774 1180.35L45.042 1177.82ZM5.77523 1174.8L5.77523 1165.9H3.23276L3.23276 1174.8H5.77523ZM4.34298 1167.16L66.839 1175.14L67.161 1172.62L4.66501 1164.64L4.34298 1167.16ZM65.7288 1173.88L65.7288 1184.04H68.2712L68.2712 1173.88H65.7288ZM66.8628 1182.78L30.4908 1186.72L30.7652 1189.25L67.1372 1185.3L66.8628 1182.78ZM30.4879 1189.25L66.8599 1193.28L67.1401 1190.76L30.7681 1186.73L30.4879 1189.25Z" fill="black" mask="url(#path-4-outside-2_7702_12884)"/>
<path d="M72 1093.18C72 1089.68 68.7182 1086.98 64.0442 1086.98C61.7569 1086.98 58.0773 1087.88 52.9061 1089.58C47.7348 1091.28 42.9613 1092.18 38.6851 1092.18H37.3923C40.1768 1087.78 42.4641 1084.78 44.0552 1083.38C47.337 1080.48 56.6851 1072.88 56.6851 1066.98C56.6851 1063.48 54.1989 1061.08 51.2155 1061.08C49.5249 1061.08 48.0331 1061.78 46.5414 1063.18C43.6575 1065.98 42.2652 1072.18 40.674 1079.48C39.8784 1083.18 38.3867 1087.08 36 1091.38C33.6133 1086.98 32.0221 1082.98 31.2265 1079.18C30.4309 1075.48 29.6354 1072.18 28.7403 1069.38C26.8508 1063.58 23.9669 1061.08 20.5856 1061.08C17.5028 1061.08 15.3149 1063.48 15.3149 1066.68C15.3149 1068.68 15.9116 1070.58 17.2044 1072.48C18.3978 1074.28 21.5801 1077.58 26.7514 1082.28C31.4254 1087.18 31.0276 1086.48 34.6077 1092.18C29.8343 1092.18 24.7624 1091.28 19.4917 1089.48C14.221 1087.68 10.3425 1086.78 7.9558 1086.78C3.18232 1086.78 0 1089.48 0 1092.98C0 1096.58 3.38121 1099.18 7.9558 1099.18C11.4365 1099.18 18.895 1096.68 23.6685 1095.08C26.0552 1094.28 29.337 1093.98 33.3149 1093.98H34.6077C32.221 1097.98 29.7348 1101.08 27.2486 1103.28C22.2762 1107.68 15.3149 1113.88 15.3149 1119.18C15.3149 1122.68 17.6022 1125.08 20.5856 1125.08C22.2762 1125.08 23.8674 1124.38 25.3591 1123.08C28.3425 1120.48 29.6354 1114.48 31.2265 1106.98C32.0221 1103.18 33.6133 1099.08 36 1094.78C38.3867 1098.98 39.9779 1102.98 40.674 1106.58C41.3702 1110.28 42.2652 1113.58 43.0608 1116.48C44.6519 1122.38 47.9337 1125.08 51.2155 1125.08C54.1989 1125.08 56.6851 1122.48 56.6851 1119.28C56.6851 1114.08 51.2155 1109.18 45.6464 1104.18C42.8619 1101.68 40.0773 1098.38 37.3923 1093.98C42.5635 1093.98 47.5359 1094.88 52.7072 1096.68C57.779 1098.48 61.558 1099.38 64.0442 1099.38C68.5193 1099.38 72 1096.88 72 1093.18Z" fill="black"/>
<mask id="path-7-outside-3_7702_12884" maskUnits="userSpaceOnUse" x="3" y="816.398" width="66" height="204" fill="black">
<rect fill="white" x="3" y="816.398" width="66" height="204"/>
<path d="M67 1018.63H4.504L4.504 1003.68C4.504 995.786 8.62 993.686 14.668 993.686H24.244C29.452 993.686 31.972 995.954 32.896 998.39C33.736 995.87 35.836 992.93 42.052 992.93H55.576C62.212 992.93 67 995.87 67 1003.01V1018.63ZM12.988 1006.29V1009.14H29.2V1006.29C29.2 1003.77 27.436 1003.01 24.832 1003.01H16.936C14.416 1003.01 12.988 1003.68 12.988 1006.29ZM38.524 1006.29V1009.14H58.18V1006.29C58.18 1003.26 56.752 1002.59 53.98 1002.59H42.556C39.952 1002.59 38.524 1003.26 38.524 1006.29ZM4.504 980.513H67V990.005H4.504L4.504 980.513ZM12.988 967.47H30.208V964.95C30.208 962.346 28.528 961.506 25.756 961.506H17.02C14.332 961.506 12.988 962.094 12.988 964.95V967.47ZM39.112 967.47H67V976.962H4.504L4.504 961.59C4.504 955.29 7.192 952.098 14.164 952.098H25.252C30.46 952.098 32.476 954.534 33.232 956.214C34.156 954.114 35.836 952.098 40.036 952.098H61.96C64.48 952.098 65.656 951.594 66.58 951.174H67V960.582C66.328 961.002 65.236 961.506 61.876 961.506H43.06C40.288 961.506 39.112 962.01 39.112 965.034V967.47ZM67 942.431H13.576L13.576 950.411H4.504L4.504 925.043H13.576V933.023H67V942.431ZM67 922.657H4.504V913.165H29.536V906.697H4.504V897.205H67V906.697H39.532V913.165H67V922.657ZM67 893.7H4.504L4.504 879.168C4.504 871.02 9.124 868.5 16.516 868.5H54.568C62.212 868.5 67 871.356 67 879.168V893.7ZM12.988 884.208H57.928V881.94C57.928 879.084 56.416 878.244 53.056 878.244H17.86C14.248 878.244 12.988 879.168 12.988 881.52L12.988 884.208ZM45.916 851.955L22.816 854.475L45.916 856.911V851.955ZM67 849.687L55.24 850.947V857.835L67 859.095V867.579L4.504 859.935L4.504 848.679L67 840.531L67 849.687ZM67 836.048H40.96L4.504 844.616L4.504 835.376L27.772 831.008L4.504 826.808L4.504 818.24L41.044 826.556H67V836.048Z"/>
</mask>
<path d="M67 1018.63V1019.9H68.2712V1018.63H67ZM4.504 1018.63H3.23276V1019.9H4.504V1018.63ZM32.896 998.39L31.7074 998.84L32.9733 1002.18L34.102 998.792L32.896 998.39ZM12.988 1009.14H11.7168V1010.41H12.988V1009.14ZM29.2 1009.14V1010.41H30.4712V1009.14H29.2ZM38.524 1009.14H37.2528V1010.41H38.524V1009.14ZM58.18 1009.14V1010.41H59.4512V1009.14H58.18ZM67 1017.36H4.504V1019.9H67V1017.36ZM5.77523 1018.63L5.77523 1003.68H3.23276L3.23276 1018.63H5.77523ZM5.77523 1003.68C5.77523 999.941 6.74606 997.873 8.13965 996.693C9.57836 995.474 11.7448 994.957 14.668 994.957V992.414C11.5432 992.414 8.62764 992.947 6.49634 994.753C4.31994 996.596 3.23276 999.526 3.23276 1003.68H5.77523ZM14.668 994.957H24.244V992.414H14.668V994.957ZM24.244 994.957C29.0222 994.957 31.0033 996.984 31.7074 998.84L34.0846 997.939C32.9407 994.923 29.8818 992.414 24.244 992.414V994.957ZM34.102 998.792C34.4679 997.694 35.0805 996.582 36.2183 995.733C37.3547 994.885 39.1467 994.201 42.052 994.201V991.658C38.7413 991.658 36.3753 992.444 34.6977 993.696C33.0215 994.947 32.1641 996.565 31.69 997.988L34.102 998.792ZM42.052 994.201H55.576V991.658H42.052V994.201ZM55.576 994.201C58.7324 994.201 61.2625 994.903 62.9805 996.283C64.6511 997.625 65.7288 999.748 65.7288 1003.01H68.2712C68.2712 999.131 66.9549 996.214 64.5725 994.301C62.2375 992.426 59.0556 991.658 55.576 991.658V994.201ZM65.7288 1003.01V1018.63H68.2712V1003.01H65.7288ZM11.7168 1006.29V1009.14H14.2592V1006.29H11.7168ZM12.988 1010.41H29.2V1007.87H12.988V1010.41ZM30.4712 1009.14V1006.29H27.9288V1009.14H30.4712ZM30.4712 1006.29C30.4712 1004.68 29.8819 1003.42 28.6909 1002.64C27.608 1001.93 26.2077 1001.74 24.832 1001.74V1004.28C26.0603 1004.28 26.844 1004.47 27.2941 1004.76C27.6361 1004.99 27.9288 1005.37 27.9288 1006.29H30.4712ZM24.832 1001.74H16.936V1004.28H24.832V1001.74ZM16.936 1001.74C15.628 1001.74 14.2836 1001.9 13.2645 1002.65C12.1473 1003.47 11.7168 1004.75 11.7168 1006.29H14.2592C14.2592 1005.21 14.5427 1004.86 14.7695 1004.7C15.0944 1004.46 15.724 1004.28 16.936 1004.28V1001.74ZM37.2528 1006.29V1009.14H39.7952V1006.29H37.2528ZM38.524 1010.41H58.18V1007.87H38.524V1010.41ZM59.4512 1009.14V1006.29H56.9088V1009.14H59.4512ZM59.4512 1006.29C59.4512 1004.61 59.0548 1003.2 57.8989 1002.3C56.8305 1001.47 55.3901 1001.32 53.98 1001.32V1003.86C55.3419 1003.86 56.0015 1004.05 56.3401 1004.31C56.5912 1004.5 56.9088 1004.94 56.9088 1006.29H59.4512ZM53.98 1001.32H42.556V1003.86H53.98V1001.32ZM42.556 1001.32C41.2181 1001.32 39.8168 1001.47 38.7694 1002.31C37.6486 1003.21 37.2528 1004.61 37.2528 1006.29H39.7952C39.7952 1004.94 40.1134 1004.49 40.3576 1004.3C40.6752 1004.04 41.2899 1003.86 42.556 1003.86V1001.32ZM4.504 980.513V979.241H3.23276V980.513H4.504ZM67 980.513H68.2712V979.241H67V980.513ZM67 990.005V991.276H68.2712V990.005H67ZM4.504 990.005H3.23276V991.276H4.504V990.005ZM4.504 981.784H67V979.241H4.504V981.784ZM65.7288 980.513V990.005H68.2712V980.513H65.7288ZM67 988.733H4.504V991.276H67V988.733ZM5.77523 990.005L5.77523 980.513H3.23276L3.23276 990.005H5.77523ZM12.988 967.47H11.7168V968.741H12.988V967.47ZM30.208 967.47V968.741H31.4792V967.47H30.208ZM39.112 967.47H37.8408V968.741H39.112V967.47ZM67 967.47H68.2712V966.198H67V967.47ZM67 976.962V978.233H68.2712V976.962H67ZM4.504 976.962H3.23276V978.233H4.504V976.962ZM33.232 956.214L32.0727 956.735L33.2451 959.341L34.3956 956.726L33.232 956.214ZM66.58 951.174V949.902H66.3046L66.054 950.016L66.58 951.174ZM67 951.174H68.2712V949.902H67V951.174ZM67 960.582L67.6738 961.66L68.2712 961.286V960.582H67ZM12.988 968.741H30.208V966.198H12.988V968.741ZM31.4792 967.47V964.95H28.9368V967.47H31.4792ZM31.4792 964.95C31.4792 963.346 30.9402 962.041 29.7495 961.209C28.6573 960.446 27.2198 960.234 25.756 960.234V962.777C27.0642 962.777 27.8527 962.985 28.2935 963.293C28.6358 963.533 28.9368 963.949 28.9368 964.95H31.4792ZM25.756 960.234H17.02V962.777H25.756V960.234ZM17.02 960.234C15.6688 960.234 14.2712 960.361 13.2333 961.14C12.0917 961.996 11.7168 963.355 11.7168 964.95H14.2592C14.2592 963.688 14.5563 963.325 14.7587 963.174C15.0648 962.944 15.6832 962.777 17.02 962.777V960.234ZM11.7168 964.95V967.47H14.2592V964.95H11.7168ZM39.112 968.741H67V966.198H39.112V968.741ZM65.7288 967.47V976.962H68.2712V967.47H65.7288ZM67 975.69H4.504V978.233H67V975.69ZM5.77523 976.962L5.77523 961.59H3.23276L3.23276 976.962H5.77523ZM5.77523 961.59C5.77523 958.587 6.4203 956.611 7.63038 955.368C8.83428 954.131 10.8441 953.369 14.164 953.369V950.826C10.5119 950.826 7.69172 951.66 5.80862 953.594C3.9317 955.522 3.23276 958.292 3.23276 961.59H5.77523ZM14.164 953.369H25.252V950.826H14.164V953.369ZM25.252 953.369C27.652 953.369 29.2059 953.928 30.2146 954.589C31.2256 955.252 31.7749 956.073 32.0727 956.735L34.3913 955.692C33.9331 954.674 33.0964 953.438 31.6084 952.463C30.1181 951.486 28.06 950.826 25.252 950.826V953.369ZM34.3956 956.726C34.805 955.795 35.3373 954.986 36.1502 954.398C36.9528 953.818 38.1477 953.369 40.036 953.369V950.826C37.7243 950.826 35.9791 951.385 34.6608 952.338C33.3527 953.283 32.583 954.532 32.0684 955.702L34.3956 956.726ZM40.036 953.369H61.96V950.826H40.036V953.369ZM61.96 953.369C64.7073 953.369 66.0643 952.804 67.106 952.331L66.054 950.016C65.2477 950.383 64.2527 950.826 61.96 950.826V953.369ZM66.58 952.445H67V949.902H66.58V952.445ZM65.7288 951.174V960.582H68.2712V951.174H65.7288ZM66.3262 959.504C65.9288 959.752 65.1008 960.234 61.876 960.234L61.876 962.777C65.3712 962.777 66.7272 962.251 67.6738 961.66L66.3262 959.504ZM61.876 960.234H43.06L43.06 962.777H61.876L61.876 960.234ZM43.06 960.234C41.7064 960.234 40.2872 960.329 39.2604 961.137C38.1391 962.019 37.8408 963.428 37.8408 965.034H40.3832C40.3832 963.616 40.6729 963.26 40.8326 963.135C41.0868 962.935 41.6416 962.777 43.06 962.777L43.06 960.234ZM37.8408 965.034V967.47H40.3832V965.034H37.8408ZM67 942.431V943.702H68.2712V942.431H67ZM13.576 942.431V941.16H12.3048V942.431H13.576ZM13.576 950.411V951.682H14.8472V950.411H13.576ZM4.504 950.411H3.23276V951.682H4.504V950.411ZM4.504 925.043V923.772H3.23276L3.23276 925.043H4.504ZM13.576 925.043H14.8472V923.772H13.576V925.043ZM13.576 933.023H12.3048V934.294H13.576V933.023ZM67 933.023H68.2712V931.752H67V933.023ZM67 941.16H13.576V943.702H67V941.16ZM12.3048 942.431V950.411H14.8472L14.8472 942.431H12.3048ZM13.576 949.14H4.504V951.682H13.576V949.14ZM5.77523 950.411L5.77523 925.043H3.23276L3.23276 950.411H5.77523ZM4.504 926.314H13.576V923.772H4.504L4.504 926.314ZM12.3048 925.043L12.3048 933.023H14.8472V925.043H12.3048ZM13.576 934.294H67V931.752H13.576V934.294ZM65.7288 933.023V942.431H68.2712V933.023H65.7288ZM67 922.657V923.928H68.2712V922.657H67ZM4.504 922.657H3.23276V923.928H4.504V922.657ZM4.504 913.165L4.504 911.894H3.23276V913.165H4.504ZM29.536 913.165V914.436H30.8072V913.165H29.536ZM29.536 906.697H30.8072V905.426H29.536V906.697ZM4.504 906.697H3.23276V907.968H4.504V906.697ZM4.504 897.205L4.504 895.934H3.23276V897.205H4.504ZM67 897.205H68.2712V895.934H67V897.205ZM67 906.697V907.968H68.2712V906.697H67ZM39.532 906.697V905.426H38.2608V906.697H39.532ZM39.532 913.165H38.2608V914.436H39.532V913.165ZM67 913.165H68.2712V911.894H67V913.165ZM67 921.386H4.504V923.928H67V921.386ZM5.77523 922.657V913.165H3.23276L3.23276 922.657H5.77523ZM4.504 914.436H29.536V911.894H4.504L4.504 914.436ZM30.8072 913.165V906.697H28.2648V913.165H30.8072ZM29.536 905.426H4.504V907.968H29.536V905.426ZM5.77523 906.697V897.205H3.23276L3.23276 906.697H5.77523ZM4.504 898.476H67V895.934H4.504L4.504 898.476ZM65.7288 897.205V906.697H68.2712V897.205H65.7288ZM67 905.426H39.532V907.968H67V905.426ZM38.2608 906.697V913.165H40.8032V906.697H38.2608ZM39.532 914.436H67V911.894H39.532V914.436ZM65.7288 913.165V922.657H68.2712V913.165H65.7288ZM67 893.7V894.971H68.2712V893.7H67ZM4.504 893.7H3.23276V894.971H4.504V893.7ZM12.988 884.208H11.7168V885.479H12.988V884.208ZM57.928 884.208V885.479H59.1992V884.208H57.928ZM67 892.429H4.504V894.971H67V892.429ZM5.77523 893.7L5.77523 879.168H3.23276L3.23276 893.7H5.77523ZM5.77523 879.168C5.77523 875.336 6.85153 873.104 8.52783 871.775C10.2688 870.394 12.9174 869.771 16.516 869.771V867.229C12.7226 867.229 9.36521 867.866 6.94817 869.782C4.46647 871.75 3.23276 874.852 3.23276 879.168H5.77523ZM16.516 869.771H54.568V867.229H16.516V869.771ZM54.568 869.771C58.2705 869.771 61.039 870.47 62.8653 871.904C64.6297 873.29 65.7288 875.536 65.7288 879.168H68.2712C68.2712 874.988 66.9763 871.9 64.4357 869.905C61.957 867.958 58.5095 867.229 54.568 867.229V869.771ZM65.7288 879.168V893.7H68.2712V879.168H65.7288ZM12.988 885.479H57.928V882.937H12.988V885.479ZM59.1992 884.208V881.94H56.6568V884.208H59.1992ZM59.1992 881.94C59.1992 880.292 58.7523 878.883 57.4883 877.985C56.3428 877.171 54.7693 876.973 53.056 876.973V879.515C54.7027 879.515 55.5652 879.737 56.0157 880.057C56.3477 880.293 56.6568 880.732 56.6568 881.94H59.1992ZM53.056 876.973H17.86V879.515H53.056V876.973ZM17.86 876.973C16.0168 876.973 14.4572 877.194 13.3511 877.951C12.11 878.801 11.7168 880.109 11.7168 881.52H14.2592C14.2592 880.579 14.496 880.249 14.7879 880.049C15.2148 879.756 16.0912 879.515 17.86 879.515V876.973ZM11.7168 881.52L11.7168 884.208H14.2592V881.52H11.7168ZM45.916 851.955H47.1872V850.538L45.7781 850.692L45.916 851.955ZM22.816 854.475L22.6781 853.212L22.6827 855.739L22.816 854.475ZM45.916 856.911L45.7827 858.175L47.1872 858.324V856.911H45.916ZM67 849.687L67.1354 850.951L68.2712 850.83V849.687H67ZM55.24 850.947L55.1046 849.683L53.9688 849.805V850.947H55.24ZM55.24 857.835H53.9688V858.978L55.1046 859.099L55.24 857.835ZM67 859.095H68.2712V857.953L67.1354 857.831L67 859.095ZM67 867.579L66.8457 868.841L68.2712 869.015V867.579H67ZM4.504 859.935H3.23276V861.06L4.34966 861.197L4.504 859.935ZM4.504 848.679L4.33965 847.419L3.23276 847.563V848.679H4.504ZM67 840.531H68.2712V839.084L66.8357 839.271L67 840.531ZM45.7781 850.692L22.6781 853.212L22.9539 855.739L46.0539 853.219L45.7781 850.692ZM22.6827 855.739L45.7827 858.175L46.0493 855.647L22.9493 853.211L22.6827 855.739ZM47.1872 856.911V851.955H44.6448V856.911H47.1872ZM66.8646 848.423L55.1046 849.683L55.3754 852.211L67.1354 850.951L66.8646 848.423ZM53.9688 850.947V857.835H56.5112V850.947H53.9688ZM55.1046 859.099L66.8646 860.359L67.1354 857.831L55.3754 856.571L55.1046 859.099ZM65.7288 859.095V867.579H68.2712V859.095H65.7288ZM67.1543 866.317L4.65834 858.673L4.34966 861.197L66.8457 868.841L67.1543 866.317ZM5.77523 859.935L5.77523 848.679H3.23276L3.23276 859.935H5.77523ZM4.66835 849.94L67.1643 841.792L66.8357 839.271L4.33965 847.419L4.66835 849.94ZM65.7288 840.531L65.7288 849.687H68.2712L68.2712 840.531H65.7288ZM67 836.048V837.32H68.2712V836.048H67ZM40.96 836.048V834.777H40.8126L40.6692 834.811L40.96 836.048ZM4.504 844.616H3.23276V846.221L4.79484 845.854L4.504 844.616ZM4.504 835.376L4.26945 834.127L3.23276 834.322V835.376H4.504ZM27.772 831.008L28.0065 832.258L27.9978 829.757L27.772 831.008ZM4.504 826.808H3.23276V827.871L4.27818 828.059L4.504 826.808ZM4.504 818.24L4.7861 817.001L3.23276 816.647V818.24H4.504ZM41.044 826.556L40.7619 827.796L40.9012 827.828H41.044V826.556ZM67 826.556H68.2712V825.285H67V826.556ZM67 834.777H40.96V837.32H67V834.777ZM40.6692 834.811L4.21315 843.379L4.79484 845.854L41.2508 837.286L40.6692 834.811ZM5.77523 844.616L5.77523 835.376H3.23276L3.23276 844.616H5.77523ZM4.73854 836.626L28.0065 832.258L27.5375 829.759L4.26945 834.127L4.73854 836.626ZM27.9978 829.757L4.72981 825.557L4.27818 828.059L27.5462 832.259L27.9978 829.757ZM5.77523 826.808L5.77523 818.24H3.23276L3.23276 826.808H5.77523ZM4.2219 819.48L40.7619 827.796L41.3261 825.317L4.7861 817.001L4.2219 819.48ZM41.044 827.828H67V825.285H41.044V827.828ZM65.7288 826.556V836.048H68.2712V826.556H65.7288Z" fill="black" mask="url(#path-7-outside-3_7702_12884)"/>
<path d="M72 745.818C72 742.318 68.7182 739.618 64.0442 739.618C61.7569 739.618 58.0773 740.518 52.9061 742.218C47.7348 743.918 42.9613 744.818 38.6851 744.818H37.3923C40.1768 740.418 42.4641 737.418 44.0552 736.018C47.337 733.118 56.6851 725.518 56.6851 719.618C56.6851 716.118 54.1989 713.718 51.2155 713.718C49.5249 713.718 48.0331 714.418 46.5414 715.818C43.6575 718.618 42.2652 724.818 40.674 732.118C39.8784 735.818 38.3867 739.718 36 744.018C33.6133 739.618 32.0221 735.618 31.2265 731.818C30.4309 728.118 29.6354 724.818 28.7403 722.018C26.8508 716.218 23.9669 713.718 20.5856 713.718C17.5028 713.718 15.3149 716.118 15.3149 719.318C15.3149 721.318 15.9116 723.218 17.2044 725.118C18.3978 726.918 21.5801 730.218 26.7514 734.918C31.4254 739.818 31.0276 739.118 34.6077 744.818C29.8343 744.818 24.7624 743.918 19.4917 742.118C14.221 740.318 10.3425 739.418 7.9558 739.418C3.18232 739.418 0 742.118 0 745.618C0 749.218 3.38121 751.818 7.9558 751.818C11.4365 751.818 18.895 749.318 23.6685 747.718C26.0552 746.918 29.337 746.618 33.3149 746.618H34.6077C32.221 750.618 29.7348 753.718 27.2486 755.918C22.2762 760.318 15.3149 766.518 15.3149 771.818C15.3149 775.318 17.6022 777.718 20.5856 777.718C22.2762 777.718 23.8674 777.018 25.3591 775.718C28.3425 773.118 29.6354 767.118 31.2265 759.618C32.0221 755.818 33.6133 751.718 36 747.418C38.3867 751.618 39.9779 755.618 40.674 759.218C41.3702 762.918 42.2652 766.218 43.0608 769.118C44.6519 775.018 47.9337 777.718 51.2155 777.718C54.1989 777.718 56.6851 775.118 56.6851 771.918C56.6851 766.718 51.2155 761.818 45.6464 756.818C42.8619 754.318 40.0773 751.018 37.3923 746.618C42.5635 746.618 47.5359 747.518 52.7072 749.318C57.779 751.118 61.558 752.018 64.0442 752.018C68.5193 752.018 72 749.518 72 745.818Z" fill="black"/>
<mask id="path-10-outside-4_7702_12884" maskUnits="userSpaceOnUse" x="2" y="441.039" width="68" height="232" fill="black">
<rect fill="white" x="2" y="441.039" width="68" height="232"/>
<path d="M58.516 658.843C58.516 656.575 56.836 655.735 54.316 655.735H39.784V646.411H54.232C60.952 646.411 67.756 648.595 67.756 657.751V659.851C67.756 669.427 60.868 671.527 54.568 671.527H16.432C10.048 671.527 3.916 668.755 3.916 660.187V658.003C3.916 647.587 10.804 646.411 16.936 646.411H28.108V655.735H17.104C14.416 655.735 12.988 656.575 12.988 658.927C12.988 661.279 14.332 661.867 17.104 661.867H54.232C57.004 661.867 58.516 660.943 58.516 658.843ZM4.504 643.384L4.504 621.796H13.576L13.576 633.892H29.956V624.4H39.448V633.892H57.508V621.292H67V643.384H4.504ZM4.504 618.857V609.365H57.34V597.773H67V618.857H4.504ZM4.504 595.314L4.504 573.726H13.576V585.822H29.956V576.33H39.448V585.822H57.508V573.222H67V595.314H4.504ZM67 570.786H4.504L4.504 555.834C4.504 547.938 8.62 545.838 14.668 545.838H24.244C29.452 545.838 31.972 548.106 32.896 550.542C33.736 548.022 35.836 545.082 42.052 545.082H55.576C62.212 545.082 67 548.022 67 555.162V570.786ZM12.988 558.438V561.294H29.2V558.438C29.2 555.918 27.436 555.162 24.832 555.162H16.936C14.416 555.162 12.988 555.834 12.988 558.438ZM38.524 558.438V561.294H58.18V558.438C58.18 555.414 56.752 554.742 53.98 554.742H42.556C39.952 554.742 38.524 555.414 38.524 558.438ZM12.988 532.666H30.208V530.146C30.208 527.542 28.528 526.702 25.756 526.702H17.02C14.332 526.702 12.988 527.29 12.988 530.146V532.666ZM39.112 532.666H67V542.158H4.504L4.504 526.786C4.504 520.486 7.192 517.294 14.164 517.294H25.252C30.46 517.294 32.476 519.73 33.232 521.41C34.156 519.31 35.836 517.294 40.036 517.294H61.96C64.48 517.294 65.656 516.79 66.58 516.37H67V525.778C66.328 526.198 65.236 526.702 61.876 526.702H43.06C40.288 526.702 39.112 527.206 39.112 530.23V532.666ZM45.916 500.167L22.816 502.687L45.916 505.123V500.167ZM67 497.899L55.24 499.159V506.047L67 507.307V515.791L4.504 508.147L4.504 496.891L67 488.743V497.899ZM67 484.33H13.576L13.576 492.31H4.504L4.504 466.942H13.576V474.922H67V484.33ZM4.504 464.556L4.504 442.968H13.576V455.064H29.956V445.572H39.448V455.064H57.508V442.464H67V464.556H4.504Z"/>
</mask>
<path d="M39.784 655.735H38.5128V657.006H39.784V655.735ZM39.784 646.411V645.139H38.5128V646.411H39.784ZM28.108 646.411H29.3792V645.139H28.108V646.411ZM28.108 655.735V657.006H29.3792V655.735H28.108ZM59.7872 658.843C59.7872 657.345 59.2029 656.144 58.0696 655.383C57.0272 654.683 55.6767 654.463 54.316 654.463V657.006C55.4753 657.006 56.2248 657.207 56.6524 657.494C56.9891 657.72 57.2448 658.073 57.2448 658.843H59.7872ZM54.316 654.463H39.784V657.006H54.316V654.463ZM41.0552 655.735V646.411H38.5128V655.735H41.0552ZM39.784 647.682H54.232V645.139H39.784V647.682ZM54.232 647.682C57.4955 647.682 60.5767 648.22 62.8099 649.706C64.95 651.129 66.4848 653.539 66.4848 657.751H69.0272C69.0272 652.806 67.16 649.546 64.2181 647.589C61.3693 645.694 57.6885 645.139 54.232 645.139V647.682ZM66.4848 657.751V659.851H69.0272V657.751H66.4848ZM66.4848 659.851C66.4848 664.29 64.9152 666.784 62.8052 668.232C60.6074 669.74 57.6174 670.255 54.568 670.255V672.798C57.8186 672.798 61.4226 672.264 64.2438 670.328C67.1528 668.332 69.0272 664.988 69.0272 659.851H66.4848ZM54.568 670.255H16.432V672.798H54.568V670.255ZM16.432 670.255C13.3946 670.255 10.5764 669.592 8.54711 668.056C6.57738 666.565 5.18723 664.131 5.18723 660.187H2.64476C2.64476 664.811 4.32061 668.046 7.01288 670.083C9.64562 672.076 13.0854 672.798 16.432 672.798V670.255ZM5.18723 660.187V658.003H2.64476V660.187H5.18723ZM5.18723 658.003C5.18723 653.105 6.78126 650.674 8.81278 649.371C10.9676 647.989 13.8925 647.682 16.936 647.682V645.139C13.8475 645.139 10.2624 645.421 7.44021 647.231C4.49473 649.12 2.64476 652.484 2.64476 658.003H5.18723ZM16.936 647.682H28.108V645.139H16.936V647.682ZM26.8368 646.411V655.735H29.3792V646.411H26.8368ZM28.108 654.463H17.104V657.006H28.108V654.463ZM17.104 654.463C15.6793 654.463 14.3147 654.676 13.2903 655.421C12.1744 656.232 11.7168 657.476 11.7168 658.927H14.2592C14.2592 658.025 14.5156 657.673 14.7857 657.477C15.1473 657.214 15.8407 657.006 17.104 657.006V654.463ZM11.7168 658.927C11.7168 660.357 12.1447 661.589 13.3166 662.346C14.3377 663.006 15.7048 663.138 17.104 663.138V660.595C15.7312 660.595 15.0403 660.433 14.6964 660.211C14.5033 660.086 14.2592 659.848 14.2592 658.927H11.7168ZM17.104 663.138H54.232V660.595H17.104V663.138ZM54.232 663.138C55.7177 663.138 57.0939 662.898 58.1292 662.193C59.2552 661.426 59.7872 660.243 59.7872 658.843H57.2448C57.2448 659.542 57.0208 659.872 56.6978 660.092C56.2841 660.373 55.5183 660.595 54.232 660.595V663.138ZM4.504 643.384H3.23276V644.655H4.504V643.384ZM4.504 621.796V620.525H3.23276V621.796H4.504ZM13.576 621.796H14.8472V620.525H13.576V621.796ZM13.576 633.892H12.3048V635.163H13.576V633.892ZM29.956 633.892V635.163H31.2272V633.892H29.956ZM29.956 624.4V623.129H28.6848V624.4H29.956ZM39.448 624.4H40.7192V623.129H39.448V624.4ZM39.448 633.892H38.1768V635.163H39.448V633.892ZM57.508 633.892V635.163H58.7792V633.892H57.508ZM57.508 621.292V620.021H56.2368V621.292H57.508ZM67 621.292H68.2712V620.021H67V621.292ZM67 643.384V644.655H68.2712V643.384H67ZM5.77523 643.384L5.77523 621.796H3.23276L3.23276 643.384H5.77523ZM4.504 623.067H13.576V620.525H4.504L4.504 623.067ZM12.3048 621.796V633.892H14.8472L14.8472 621.796H12.3048ZM13.576 635.163H29.956V632.621H13.576V635.163ZM31.2272 633.892V624.4H28.6848V633.892H31.2272ZM29.956 625.671H39.448V623.129H29.956V625.671ZM38.1768 624.4V633.892H40.7192V624.4H38.1768ZM39.448 635.163H57.508V632.621H39.448V635.163ZM58.7792 633.892V621.292H56.2368V633.892H58.7792ZM57.508 622.563H67V620.021H57.508V622.563ZM65.7288 621.292V643.384H68.2712V621.292H65.7288ZM67 642.113H4.504V644.655H67V642.113ZM4.504 618.857H3.23276V620.128H4.504V618.857ZM4.504 609.365V608.093H3.23276V609.365H4.504ZM57.34 609.365V610.636H58.6112V609.365H57.34ZM57.34 597.773V596.501H56.0688V597.773H57.34ZM67 597.773H68.2712V596.501H67V597.773ZM67 618.857V620.128H68.2712V618.857H67ZM5.77523 618.857V609.365H3.23276L3.23276 618.857H5.77523ZM4.504 610.636H57.34V608.093H4.504V610.636ZM58.6112 609.365V597.773H56.0688V609.365H58.6112ZM57.34 599.044H67V596.501H57.34V599.044ZM65.7288 597.773V618.857H68.2712V597.773H65.7288ZM67 617.585H4.504V620.128H67V617.585ZM4.504 595.314H3.23276V596.585H4.504V595.314ZM4.504 573.726V572.455H3.23276V573.726H4.504ZM13.576 573.726H14.8472V572.455H13.576V573.726ZM13.576 585.822H12.3048V587.093H13.576V585.822ZM29.956 585.822L29.956 587.093H31.2272L31.2272 585.822H29.956ZM29.956 576.33V575.059H28.6848V576.33H29.956ZM39.448 576.33H40.7192V575.059H39.448V576.33ZM39.448 585.822H38.1768V587.093H39.448V585.822ZM57.508 585.822V587.093H58.7792V585.822H57.508ZM57.508 573.222V571.951H56.2368V573.222H57.508ZM67 573.222H68.2712V571.951H67V573.222ZM67 595.314V596.585H68.2712V595.314H67ZM5.77523 595.314L5.77523 573.726H3.23276L3.23276 595.314H5.77523ZM4.504 574.997H13.576V572.455H4.504V574.997ZM12.3048 573.726L12.3048 585.822H14.8472V573.726H12.3048ZM13.576 587.093H29.956L29.956 584.551H13.576V587.093ZM31.2272 585.822V576.33H28.6848V585.822H31.2272ZM29.956 577.601H39.448V575.059H29.956V577.601ZM38.1768 576.33V585.822H40.7192V576.33H38.1768ZM39.448 587.093H57.508V584.551H39.448V587.093ZM58.7792 585.822V573.222H56.2368V585.822H58.7792ZM57.508 574.493H67V571.951H57.508V574.493ZM65.7288 573.222V595.314H68.2712V573.222H65.7288ZM67 594.043H4.504V596.585H67V594.043ZM67 570.786V572.058H68.2712V570.786H67ZM4.504 570.786H3.23276V572.058H4.504V570.786ZM32.896 550.542L31.7074 550.993L32.9733 554.331L34.102 550.944L32.896 550.542ZM12.988 561.294H11.7168V562.566H12.988V561.294ZM29.2 561.294V562.566H30.4712V561.294H29.2ZM38.524 561.294H37.2528V562.566H38.524V561.294ZM58.18 561.294V562.566H59.4512V561.294H58.18ZM67 569.515H4.504V572.058H67V569.515ZM5.77523 570.786L5.77523 555.834H3.23276L3.23276 570.786H5.77523ZM5.77523 555.834C5.77523 552.094 6.74606 550.026 8.13965 548.845C9.57836 547.627 11.7448 547.11 14.668 547.11V544.567C11.5432 544.567 8.62764 545.1 6.49634 546.905C4.31994 548.749 3.23276 551.679 3.23276 555.834H5.77523ZM14.668 547.11H24.244V544.567H14.668V547.11ZM24.244 547.11C29.0222 547.11 31.0033 549.137 31.7074 550.993L34.0846 550.092C32.9407 547.076 29.8818 544.567 24.244 544.567V547.11ZM34.102 550.944C34.4679 549.847 35.0805 548.735 36.2183 547.886C37.3547 547.038 39.1467 546.354 42.052 546.354V543.811C38.7413 543.811 36.3753 544.597 34.6977 545.849C33.0215 547.1 32.1641 548.718 31.69 550.14L34.102 550.944ZM42.052 546.354H55.576V543.811H42.052V546.354ZM55.576 546.354C58.7324 546.354 61.2625 547.056 62.9805 548.436C64.6511 549.778 65.7288 551.901 65.7288 555.162H68.2712C68.2712 551.284 66.9549 548.367 64.5725 546.454C62.2375 544.579 59.0556 543.811 55.576 543.811V546.354ZM65.7288 555.162V570.786H68.2712V555.162H65.7288ZM11.7168 558.438V561.294H14.2592V558.438H11.7168ZM12.988 562.566H29.2V560.023H12.988V562.566ZM30.4712 561.294V558.438H27.9288V561.294H30.4712ZM30.4712 558.438C30.4712 556.837 29.8819 555.576 28.6909 554.793C27.608 554.081 26.2077 553.891 24.832 553.891V556.434C26.0603 556.434 26.844 556.622 27.2941 556.918C27.6361 557.143 27.9288 557.52 27.9288 558.438H30.4712ZM24.832 553.891H16.936V556.434H24.832V553.891ZM16.936 553.891C15.628 553.891 14.2836 554.051 13.2645 554.799C12.1473 555.62 11.7168 556.907 11.7168 558.438H14.2592C14.2592 557.366 14.5427 557.015 14.7695 556.849C15.0944 556.61 15.724 556.434 16.936 556.434V553.891ZM37.2528 558.438V561.294H39.7952V558.438H37.2528ZM38.524 562.566H58.18V560.023H38.524V562.566ZM59.4512 561.294V558.438H56.9088V561.294H59.4512ZM59.4512 558.438C59.4512 556.758 59.0548 555.349 57.8989 554.452C56.8305 553.623 55.3901 553.471 53.98 553.471V556.014C55.3419 556.014 56.0015 556.198 56.3401 556.461C56.5912 556.656 56.9088 557.095 56.9088 558.438H59.4512ZM53.98 553.471H42.556V556.014H53.98V553.471ZM42.556 553.471C41.2181 553.471 39.8168 553.626 38.7694 554.464C37.6486 555.36 37.2528 556.758 37.2528 558.438H39.7952C39.7952 557.095 40.1134 556.644 40.3576 556.449C40.6752 556.195 41.2899 556.014 42.556 556.014V553.471ZM12.988 532.666H11.7168V533.937H12.988V532.666ZM30.208 532.666V533.937H31.4792V532.666H30.208ZM39.112 532.666H37.8408V533.937H39.112V532.666ZM67 532.666H68.2712V531.394H67V532.666ZM67 542.158V543.429H68.2712V542.158H67ZM4.504 542.158H3.23276V543.429H4.504V542.158ZM33.232 521.41L32.0727 521.931L33.2451 524.536L34.3956 521.921L33.232 521.41ZM66.58 516.37V515.098H66.3046L66.054 515.212L66.58 516.37ZM67 516.37H68.2712V515.098H67V516.37ZM67 525.778L67.6738 526.856L68.2712 526.482V525.778H67ZM12.988 533.937H30.208V531.394H12.988V533.937ZM31.4792 532.666V530.146H28.9368V532.666H31.4792ZM31.4792 530.146C31.4792 528.542 30.9402 527.237 29.7495 526.405C28.6573 525.642 27.2198 525.43 25.756 525.43V527.973C27.0642 527.973 27.8527 528.181 28.2935 528.489C28.6358 528.728 28.9368 529.145 28.9368 530.146H31.4792ZM25.756 525.43H17.02V527.973H25.756V525.43ZM17.02 525.43C15.6688 525.43 14.2712 525.557 13.2333 526.336C12.0917 527.192 11.7168 528.551 11.7168 530.146H14.2592C14.2592 528.884 14.5563 528.521 14.7587 528.369C15.0648 528.14 15.6832 527.973 17.02 527.973V525.43ZM11.7168 530.146V532.666H14.2592V530.146H11.7168ZM39.112 533.937H67V531.394H39.112V533.937ZM65.7288 532.666V542.158H68.2712V532.666H65.7288ZM67 540.886H4.504V543.429H67V540.886ZM5.77523 542.158L5.77523 526.786H3.23276L3.23276 542.158H5.77523ZM5.77523 526.786C5.77523 523.783 6.4203 521.807 7.63038 520.564C8.83428 519.327 10.8441 518.565 14.164 518.565V516.022C10.5119 516.022 7.69172 516.856 5.80862 518.79C3.9317 520.718 3.23276 523.488 3.23276 526.786H5.77523ZM14.164 518.565H25.252V516.022H14.164V518.565ZM25.252 518.565C27.652 518.565 29.2059 519.124 30.2146 519.785C31.2256 520.447 31.7749 521.269 32.0727 521.931L34.3913 520.888C33.9331 519.87 33.0964 518.634 31.6084 517.658C30.1181 516.681 28.06 516.022 25.252 516.022V518.565ZM34.3956 521.921C34.805 520.991 35.3373 520.182 36.1502 519.594C36.9528 519.014 38.1477 518.565 40.036 518.565V516.022C37.7243 516.022 35.9791 516.581 34.6608 517.534C33.3527 518.479 32.583 519.728 32.0684 520.898L34.3956 521.921ZM40.036 518.565H61.96V516.022H40.036V518.565ZM61.96 518.565C64.7073 518.565 66.0643 518 67.106 517.527L66.054 515.212C65.2477 515.579 64.2527 516.022 61.96 516.022V518.565ZM66.58 517.641H67V515.098H66.58V517.641ZM65.7288 516.37V525.778H68.2712V516.37H65.7288ZM66.3262 524.7C65.9288 524.948 65.1008 525.43 61.876 525.43V527.973C65.3712 527.973 66.7272 527.447 67.6738 526.856L66.3262 524.7ZM61.876 525.43H43.06V527.973H61.876V525.43ZM43.06 525.43C41.7064 525.43 40.2872 525.524 39.2604 526.332C38.1391 527.215 37.8408 528.623 37.8408 530.23H40.3832C40.3832 528.812 40.6729 528.456 40.8326 528.331C41.0868 528.131 41.6416 527.973 43.06 527.973V525.43ZM37.8408 530.23V532.666H40.3832V530.23H37.8408ZM45.916 500.167H47.1872L47.1872 498.749L45.7781 498.903L45.916 500.167ZM22.816 502.687L22.6781 501.423L22.6827 503.951L22.816 502.687ZM45.916 505.123L45.7827 506.387L47.1872 506.535V505.123H45.916ZM67 497.899L67.1354 499.163L68.2712 499.041L68.2712 497.899H67ZM55.24 499.159L55.1046 497.895L53.9688 498.016L53.9688 499.159H55.24ZM55.24 506.047H53.9688V507.189L55.1046 507.311L55.24 506.047ZM67 507.307H68.2712V506.164L67.1354 506.043L67 507.307ZM67 515.791L66.8457 517.053L68.2712 517.227V515.791H67ZM4.504 508.147H3.23276V509.272L4.34966 509.409L4.504 508.147ZM4.504 496.891L4.33965 495.63L3.23276 495.774V496.891H4.504ZM67 488.743H68.2712V487.295L66.8357 487.482L67 488.743ZM45.7781 498.903L22.6781 501.423L22.9539 503.95L46.0539 501.43L45.7781 498.903ZM22.6827 503.951L45.7827 506.387L46.0493 503.858L22.9493 501.422L22.6827 503.951ZM47.1872 505.123V500.167H44.6448V505.123H47.1872ZM66.8646 496.635L55.1046 497.895L55.3754 500.423L67.1354 499.163L66.8646 496.635ZM53.9688 499.159V506.047H56.5112V499.159H53.9688ZM55.1046 507.311L66.8646 508.571L67.1354 506.043L55.3754 504.783L55.1046 507.311ZM65.7288 507.307V515.791H68.2712V507.307H65.7288ZM67.1543 514.529L4.65834 506.885L4.34966 509.409L66.8457 517.053L67.1543 514.529ZM5.77523 508.147L5.77523 496.891H3.23276L3.23276 508.147H5.77523ZM4.66835 498.151L67.1643 490.003L66.8357 487.482L4.33965 495.63L4.66835 498.151ZM65.7288 488.743V497.899H68.2712V488.743H65.7288ZM67 484.33V485.601H68.2712V484.33H67ZM13.576 484.33V483.059H12.3048V484.33H13.576ZM13.576 492.31V493.581H14.8472V492.31H13.576ZM4.504 492.31H3.23276L3.23276 493.581H4.504V492.31ZM4.504 466.942V465.671H3.23276V466.942H4.504ZM13.576 466.942H14.8472V465.671H13.576V466.942ZM13.576 474.922H12.3048V476.193H13.576V474.922ZM67 474.922H68.2712V473.651H67V474.922ZM67 483.059H13.576L13.576 485.601H67V483.059ZM12.3048 484.33V492.31H14.8472L14.8472 484.33H12.3048ZM13.576 491.039H4.504L4.504 493.581H13.576V491.039ZM5.77523 492.31L5.77523 466.942H3.23276L3.23276 492.31H5.77523ZM4.504 468.213H13.576V465.671H4.504V468.213ZM12.3048 466.942V474.922H14.8472V466.942H12.3048ZM13.576 476.193H67V473.651H13.576V476.193ZM65.7288 474.922V484.33H68.2712V474.922H65.7288ZM4.504 464.556H3.23276V465.827H4.504V464.556ZM4.504 442.968V441.697H3.23276V442.968H4.504ZM13.576 442.968H14.8472V441.697H13.576V442.968ZM13.576 455.064H12.3048V456.335H13.576L13.576 455.064ZM29.956 455.064V456.335H31.2272V455.064H29.956ZM29.956 445.572V444.301H28.6848V445.572H29.956ZM39.448 445.572H40.7192V444.301H39.448V445.572ZM39.448 455.064H38.1768V456.335H39.448V455.064ZM57.508 455.064V456.335H58.7792V455.064H57.508ZM57.508 442.464V441.193H56.2368V442.464H57.508ZM67 442.464H68.2712V441.193H67V442.464ZM67 464.556V465.827H68.2712V464.556H67ZM5.77523 464.556L5.77523 442.968H3.23276L3.23276 464.556H5.77523ZM4.504 444.239H13.576V441.697H4.504V444.239ZM12.3048 442.968V455.064H14.8472V442.968H12.3048ZM13.576 456.335H29.956V453.793H13.576L13.576 456.335ZM31.2272 455.064V445.572H28.6848V455.064H31.2272ZM29.956 446.843H39.448V444.301H29.956V446.843ZM38.1768 445.572V455.064H40.7192V445.572H38.1768ZM39.448 456.335H57.508V453.793H39.448V456.335ZM58.7792 455.064V442.464H56.2368V455.064H58.7792ZM57.508 443.735H67V441.193H57.508V443.735ZM65.7288 442.464V464.556H68.2712V442.464H65.7288ZM67 463.285H4.504V465.827H67V463.285Z" fill="black" mask="url(#path-10-outside-4_7702_12884)"/>
<path d="M72 368.459C72 364.959 68.7182 362.259 64.0442 362.259C61.7569 362.259 58.0773 363.159 52.9061 364.859C47.7348 366.559 42.9613 367.459 38.6851 367.459H37.3923C40.1768 363.059 42.4641 360.059 44.0552 358.659C47.337 355.759 56.6851 348.159 56.6851 342.259C56.6851 338.759 54.1989 336.359 51.2155 336.359C49.5249 336.359 48.0331 337.059 46.5414 338.459C43.6575 341.259 42.2652 347.459 40.674 354.759C39.8784 358.459 38.3867 362.359 36 366.659C33.6133 362.259 32.0221 358.259 31.2265 354.459C30.4309 350.759 29.6354 347.459 28.7403 344.659C26.8508 338.859 23.9669 336.359 20.5856 336.359C17.5028 336.359 15.3149 338.759 15.3149 341.959C15.3149 343.959 15.9116 345.859 17.2044 347.759C18.3978 349.559 21.5801 352.859 26.7514 357.559C31.4254 362.459 31.0276 361.759 34.6077 367.459C29.8343 367.459 24.7624 366.559 19.4917 364.759C14.221 362.959 10.3425 362.059 7.9558 362.059C3.18232 362.059 0 364.759 0 368.259C0 371.859 3.38121 374.459 7.9558 374.459C11.4365 374.459 18.895 371.959 23.6685 370.359C26.0552 369.559 29.337 369.259 33.3149 369.259H34.6077C32.221 373.259 29.7348 376.359 27.2486 378.559C22.2762 382.959 15.3149 389.159 15.3149 394.459C15.3149 397.959 17.6022 400.359 20.5856 400.359C22.2762 400.359 23.8674 399.659 25.3591 398.359C28.3425 395.759 29.6354 389.759 31.2265 382.259C32.0221 378.459 33.6133 374.359 36 370.059C38.3867 374.259 39.9779 378.259 40.674 381.859C41.3702 385.559 42.2652 388.859 43.0608 391.759C44.6519 397.659 47.9337 400.359 51.2155 400.359C54.1989 400.359 56.6851 397.759 56.6851 394.559C56.6851 389.359 51.2155 384.459 45.6464 379.459C42.8619 376.959 40.0773 373.659 37.3923 369.259C42.5635 369.259 47.5359 370.159 52.7072 371.959C57.779 373.759 61.558 374.659 64.0442 374.659C68.5193 374.659 72 372.159 72 368.459Z" fill="black"/>
<mask id="path-13-outside-5_7702_12884" maskUnits="userSpaceOnUse" x="2" y="102.68" width="68" height="194" fill="black">
<rect fill="white" x="2" y="102.68" width="68" height="194"/>
<path d="M39.448 294.588V285.264H54.82C57.004 285.264 58.264 284.76 58.264 282.996V282.66C58.264 280.896 56.752 280.476 54.82 280.476H4.504L4.504 270.816H55.576C63.724 270.816 67.504 275.016 67.504 281.568V284.172C67.504 290.304 64.732 294.588 56.164 294.588H39.448ZM39.448 268.256V258.932H54.82C57.004 258.932 58.264 258.428 58.264 256.664V256.328C58.264 254.564 56.752 254.144 54.82 254.144H4.504L4.504 244.484H55.576C63.724 244.484 67.504 248.684 67.504 255.236V257.84C67.504 263.972 64.732 268.256 56.164 268.256H39.448ZM67.672 221.72C67.672 229.28 63.556 233.312 55.828 233.312H43.312V223.904H54.232C57.088 223.904 58.6 222.98 58.6 220.796C58.6 218.528 57.088 217.688 53.224 217.688H51.796C47.344 217.688 45.748 218.108 41.296 221.552L33.568 227.6C28.36 231.632 24.328 232.808 18.112 232.808H16.096C7.78 232.808 3.916 228.608 3.916 221.132V219.368C3.916 211.556 7.36 208.532 14.752 208.532H25L25 217.688H16.012C13.912 217.688 12.316 218.108 12.316 220.376C12.316 222.644 13.744 223.148 16.684 223.148H17.86C21.388 223.148 23.32 222.476 27.436 219.284L35.248 213.236C40.792 208.952 43.984 207.608 51.04 207.608H53.056C62.212 207.608 67.672 211.556 67.672 219.872V221.72ZM67 204.912H4.504L4.504 195.42H29.536V188.952H4.504L4.504 179.46H67V188.952H39.532V195.42H67V204.912ZM3.916 164.027V162.431C3.916 153.191 9.628 150.251 18.196 150.251H53.056C61.792 150.251 67.756 153.191 67.756 162.347V163.943C67.756 173.015 61.792 176.207 53.056 176.207H18.28C9.628 176.207 3.916 172.931 3.916 164.027ZM17.776 159.911C14.5 159.911 12.988 161.003 12.988 163.187C12.988 165.623 14.584 166.547 17.776 166.547H53.728C56.416 166.547 58.516 165.791 58.516 163.103C58.516 160.583 56.416 159.911 53.728 159.911H17.776ZM67 130.944V141.444L4.504 149.256L4.504 139.68L44.908 135.396L4.504 131.196L4.504 122.376L44.908 118.008L4.504 113.724V104.82L67 112.8L67 122.964L30.628 126.912L67 130.944Z"/>
</mask>
<path d="M39.448 294.588H38.1768V295.859H39.448V294.588ZM39.448 285.264V283.992H38.1768V285.264H39.448ZM4.504 280.476H3.23276V281.747H4.504V280.476ZM4.504 270.816V269.544H3.23276V270.816H4.504ZM40.7192 294.588V285.264H38.1768V294.588H40.7192ZM39.448 286.535H54.82V283.992H39.448V286.535ZM54.82 286.535C55.9501 286.535 57.1071 286.416 58.0064 285.886C58.4866 285.603 58.8904 285.205 59.1629 284.677C59.4299 284.159 59.5352 283.586 59.5352 282.996H56.9928C56.9928 283.288 56.9406 283.439 56.9031 283.512C56.8711 283.574 56.8234 283.632 56.7156 283.696C56.4389 283.859 55.8739 283.992 54.82 283.992V286.535ZM59.5352 282.996V282.66H56.9928V282.996H59.5352ZM59.5352 282.66C59.5352 282.034 59.3994 281.441 59.0885 280.922C58.7767 280.4 58.3372 280.033 57.8578 279.781C56.951 279.304 55.8267 279.204 54.82 279.204V281.747C55.7453 281.747 56.343 281.857 56.6752 282.032C56.8153 282.105 56.8745 282.173 56.9066 282.227C56.9396 282.282 56.9928 282.404 56.9928 282.66H59.5352ZM54.82 279.204H4.504V281.747H54.82V279.204ZM5.77523 280.476L5.77523 270.816H3.23276L3.23276 280.476H5.77523ZM4.504 272.087H55.576V269.544H4.504V272.087ZM55.576 272.087C59.4434 272.087 62.0663 273.082 63.719 274.655C65.363 276.22 66.2328 278.534 66.2328 281.568H68.7752C68.7752 278.049 67.755 274.987 65.472 272.814C63.1977 270.649 59.8566 269.544 55.576 269.544V272.087ZM66.2328 281.568V284.172H68.7752V281.568H66.2328ZM66.2328 284.172C66.2328 287.071 65.5751 289.293 64.1299 290.799C62.6934 292.295 60.2532 293.316 56.164 293.316V295.859C60.6428 295.859 63.8726 294.738 65.9641 292.56C68.0469 290.39 68.7752 287.404 68.7752 284.172H66.2328ZM56.164 293.316H39.448V295.859H56.164V293.316ZM39.448 268.256H38.1768V269.527H39.448V268.256ZM39.448 258.932V257.66H38.1768V258.932H39.448ZM4.504 254.144H3.23276V255.415H4.504V254.144ZM4.504 244.484V243.212H3.23276V244.484H4.504ZM40.7192 268.256V258.932H38.1768V268.256H40.7192ZM39.448 260.203H54.82V257.66H39.448V260.203ZM54.82 260.203C55.9501 260.203 57.1071 260.084 58.0064 259.554C58.4866 259.271 58.8904 258.873 59.1629 258.345C59.4299 257.827 59.5352 257.254 59.5352 256.664H56.9928C56.9928 256.956 56.9406 257.107 56.9031 257.18C56.8711 257.242 56.8234 257.3 56.7156 257.364C56.4389 257.527 55.8739 257.66 54.82 257.66V260.203ZM59.5352 256.664V256.328H56.9928V256.664H59.5352ZM59.5352 256.328C59.5352 255.702 59.3994 255.109 59.0885 254.59C58.7767 254.068 58.3372 253.701 57.8578 253.449C56.951 252.972 55.8267 252.872 54.82 252.872V255.415C55.7453 255.415 56.343 255.525 56.6752 255.7C56.8153 255.773 56.8745 255.841 56.9066 255.895C56.9396 255.95 56.9928 256.072 56.9928 256.328H59.5352ZM54.82 252.872H4.504V255.415H54.82V252.872ZM5.77523 254.144L5.77523 244.484H3.23276L3.23276 254.144H5.77523ZM4.504 245.755H55.576V243.212H4.504L4.504 245.755ZM55.576 245.755C59.4434 245.755 62.0663 246.75 63.719 248.323C65.363 249.888 66.2328 252.202 66.2328 255.236H68.7752C68.7752 251.717 67.755 248.655 65.472 246.482C63.1977 244.317 59.8566 243.212 55.576 243.212V245.755ZM66.2328 255.236V257.84H68.7752V255.236H66.2328ZM66.2328 257.84C66.2328 260.739 65.5751 262.961 64.1299 264.467C62.6934 265.963 60.2532 266.984 56.164 266.984V269.527C60.6428 269.527 63.8726 268.406 65.9641 266.228C68.0469 264.058 68.7752 261.072 68.7752 257.84H66.2328ZM56.164 266.984H39.448V269.527H56.164V266.984ZM43.312 233.312H42.0408V234.584H43.312V233.312ZM43.312 223.904V222.633H42.0408V223.904H43.312ZM41.296 221.552L40.5182 220.547L40.5125 220.551L41.296 221.552ZM33.568 227.6L34.3462 228.606L34.3515 228.601L33.568 227.6ZM25 208.532H26.2712V207.261H25V208.532ZM25 217.688V218.96H26.2712V217.688H25ZM27.436 219.284L26.6578 218.279L26.657 218.28L27.436 219.284ZM35.248 213.236L34.4707 212.23L34.4698 212.231L35.248 213.236ZM66.4008 221.72C66.4008 225.277 65.4363 227.801 63.7587 229.443C62.0767 231.09 59.4825 232.041 55.828 232.041V234.584C59.9015 234.584 63.2293 233.519 65.5373 231.26C67.8497 228.996 68.9432 225.724 68.9432 221.72H66.4008ZM55.828 232.041H43.312V234.584H55.828V232.041ZM44.5832 233.312V223.904H42.0408V233.312H44.5832ZM43.312 225.176H54.232V222.633H43.312V225.176ZM54.232 225.176C55.7523 225.176 57.1554 224.938 58.2059 224.218C59.3514 223.432 59.8712 222.222 59.8712 220.796H57.3288C57.3288 221.554 57.0926 221.898 56.7681 222.121C56.3486 222.409 55.5677 222.633 54.232 222.633V225.176ZM59.8712 220.796C59.8712 220.093 59.7545 219.403 59.4366 218.778C59.1112 218.138 58.6161 217.646 57.9932 217.289C56.8211 216.617 55.1815 216.417 53.224 216.417V218.96C55.1305 218.96 56.1789 219.18 56.7288 219.495C56.9669 219.631 57.0913 219.775 57.1701 219.93C57.2565 220.1 57.3288 220.366 57.3288 220.796H59.8712ZM53.224 216.417H51.796V218.96H53.224V216.417ZM51.796 216.417C49.5474 216.417 47.8505 216.518 46.1216 217.131C44.4083 217.737 42.763 218.81 40.5182 220.547L42.0738 222.558C44.281 220.85 45.6597 219.991 46.9704 219.527C48.2655 219.068 49.5926 218.96 51.796 218.96V216.417ZM40.5125 220.551L32.7845 226.599L34.3515 228.601L42.0795 222.553L40.5125 220.551ZM32.7898 226.595C30.2667 228.549 28.0844 229.767 25.8223 230.508C23.5571 231.25 21.14 231.537 18.112 231.537V234.08C21.3 234.08 24.0069 233.778 26.6137 232.924C29.2236 232.069 31.6613 230.684 34.3462 228.606L32.7898 226.595ZM18.112 231.537H16.096V234.08H18.112V231.537ZM16.096 231.537C12.1373 231.537 9.46761 230.538 7.78165 228.87C6.0979 227.204 5.18723 224.664 5.18723 221.132H2.64476C2.64476 225.077 3.66609 228.375 5.99334 230.677C8.31838 232.978 11.7387 234.08 16.096 234.08V231.537ZM5.18723 221.132V219.368H2.64476L2.64476 221.132H5.18723ZM5.18723 219.368C5.18723 215.616 6.01819 213.32 7.44738 211.933C8.88436 210.538 11.1907 209.804 14.752 209.804V207.261C10.9213 207.261 7.80964 208.038 5.67661 210.109C3.5358 212.186 2.64476 215.308 2.64476 219.368H5.18723ZM14.752 209.804H25L25 207.261H14.752V209.804ZM23.7288 208.532L23.7288 217.688H26.2712L26.2712 208.532H23.7288ZM25 216.417H16.012V218.96H25V216.417ZM16.012 216.417C14.9407 216.417 13.7118 216.511 12.7327 217.086C12.2106 217.392 11.7669 217.83 11.4653 218.423C11.17 219.003 11.0448 219.663 11.0448 220.376H13.5872C13.5872 219.955 13.6615 219.713 13.731 219.576C13.7943 219.452 13.8809 219.36 14.0203 219.278C14.3642 219.076 14.9833 218.96 16.012 218.96V216.417ZM11.0448 220.376C11.0448 221.069 11.1527 221.733 11.444 222.327C11.7452 222.94 12.2043 223.399 12.772 223.719C13.8173 224.31 15.2208 224.42 16.684 224.42L16.684 221.877C15.2072 221.877 14.4267 221.734 14.023 221.506C13.8662 221.417 13.7845 221.325 13.7261 221.206C13.6578 221.067 13.5872 220.818 13.5872 220.376H11.0448ZM16.684 224.42H17.86L17.86 221.877H16.684L16.684 224.42ZM17.86 224.42C19.7142 224.42 21.2535 224.242 22.8937 223.596C24.5028 222.962 26.129 221.907 28.215 220.289L26.657 218.28C24.627 219.854 23.2292 220.731 21.9613 221.231C20.7245 221.718 19.5338 221.877 17.86 221.877L17.86 224.42ZM28.2142 220.29L36.0262 214.242L34.4698 212.231L26.6578 218.279L28.2142 220.29ZM36.0253 214.242C38.7639 212.126 40.8257 210.813 43.0152 210.009C45.1945 209.209 47.5915 208.88 51.04 208.88V206.337C47.4325 206.337 44.7055 206.68 42.1388 207.623C39.5823 208.561 37.2761 210.063 34.4707 212.23L36.0253 214.242ZM51.04 208.88H53.056V206.337H51.04V208.88ZM53.056 208.88C57.4785 208.88 60.802 209.837 62.9988 211.611C65.1488 213.347 66.4008 216.013 66.4008 219.872H68.9432C68.9432 215.416 67.4652 211.95 64.5962 209.633C61.774 207.354 57.7895 206.337 53.056 206.337V208.88ZM66.4008 219.872V221.72H68.9432V219.872H66.4008ZM67 204.912V206.183H68.2712V204.912H67ZM4.504 204.912H3.23276V206.183H4.504V204.912ZM4.504 195.42V194.149H3.23276V195.42H4.504ZM29.536 195.42V196.691H30.8072V195.42H29.536ZM29.536 188.952H30.8072V187.681H29.536V188.952ZM4.504 188.952H3.23276V190.223H4.504V188.952ZM4.504 179.46V178.189H3.23276V179.46H4.504ZM67 179.46H68.2712V178.189H67V179.46ZM67 188.952V190.223H68.2712V188.952H67ZM39.532 188.952V187.681H38.2608V188.952H39.532ZM39.532 195.42H38.2608V196.691H39.532V195.42ZM67 195.42H68.2712V194.149H67V195.42ZM67 203.641H4.504V206.183H67V203.641ZM5.77523 204.912L5.77523 195.42H3.23276L3.23276 204.912H5.77523ZM4.504 196.691H29.536V194.149H4.504V196.691ZM30.8072 195.42V188.952H28.2648V195.42H30.8072ZM29.536 187.681H4.504V190.223H29.536V187.681ZM5.77523 188.952L5.77523 179.46H3.23276L3.23276 188.952H5.77523ZM4.504 180.731H67V178.189H4.504V180.731ZM65.7288 179.46V188.952H68.2712V179.46H65.7288ZM67 187.681H39.532V190.223H67V187.681ZM38.2608 188.952V195.42H40.8032V188.952H38.2608ZM39.532 196.691H67V194.149H39.532V196.691ZM65.7288 195.42V204.912H68.2712V195.42H65.7288ZM5.18723 164.027V162.431H2.64476V164.027H5.18723ZM5.18723 162.431C5.18723 158.089 6.51329 155.475 8.60982 153.89C10.7803 152.248 14.0134 151.522 18.196 151.522V148.98C13.8106 148.98 9.90374 149.723 7.07617 151.862C4.1747 154.056 2.64476 157.532 2.64476 162.431H5.18723ZM18.196 151.522H53.056V148.98H18.196V151.522ZM53.056 151.522C57.3251 151.522 60.6742 152.249 62.934 153.893C65.1122 155.478 66.4848 158.071 66.4848 162.347H69.0272C69.0272 157.466 67.4178 154.011 64.43 151.837C61.5238 149.723 57.5229 148.98 53.056 148.98V151.522ZM66.4848 162.347V163.943H69.0272V162.347H66.4848ZM66.4848 163.943C66.4848 168.174 65.1128 170.819 62.9206 172.459C60.6571 174.152 57.3077 174.936 53.056 174.936V177.478C57.5403 177.478 61.5409 176.666 64.4434 174.495C67.4172 172.27 69.0272 168.783 69.0272 163.943H66.4848ZM53.056 174.936H18.28V177.478H53.056V174.936ZM18.28 174.936C14.0776 174.936 10.8176 174.133 8.62899 172.448C6.50462 170.813 5.18723 168.186 5.18723 164.027H2.64476C2.64476 168.772 4.18338 172.235 7.078 174.463C9.9084 176.642 13.8304 177.478 18.28 177.478V174.936ZM17.776 158.64C16.0399 158.64 14.5315 158.921 13.4292 159.685C12.2358 160.512 11.7168 161.761 11.7168 163.187H14.2592C14.2592 162.428 14.4962 162.039 14.8778 161.774C15.3505 161.447 16.2361 161.182 17.776 161.182V158.64ZM11.7168 163.187C11.7168 164.718 12.244 166.009 13.4766 166.836C14.5969 167.588 16.1108 167.818 17.776 167.818V165.276C16.2492 165.276 15.3691 165.044 14.8934 164.725C14.53 164.481 14.2592 164.092 14.2592 163.187H11.7168ZM17.776 167.818H53.728V165.276H17.776V167.818ZM53.728 167.818C55.145 167.818 56.6286 167.627 57.7918 166.918C59.068 166.14 59.7872 164.845 59.7872 163.103H57.2448C57.2448 164.048 56.914 164.476 56.4682 164.747C55.9094 165.088 54.999 165.276 53.728 165.276V167.818ZM59.7872 163.103C59.7872 162.293 59.6173 161.553 59.2492 160.909C58.8797 160.264 58.3524 159.79 57.752 159.453C56.5982 158.806 55.1298 158.64 53.728 158.64V161.182C55.0142 161.182 55.9398 161.352 56.508 161.67C56.7686 161.817 56.9343 161.983 57.0426 162.172C57.1522 162.364 57.2448 162.652 57.2448 163.103H59.7872ZM53.728 158.64H17.776V161.182H53.728V158.64ZM67 130.944H68.2712V129.806L67.1401 129.68L67 130.944ZM67 141.444L67.1577 142.705L68.2712 142.566V141.444H67ZM4.504 149.256H3.23276V150.696L4.66168 150.517L4.504 149.256ZM4.504 139.68L4.36996 138.416L3.23276 138.536V139.68H4.504ZM44.908 135.396L45.042 136.66L45.0394 134.131L44.908 135.396ZM4.504 131.196H3.23276V132.342L4.37256 132.46L4.504 131.196ZM4.504 122.376L4.36736 121.112L3.23276 121.235V122.376H4.504ZM44.908 118.008L45.0446 119.272L45.042 116.744L44.908 118.008ZM4.504 113.724H3.23276V114.867L4.36996 114.988L4.504 113.724ZM4.504 104.82L4.66501 103.559L3.23276 103.376V104.82H4.504ZM67 112.8H68.2712V111.681L67.161 111.539L67 112.8ZM67 122.964L67.1372 124.228L68.2712 124.105V122.964H67ZM30.628 126.912L30.4908 125.648L30.4879 128.175L30.628 126.912ZM65.7288 130.944V141.444H68.2712V130.944H65.7288ZM66.8423 140.182L4.34632 147.994L4.66168 150.517L67.1577 142.705L66.8423 140.182ZM5.77523 149.256L5.77523 139.68H3.23276L3.23276 149.256H5.77523ZM4.63803 140.944L45.042 136.66L44.774 134.132L4.36996 138.416L4.63803 140.944ZM45.0394 134.131L4.63544 129.931L4.37256 132.46L44.7766 136.66L45.0394 134.131ZM5.77523 131.196L5.77523 122.376H3.23276L3.23276 131.196H5.77523ZM4.64063 123.64L45.0446 119.272L44.7714 116.744L4.36736 121.112L4.64063 123.64ZM45.042 116.744L4.63803 112.46L4.36996 114.988L44.774 119.272L45.042 116.744ZM5.77523 113.724L5.77523 104.82H3.23276L3.23276 113.724H5.77523ZM4.34298 106.081L66.839 114.061L67.161 111.539L4.66501 103.559L4.34298 106.081ZM65.7288 112.8L65.7288 122.964H68.2712L68.2712 112.8H65.7288ZM66.8628 121.7L30.4908 125.648L30.7652 128.176L67.1372 124.228L66.8628 121.7ZM30.4879 128.175L66.8599 132.207L67.1401 129.68L30.7681 125.648L30.4879 128.175Z" fill="black" mask="url(#path-13-outside-5_7702_12884)"/>
<path d="M72 32.1002C72 28.6002 68.7182 25.9002 64.0442 25.9002C61.7569 25.9002 58.0773 26.8002 52.9061 28.5002C47.7348 30.2002 42.9613 31.1002 38.6851 31.1002H37.3923C40.1768 26.7002 42.4641 23.7002 44.0552 22.3002C47.337 19.4002 56.6851 11.8002 56.6851 5.90024C56.6851 2.40024 54.1989 0.000244141 51.2155 0.000244141C49.5249 0.000244141 48.0331 0.700245 46.5414 2.10025C43.6575 4.90025 42.2652 11.1002 40.674 18.4002C39.8784 22.1002 38.3867 26.0002 36 30.3002C33.6133 25.9002 32.0221 21.9002 31.2265 18.1002C30.4309 14.4002 29.6354 11.1002 28.7403 8.30024C26.8508 2.50025 23.9669 0.000244141 20.5856 0.000244141C17.5028 0.000244141 15.3149 2.40024 15.3149 5.60024C15.3149 7.60024 15.9116 9.50024 17.2044 11.4002C18.3978 13.2002 21.5801 16.5002 26.7514 21.2002C31.4254 26.1002 31.0276 25.4002 34.6077 31.1002C29.8343 31.1002 24.7624 30.2002 19.4917 28.4002C14.221 26.6002 10.3425 25.7002 7.9558 25.7002C3.18232 25.7002 0 28.4002 0 31.9002C0 35.5002 3.38121 38.1002 7.9558 38.1002C11.4365 38.1002 18.895 35.6002 23.6685 34.0002C26.0552 33.2002 29.337 32.9002 33.3149 32.9002H34.6077C32.221 36.9002 29.7348 40.0002 27.2486 42.2002C22.2762 46.6002 15.3149 52.8002 15.3149 58.1002C15.3149 61.6002 17.6022 64.0002 20.5856 64.0002C22.2762 64.0002 23.8674 63.3002 25.3591 62.0002C28.3425 59.4002 29.6354 53.4002 31.2265 45.9002C32.0221 42.1002 33.6133 38.0002 36 33.7002C38.3867 37.9002 39.9779 41.9002 40.674 45.5002C41.3702 49.2002 42.2652 52.5002 43.0608 55.4002C44.6519 61.3002 47.9337 64.0002 51.2155 64.0002C54.1989 64.0002 56.6851 61.4002 56.6851 58.2002C56.6851 53.0002 51.2155 48.1002 45.6464 43.1002C42.8619 40.6002 40.0773 37.3002 37.3923 32.9002C42.5635 32.9002 47.5359 33.8002 52.7072 35.6002C57.779 37.4002 61.558 38.3002 64.0442 38.3002C68.5193 38.3002 72 35.8002 72 32.1002Z" fill="black"/>
</g>
<defs>
<clipPath id="clip0_7702_12884">
<rect width="72" height="1664" fill="white"/>
</clipPath>
</defs>
</svg>
